SplineFontDB: 3.2
FontName: .
FullName: .
FamilyName: .
Weight: Book
Copyright: Typeface (c) (your company). 2021. All Rights Reserved
Version: 1.000;April 12, 2024;FontCreator 15.0.0.2943 64-bit
ItalicAngle: 0
UnderlinePosition: -2092
UnderlineWidth: 150
Ascent: 1638
Descent: 410
InvalidEm: 0
sfntRevision: 0x00010000
LayerCount: 2
Layer: 0 1 "Back" 1
Layer: 1 1 "Fore" 0
XUID: [1021 1007 -1630351822 28381]
StyleMap: 0x0040
FSType: 0
OS2Version: 4
OS2_WeightWidthSlopeOnly: 1
OS2_UseTypoMetrics: 0
CreationTime: 1632751415
ModificationTime: 1714058438
PfmFamily: 17
TTFWeight: 400
TTFWidth: 5
LineGap: 0
VLineGap: 0
Panose: 2 0 5 0 0 0 0 0 0 0
OS2TypoAscent: 1638
OS2TypoAOffset: 0
OS2TypoDescent: -410
OS2TypoDOffset: 0
OS2TypoLinegap: 0
OS2WinAscent: 1024
OS2WinAOffset: 0
OS2WinDescent: 40
OS2WinDOffset: 0
HheadAscent: 1024
HheadAOffset: 0
HheadDescent: -40
HheadDOffset: 0
OS2SubXSize: 1434
OS2SubYSize: 1331
OS2SubXOff: 0
OS2SubYOff: 283
OS2SupXSize: 1434
OS2SupYSize: 1331
OS2SupXOff: 0
OS2SupYOff: 977
OS2StrikeYSize: 102
OS2StrikeYPos: 530
OS2CapHeight: 1434
OS2XHeight: 1024
OS2Vendor: 'HL  '
OS2CodePages: 00000001.00000000
OS2UnicodeRanges: 00000000.10002000.00000000.00000000
DEI: 91125
ShortTable: maxp 16
  1
  0
  504
  1768
  76
  0
  0
  2
  0
  1
  1
  0
  64
  0
  0
  0
EndShort
LangName: 1033 "Typeface +AKkA (your company). 2021. All Rights Reserved" ".+AH8A" "Regular" ".+AH8A:Version 1.000" "" "Version 1.000;April 12, 2024;FontCreator 15.0.0.2943 64-bit" "" "" "" "" "This font was created using FontCreator 9.0 from High-Logic.com"
GaspTable: 1 65535 2 0
Encoding: UnicodeBmp
UnicodeInterp: none
NameList: AGL For New Fonts
DisplaySize: -48
AntiAlias: 1
FitToEm: 0
BeginChars: 65539 506

StartChar: .notdef
Encoding: 65536 -1 0
Width: 1024
GlyphClass: 1
Flags: W
LayerCount: 2
Fore
SplineSet
725 85 m 1,0,-1
 299 85 l 2,1,2
 213 85 213 85 213 171 c 2,3,-1
 213 853 l 2,4,5
 213 939 213 939 299 939 c 2,6,-1
 725 939 l 2,7,8
 811 939 811 939 811 853 c 2,9,-1
 811 171 l 2,10,11
 811 85 811 85 725 85 c 1,12,-1
 725 85 l 1,0,-1
384 256 m 1,13,-1
 299 256 l 1,14,-1
 299 171 l 1,15,-1
 384 171 l 1,16,-1
 384 256 l 1,17,-1
 384 256 l 1,13,-1
384 427 m 1,18,-1
 299 427 l 1,19,-1
 299 341 l 1,20,-1
 384 341 l 1,21,-1
 384 427 l 1,22,-1
 384 427 l 1,18,-1
384 597 m 1,23,-1
 299 597 l 1,24,-1
 299 512 l 1,25,-1
 384 512 l 1,26,-1
 384 597 l 1,27,-1
 384 597 l 1,23,-1
725 853 m 1,28,-1
 299 853 l 1,29,-1
 299 683 l 1,30,-1
 725 683 l 1,31,-1
 725 853 l 1,32,-1
 725 853 l 1,28,-1
555 256 m 1,33,-1
 469 256 l 1,34,-1
 469 171 l 1,35,-1
 555 171 l 1,36,-1
 555 256 l 1,37,-1
 555 256 l 1,33,-1
555 427 m 1,38,-1
 469 427 l 1,39,-1
 469 341 l 1,40,-1
 555 341 l 1,41,-1
 555 427 l 1,42,-1
 555 427 l 1,38,-1
555 597 m 1,43,-1
 469 597 l 1,44,-1
 469 512 l 1,45,-1
 555 512 l 1,46,-1
 555 597 l 1,47,-1
 555 597 l 1,43,-1
725 256 m 1,48,-1
 640 256 l 1,49,-1
 640 171 l 1,50,-1
 725 171 l 1,51,-1
 725 256 l 1,52,-1
 725 256 l 1,48,-1
725 427 m 1,53,-1
 640 427 l 1,54,-1
 640 341 l 1,55,-1
 725 341 l 1,56,-1
 725 427 l 1,57,-1
 725 427 l 1,53,-1
725 597 m 1,58,-1
 640 597 l 1,59,-1
 640 512 l 1,60,-1
 725 512 l 1,61,-1
 725 597 l 1,62,-1
 725 597 l 1,58,-1
EndSplineSet
EndChar

StartChar: uniE001
Encoding: 57345 57345 4
Width: 1024
GlyphClass: 2
Flags: W
LayerCount: 2
Fore
SplineSet
8 620 m 2,0,1
 0 639 0 639 0 650 c 0,2,3
 0 676 0 676 32 693 c 2,4,-1
 149 754 l 1,5,-1
 223 330 l 1,6,-1
 223 298 l 1,7,-1
 228 279 l 1,8,-1
 223 259 l 1,9,-1
 223 208 l 1,10,-1
 225 212 l 1,11,-1
 225 200 l 1,12,-1
 8 620 l 2,0,1
189 772 m 2,13,14
 188 775 188 775 188 787 c 0,15,16
 188 826 188 826 232 834 c 2,17,-1
 376 860 l 1,18,19
 368 845 368 845 367 826 c 2,20,-1
 341 529 l 1,21,22
 282 518 282 518 241 479 c 1,23,-1
 189 772 l 2,13,14
413 152 m 0,24,25
 331 152 331 152 266 208 c 1,26,-1
 266 259 l 1,27,28
 330 207 330 207 411 207 c 0,29,30
 430 207 430 207 436 208 c 0,31,32
 441 207 441 207 460 207 c 0,33,34
 544 207 544 207 607 264 c 1,35,-1
 607 209 l 1,36,37
 569 153 569 153 436 153 c 0,38,39
 431 152 431 152 413 152 c 0,24,25
411 242 m 0,40,41
 330 242 330 242 266 297 c 1,42,-1
 266 348 l 1,43,44
 334 292 334 292 415 292 c 0,45,46
 431 292 431 292 436 293 c 0,47,48
 442 292 442 292 461 292 c 0,49,50
 545 292 545 292 608 349 c 1,51,-1
 608 298 l 1,52,53
 543 242 543 242 461 242 c 0,54,55
 442 242 442 242 436 243 c 0,56,57
 431 242 431 242 411 242 c 0,40,41
413 331 m 0,58,59
 330 331 330 331 266 386 c 1,60,-1
 266 437 l 1,61,62
 330 494 330 494 413 494 c 0,63,64
 418 494 418 494 436 492 c 0,65,66
 458 494 458 494 460 494 c 0,67,68
 546 494 546 494 607 436 c 1,69,-1
 607 388 l 1,70,71
 569 332 569 332 436 332 c 0,72,73
 431 331 431 331 413 331 c 0,58,59
415 540 m 0,74,75
 410 540 410 540 384 538 c 1,76,-1
 411 820 l 2,77,78
 412 871 412 871 465 871 c 2,79,-1
 467 871 l 1,80,-1
 589 860 l 1,81,-1
 578 839 l 1,82,-1
 470 539 l 1,83,-1
 436 539 l 2,84,85
 431 540 431 540 415 540 c 0,74,75
642 470 m 0,86,87
 589 528 589 528 513 535 c 1,88,-1
 618 826 l 2,89,90
 631 863 631 863 663 863 c 0,91,92
 670 863 670 863 687 858 c 2,93,-1
 987 748 l 2,94,95
 1024 735 1024 735 1024 704 c 0,96,97
 1024 697 1024 697 1019 680 c 1,98,-1
 1019 678 l 1,99,-1
 856 226 l 2,100,101
 841 189 841 189 810 189 c 0,102,103
 803 189 803 189 786 194 c 2,104,-1
 650 245 l 1,105,-1
 650 264 l 1,106,-1
 646 285 l 1,107,-1
 650 304 l 1,108,-1
 650 355 l 1,109,-1
 646 374 l 1,110,111
 650 381 650 381 650 390 c 2,112,-1
 650 445 l 2,113,114
 650 459 650 459 642 470 c 0,86,87
642 624 m 0,115,116
 639 614 639 614 639 605 c 0,117,118
 639 595 639 595 642 586 c 0,119,120
 670 518 670 518 707 433 c 1,121,122
 746 451 746 451 781 467.5 c 128,-1,123
 816 484 816 484 835 492.5 c 128,-1,124
 854 501 854 501 857 503 c 0,125,126
 889 526 889 526 889 553 c 0,127,128
 889 572 889 572 873 594 c 0,129,130
 864 607 864 607 850 615 c 0,131,132
 831 623 831 623 818 623 c 0,133,134
 793 623 793 623 772 605 c 1,135,136
 764 650 764 650 722 667 c 0,137,138
 704 672 704 672 695 672 c 0,139,140
 656 672 656 672 642 624 c 0,115,116
EndSplineSet
EndChar

StartChar: uniE002
Encoding: 57346 57346 5
Width: 1024
GlyphClass: 2
Flags: W
LayerCount: 2
Fore
SplineSet
7 574 m 2,0,1
 0 578 0 578 0 584 c 0,2,3
 0 588 0 588 1 589 c 2,4,-1
 150 873 l 1,5,-1
 154 878 l 1,6,-1
 165 878 l 1,7,-1
 240 832 l 2,8,9
 245 827 245 827 245 824 c 128,-1,10
 245 821 245 821 244 820 c 2,11,-1
 98 538 l 2,12,13
 95 534 95 534 90 534 c 128,-1,14
 85 534 85 534 84 535 c 2,15,-1
 7 574 l 2,0,1
110 311 m 2,16,17
 93 322 93 322 93 336 c 0,18,19
 93 348 93 348 102 358 c 2,20,-1
 104 360 l 1,21,-1
 188 476 l 2,22,23
 200 493 200 493 214 493 c 0,24,25
 224 493 224 493 234 484 c 2,26,-1
 242 480 l 2,27,28
 258 470 258 470 258 455 c 0,29,30
 258 444 258 444 250 433 c 2,31,-1
 227 403 l 1,32,-1
 167 317 l 2,33,34
 156 299 156 299 141 299 c 0,35,36
 131 299 131 299 121 306 c 1,37,-1
 117 307 l 1,38,-1
 110 311 l 2,16,17
154 477 m 1,39,-1
 111 513 l 1,40,-1
 269 814 l 1,41,42
 288 820 288 820 310 820 c 0,43,44
 329 820 329 820 342 816 c 1,45,-1
 331 796 l 1,46,-1
 307 733 l 1,47,-1
 291 688 l 1,48,-1
 266 615 l 2,49,50
 264 613 264 613 264 610 c 0,51,52
 264 601 264 601 274 597 c 1,53,-1
 279 597 l 1,54,55
 307 586 307 586 329 586 c 0,56,57
 352 586 352 586 370 593 c 0,58,59
 415 609 415 609 437 654 c 0,60,61
 445 674 445 674 447 693 c 0,62,63
 455 735 455 735 482 737 c 0,64,65
 526 737 526 737 554 706 c 2,66,-1
 770 494 l 1,67,-1
 884 395 l 2,68,69
 897 385 897 385 900 367 c 2,70,-1
 900 364 l 2,71,72
 900 350 900 350 889 336 c 0,73,74
 874 318 874 318 858 318 c 128,-1,75
 842 318 842 318 829 331 c 2,76,-1
 798 360 l 1,77,-1
 719 427 l 2,78,79
 714 433 714 433 708 433 c 0,80,81
 703 433 703 433 697 427 c 0,82,83
 693 423 693 423 693 417 c 128,-1,84
 693 411 693 411 697 407 c 2,85,-1
 778 337 l 2,86,87
 791 324 791 324 791 307 c 0,88,89
 791 293 791 293 774 276 c 0,90,91
 760 264 760 264 746 264 c 0,92,93
 733 264 733 264 720 274 c 2,94,-1
 695 297 l 1,95,-1
 639 347 l 2,96,97
 633 350 633 350 628 350 c 0,98,99
 621 350 621 350 617 343 c 0,100,101
 614 338 614 338 614 335 c 0,102,103
 614 328 614 328 618 324 c 2,104,-1
 676 276 l 2,105,106
 693 262 693 262 693 246 c 0,107,108
 693 232 693 232 681 218 c 0,109,110
 664 200 664 200 648 200 c 0,111,112
 634 200 634 200 621 212 c 2,113,-1
 563 263 l 2,114,115
 558 268 558 268 553 268 c 0,116,117
 546 268 546 268 542 261 c 0,118,119
 537 256 537 256 537 251 c 0,120,121
 537 244 537 244 544 240 c 2,122,-1
 562 225 l 1,123,-1
 575 214 l 2,124,125
 593 200 593 200 593 183 c 0,126,127
 593 170 593 170 581 155 c 0,128,129
 566 137 566 137 549 137 c 0,130,131
 536 137 536 137 522 149 c 2,132,-1
 484 179 l 1,133,134
 488 188 488 188 488 201 c 0,135,136
 488 230 488 230 461 250 c 2,137,-1
 453 256 l 2,138,139
 437 266 437 266 416 268 c 1,140,141
 420 277 420 277 420 289 c 0,142,143
 420 318 420 318 394 336 c 2,144,-1
 386 342 l 2,145,146
 369 353 369 353 349 353 c 1,147,-1
 349 360 l 2,148,149
 349 391 349 391 323 411 c 2,150,-1
 316 416 l 2,151,152
 300 426 300 426 281 428 c 1,153,154
 287 443 287 443 287 455 c 0,155,156
 287 482 287 482 260 502 c 2,157,-1
 252 507 l 2,158,159
 233 523 233 523 212 523 c 0,160,161
 185 523 185 523 164 493 c 2,162,-1
 154 477 l 1,39,-1
199 252 m 2,163,164
 183 262 183 262 183 277 c 0,165,166
 183 287 183 287 191 298 c 1,167,-1
 191 299 l 1,168,-1
 255 385 l 2,169,170
 266 399 266 399 280 399 c 0,171,172
 290 399 290 399 300 392 c 2,173,-1
 307 388 l 2,174,175
 324 377 324 377 324 362 c 0,176,177
 324 353 324 353 316 342 c 2,178,-1
 252 256 l 2,179,180
 240 240 240 240 226 240 c 0,181,182
 216 240 216 240 206 247 c 2,183,-1
 199 252 l 2,163,164
282 191 m 2,184,185
 267 203 267 203 267 216 c 0,186,187
 267 227 267 227 274 237 c 2,188,-1
 275 238 l 1,189,-1
 319 298 l 2,190,191
 331 313 331 313 345 313 c 0,192,193
 355 313 355 313 366 305 c 2,194,-1
 373 300 l 2,195,196
 389 290 389 290 389 276 c 0,197,198
 389 267 389 267 380 255 c 2,199,-1
 336 194 l 2,200,201
 326 178 326 178 311 178 c 0,202,203
 303 178 303 178 289 186 c 2,204,-1
 282 191 l 2,184,185
329 614 m 0,205,206
 316 614 316 614 298 619 c 1,207,-1
 318 680 l 1,208,-1
 335 723 l 1,209,-1
 359 781 l 1,210,211
 395 851 395 851 496 860 c 0,212,213
 530 863 530 863 565 863 c 0,214,215
 663 863 663 863 752 841 c 1,216,-1
 909 508 l 1,217,218
 895 473 895 473 859 457 c 1,219,-1
 791 513 l 1,220,-1
 575 729 l 1,221,-1
 566 736 l 1,222,-1
 553 745 l 2,223,224
 530 760 530 760 513 765 c 0,225,226
 502 769 502 769 487 769 c 0,227,228
 450 769 450 769 429 731 c 0,229,230
 419 710 419 710 416 693 c 0,231,232
 413 651 413 651 378 628 c 0,233,234
 352 614 352 614 329 614 c 0,205,206
367 130 m 2,235,236
 351 140 351 140 351 154 c 0,237,238
 351 165 351 165 359 176 c 2,239,-1
 385 213 l 2,240,241
 397 228 397 228 412 228 c 0,242,243
 422 228 422 228 432 221 c 2,244,-1
 440 216 l 2,245,246
 456 204 456 204 456 191 c 0,247,248
 456 180 456 180 447 170 c 2,249,-1
 421 133 l 2,250,251
 409 117 409 117 395 117 c 0,252,253
 387 117 387 117 373 125 c 2,254,-1
 367 130 l 2,235,236
778 848 m 1,255,-1
 776 854 l 2,256,257
 776 858 776 858 781 860 c 1,258,-1
 781 862 l 1,259,-1
 857 907 l 1,260,-1
 865 907 l 1,261,-1
 871 902 l 1,262,-1
 1023 587 l 2,263,264
 1024 586 1024 586 1024 583 c 0,265,266
 1024 578 1024 578 1018 574 c 2,267,-1
 941 531 l 2,268,269
 940 530 940 530 935 530 c 0,270,271
 933 530 933 530 928 535 c 2,272,-1
 778 848 l 1,255,-1
EndSplineSet
EndChar

StartChar: uniE003
Encoding: 57347 57347 6
Width: 1024
GlyphClass: 2
Flags: W
LayerCount: 2
Fore
SplineSet
203 337 m 2,0,1
 151 337 151 337 151 390 c 2,2,-1
 151 610 l 2,3,4
 151 632 151 632 166 647 c 128,-1,5
 181 662 181 662 201 662 c 2,6,-1
 204 662 l 2,7,8
 256 662 256 662 256 610 c 2,9,-1
 256 390 l 2,10,11
 256 368 256 368 241 352 c 0,12,13
 227 337 227 337 207 337 c 2,14,-1
 203 337 l 2,0,1
749 671 m 1,15,-1
 275 671 l 1,16,-1
 275 675 l 2,17,18
 275 732 275 732 307 782 c 0,19,20
 341 832 341 832 396 861 c 1,21,-1
 359 928 l 1,22,-1
 358 930 l 1,23,-1
 358 933 l 2,24,25
 358 938 358 938 362 939 c 2,26,-1
 366 939 l 2,27,28
 370 939 370 939 372 934 c 2,29,-1
 409 868 l 1,30,31
 459 890 459 890 512 890 c 0,32,33
 567 890 567 890 615 868 c 1,34,-1
 652 935 l 1,35,-1
 652 936 l 2,36,37
 655 940 655 940 658 940 c 128,-1,38
 661 940 661 940 662 939 c 2,39,-1
 665 937 l 2,40,41
 668 936 668 936 668 932 c 0,42,43
 668 930 668 930 665 928 c 2,44,-1
 628 860 l 1,45,46
 683 833 683 833 716 782 c 128,-1,47
 749 731 749 731 749 671 c 1,15,-1
293 271 m 0,48,49
 276 288 276 288 276 311 c 2,50,-1
 277 654 l 1,51,-1
 747 654 l 1,52,-1
 747 312 l 2,53,54
 747 289 747 289 730 272 c 0,55,56
 715 256 715 256 693 256 c 2,57,-1
 652 256 l 1,58,-1
 652 136 l 2,59,60
 652 116 652 116 637 102 c 0,61,62
 620 87 620 87 600 87 c 0,63,64
 547 87 547 87 547 139 c 2,65,-1
 547 256 l 1,66,-1
 476 256 l 1,67,-1
 476 137 l 2,68,69
 475 85 475 85 423 85 c 0,70,71
 401 85 401 85 386 101 c 0,72,73
 371 114 371 114 371 135 c 2,74,-1
 371 255 l 1,75,-1
 331 255 l 2,76,77
 309 255 309 255 293 271 c 0,48,49
404 797 m 0,78,79
 384 797 384 797 384 777 c 0,80,81
 384 756 384 756 404 756 c 0,82,83
 412 756 412 756 418 762 c 1,84,-1
 418 763 l 1,85,86
 425 770 425 770 425 777 c 128,-1,87
 425 784 425 784 418 791 c 0,88,89
 412 797 412 797 404 797 c 0,78,79
606 790 m 1,90,91
 599 783 599 783 599 776 c 128,-1,92
 599 769 599 769 606 762 c 0,93,94
 612 756 612 756 620 756 c 0,95,96
 628 758 628 758 634 762 c 0,97,98
 640 768 640 768 640 776 c 0,99,100
 640 795 640 795 620 797 c 0,101,102
 612 797 612 797 606 791 c 1,103,-1
 606 790 l 1,90,91
783 352 m 0,104,105
 768 367 768 367 768 390 c 2,106,-1
 768 610 l 2,107,108
 768 632 768 632 783 647 c 0,109,110
 800 662 800 662 820 662 c 2,111,-1
 823 662 l 2,112,113
 843 662 843 662 858 647 c 128,-1,114
 873 632 873 632 873 610 c 2,115,-1
 873 389 l 2,116,117
 872 337 872 337 822 337 c 2,118,-1
 817 337 l 2,119,120
 796 337 796 337 783 352 c 0,104,105
EndSplineSet
EndChar

StartChar: uniE004
Encoding: 57348 57348 7
Width: 1024
GlyphClass: 2
Flags: W
LayerCount: 2
Fore
SplineSet
98 353 m 0,0,1
 84 358 84 358 84 369 c 0,2,3
 84 374 84 374 85 376 c 2,4,-1
 131 547 l 2,5,6
 133 554 133 554 139 558 c 2,7,-1
 283 662 l 2,8,9
 287 666 287 666 294 666 c 0,10,11
 298 666 298 666 299 665 c 2,12,-1
 300 665 l 1,13,14
 314 660 314 660 314 648 c 0,15,16
 314 643 314 643 313 641 c 2,17,-1
 303 589 l 1,18,-1
 276 461 l 2,19,20
 275 454 275 454 268 449 c 2,21,-1
 171 389 l 1,22,-1
 113 355 l 2,23,24
 108 352 108 352 104 352 c 0,25,26
 99 352 99 352 98 353 c 0,0,1
98 294 m 2,27,28
 94 298 94 298 94 306 c 0,29,30
 94 315 94 315 105 321 c 2,31,-1
 174 364 l 1,32,-1
 274 425 l 2,33,34
 280 428 280 428 285 428 c 128,-1,35
 290 428 290 428 295 425 c 2,36,-1
 512 277 l 1,37,-1
 519 270 l 1,38,39
 521 262 521 262 521 261 c 0,40,41
 521 249 521 249 509 245 c 2,42,-1
 329 163 l 2,43,44
 321 161 321 161 320 161 c 128,-1,45
 319 161 319 161 311 163 c 2,46,-1
 105 288 l 1,47,-1
 98 294 l 2,27,28
128 297 m 2,48,-1
 128 294 l 2,49,50
 128 277 128 277 163 271 c 0,51,52
 167 270 167 270 179 270 c 0,53,54
 204 270 204 270 206 285 c 2,55,-1
 206 288 l 2,56,57
 206 305 206 305 171 311 c 0,58,59
 167 312 167 312 155 312 c 0,60,61
 130 312 130 312 128 297 c 2,48,-1
143 545 m 0,62,63
 132 528 132 528 132 519 c 0,64,65
 132 512 132 512 137 509 c 0,66,67
 138 508 138 508 142 508 c 0,68,69
 153 508 153 508 168 529 c 0,70,71
 179 546 179 546 179 555 c 0,72,73
 179 561 179 561 174 564 c 2,74,-1
 168 566 l 2,75,76
 156 566 156 566 143 545 c 0,62,63
184 520 m 0,77,78
 172 502 172 502 172 491 c 0,79,80
 172 486 172 486 177 481 c 0,81,82
 183 479 183 479 184 479 c 0,83,84
 194 479 194 479 211 502 c 0,85,86
 223 520 223 520 223 530 c 0,87,88
 223 536 223 536 218 541 c 0,89,90
 212 543 212 543 211 543 c 0,91,92
 199 543 199 543 184 520 c 0,77,78
229 488 m 0,93,94
 216 469 216 469 216 458 c 0,95,96
 216 451 216 451 221 448 c 0,97,98
 227 446 227 446 228 446 c 0,99,100
 239 446 239 446 256 469 c 0,101,102
 269 488 269 488 269 499 c 0,103,104
 269 505 269 505 264 510 c 0,105,106
 258 512 258 512 257 512 c 0,107,108
 246 512 246 512 229 488 c 0,93,94
256 368 m 2,109,-1
 256 365 l 2,110,111
 256 348 256 348 293 341 c 0,112,113
 297 341 297 341 301 340.5 c 128,-1,114
 305 340 305 340 307 339.5 c 128,-1,115
 309 339 309 339 310 339 c 0,116,117
 334 339 334 339 335 355 c 2,118,-1
 335 359 l 2,119,120
 335 378 335 378 299 382 c 0,121,122
 296 383 296 383 287 383 c 0,123,124
 276 383 276 383 269 380 c 0,125,126
 256 376 256 376 256 368 c 2,109,-1
263 282 m 1,127,-1
 263 280 l 2,128,129
 263 272 263 272 272 265 c 0,130,131
 284 256 284 256 299 256 c 0,132,133
 340 256 340 256 343 271 c 2,134,-1
 343 274 l 2,135,136
 343 291 343 291 307 297 c 0,137,138
 304 298 304 298 292 298 c 0,139,140
 265 298 265 298 265 282 c 1,141,-1
 263 282 l 1,127,-1
276 209 m 2,142,-1
 276 205 l 2,143,144
 276 190 276 190 307 186 c 0,145,146
 311 185 311 185 323 185 c 0,147,148
 344 185 344 185 345 198 c 2,149,-1
 345 200 l 2,150,151
 345 217 345 217 313 222 c 0,152,153
 310 223 310 223 300 223 c 0,154,155
 278 223 278 223 276 209 c 2,142,-1
308 444 m 2,156,157
 300 450 300 450 300 460 c 2,158,-1
 300 464 l 1,159,-1
 323 577 l 1,160,-1
 341 666 l 1,161,-1
 345 674 l 2,162,163
 353 682 353 682 359 682 c 0,164,165
 364 682 364 682 372 677 c 2,166,-1
 452 614 l 1,167,-1
 466 602 l 1,168,-1
 486 587 l 1,169,-1
 557 531 l 2,170,171
 564 525 564 525 564 515 c 2,172,-1
 561 444 l 1,173,-1
 555 311 l 1,174,-1
 551 301 l 2,175,176
 545 292 545 292 537 292 c 0,177,178
 532 292 532 292 524 297 c 2,179,-1
 308 444 l 2,156,157
349 495 m 0,180,181
 343 490 343 490 343 483 c 0,182,183
 343 472 343 472 354 455 c 0,184,185
 367 434 367 434 380 434 c 0,186,187
 386 434 386 434 390 438 c 0,188,189
 396 442 396 442 396 451 c 0,190,191
 396 461 396 461 385 478 c 0,192,193
 372 499 372 499 359 499 c 0,194,195
 353 499 353 499 349 495 c 0,180,181
368 647 m 0,196,197
 362 642 362 642 362 634 c 0,198,199
 362 624 362 624 373 607 c 0,200,201
 386 586 386 586 400 586 c 0,202,203
 406 586 406 586 410 590 c 0,204,205
 416 594 416 594 416 603 c 0,206,207
 416 613 416 613 405 630 c 0,208,209
 392 651 392 651 378 651 c 0,210,211
 372 651 372 651 368 647 c 0,196,197
407 271 m 2,212,-1
 407 268 l 2,213,214
 407 252 407 252 442 246 c 1,215,-1
 442 245 l 2,216,217
 445 244 445 244 457 244 c 0,218,219
 484 244 484 244 485 259 c 2,220,-1
 485 262 l 2,221,222
 485 279 485 279 449 285 c 0,223,224
 445 286 445 286 433 286 c 0,225,226
 408 286 408 286 407 271 c 2,212,-1
421 441 m 0,227,228
 414 437 414 437 414 428 c 0,229,230
 414 418 414 418 425 401 c 0,231,232
 438 380 438 380 452 380 c 0,233,234
 458 380 458 380 462 384 c 1,235,-1
 462 381 l 1,236,237
 468 387 468 387 468 396 c 0,238,239
 468 407 468 407 457 424 c 0,240,241
 444 445 444 445 431 445 c 0,242,243
 425 445 425 445 421 441 c 0,227,228
436 594 m 1,244,245
 430 590 430 590 430 581 c 0,246,247
 430 570 430 570 439 557 c 1,248,-1
 439 554 l 1,249,250
 452 533 452 533 466 533 c 0,251,252
 472 533 472 533 476 537 c 0,253,254
 483 541 483 541 483 550 c 0,255,256
 483 560 483 560 471 577 c 0,257,258
 463 588 463 588 451 592 c 1,259,-1
 436 592 l 1,260,-1
 436 594 l 1,244,245
477 617 m 1,261,-1
 460 631 l 1,262,-1
 534 768 l 1,263,-1
 671 876 l 1,264,-1
 673 876 l 2,265,266
 676 874 676 874 676 873 c 0,267,268
 676 871 676 871 675 870 c 2,269,-1
 651 817 l 1,270,-1
 593 689 l 1,271,-1
 480 614 l 1,272,-1
 477 617 l 1,261,-1
489 391 m 0,273,274
 483 386 483 386 483 379 c 0,275,276
 483 367 483 367 495 351 c 0,277,278
 508 330 508 330 521 330 c 0,279,280
 527 330 527 330 531 334 c 0,281,282
 537 338 537 338 537 347 c 0,283,284
 537 357 537 357 526 374 c 0,285,286
 512 395 512 395 499 395 c 0,287,288
 493 395 493 395 489 391 c 0,273,274
497 661 m 0,289,290
 484 645 484 645 484 636 c 0,291,292
 484 633 484 633 486 631 c 0,293,294
 487 630 487 630 489 630 c 0,295,296
 497 630 497 630 512 649 c 0,297,298
 519 659 519 659 522 668 c 0,299,300
 522 670 522 670 523 673 c 0,301,302
 524 674 524 674 524 675 c 0,303,304
 524 677 524 677 522 679 c 0,305,306
 521 680 521 680 519 680 c 0,307,308
 510 680 510 680 497 661 c 0,289,290
502 539 m 0,309,310
 496 534 496 534 496 527 c 0,311,312
 496 517 496 517 507 500 c 0,313,314
 520 479 520 479 533 479 c 0,315,316
 540 479 540 479 544 483 c 0,317,318
 550 488 550 488 550 494 c 0,319,320
 550 506 550 506 538 522 c 0,321,322
 524 543 524 543 512 543 c 0,323,324
 506 543 506 543 502 539 c 0,309,310
568 544 m 2,325,-1
 501 597 l 1,326,-1
 569 643 l 1,327,-1
 593 659 l 2,328,329
 597 663 597 663 604 663 c 0,330,331
 612 663 612 663 616 659 c 2,332,-1
 835 488 l 1,333,-1
 858 473 l 1,334,-1
 668 380 l 2,335,336
 664 377 664 377 658 377 c 0,337,338
 654 377 654 377 649 380 c 2,339,-1
 579 431 l 1,340,-1
 579 442 l 1,341,-1
 582 514 l 1,342,-1
 582 516 l 2,343,344
 582 533 582 533 568 544 c 2,325,-1
528 720 m 0,345,346
 516 705 516 705 516 697 c 0,347,348
 516 694 516 694 518 692 c 0,349,350
 519 691 519 691 521 691 c 0,351,352
 529 691 529 691 542 710 c 0,353,354
 554 725 554 725 554 732 c 0,355,356
 554 735 554 735 552 737 c 0,357,358
 551 738 551 738 549 738 c 0,359,360
 542 738 542 738 528 720 c 0,345,346
559 780 m 0,361,362
 547 766 547 766 547 759 c 0,363,364
 547 756 547 756 550 754 c 0,365,366
 551 753 551 753 552 753 c 0,367,368
 558 753 558 753 572 770 c 0,369,370
 583 784 583 784 583 791 c 0,371,372
 583 793 583 793 581 795 c 0,373,374
 580 796 580 796 578 796 c 0,375,376
 571 796 571 796 559 780 c 0,361,362
565 705 m 0,377,378
 551 685 551 685 551 678 c 0,379,380
 551 674 551 674 554 672 c 0,381,382
 555 671 555 671 557 671 c 0,383,384
 566 671 566 671 582 692 c 0,385,386
 596 712 596 712 596 719 c 0,387,388
 596 723 596 723 594 725 c 0,389,390
 593 726 593 726 590 726 c 0,391,392
 582 726 582 726 565 705 c 0,377,378
583 609 m 0,393,394
 581 601 581 601 581 599 c 0,395,396
 581 584 581 584 606 572 c 0,397,398
 619 565 619 565 630 565 c 0,399,400
 643 565 643 565 649 578 c 0,401,402
 651 586 651 586 651 588 c 0,403,404
 651 603 651 603 626 615 c 0,405,406
 613 622 613 622 602 622 c 0,407,408
 589 622 589 622 583 609 c 0,393,394
600 773 m 0,409,410
 587 757 587 757 587 748 c 0,411,412
 587 744 587 744 589 742 c 0,413,414
 590 741 590 741 593 741 c 0,415,416
 601 741 601 741 616 761 c 0,417,418
 630 778 630 778 630 786 c 0,419,420
 630 790 630 790 627 792 c 0,421,422
 626 793 626 793 623 793 c 0,423,424
 615 793 615 793 600 773 c 0,409,410
626 830 m 0,425,426
 616 817 616 817 616 808 c 0,427,428
 616 806 616 806 618 804 c 0,429,430
 619 803 619 803 621 803 c 0,431,432
 628 803 628 803 640 820 c 0,433,434
 650 833 650 833 650 842 c 0,435,436
 650 845 650 845 648 847 c 0,437,438
 647 848 647 848 646 848 c 0,439,440
 640 848 640 848 626 830 c 0,425,426
623 432 m 0,441,442
 621 424 621 424 621 423 c 0,443,444
 621 410 621 410 644 399 c 0,445,446
 657 393 657 393 666 393 c 0,447,448
 678 393 678 393 683 404 c 0,449,450
 684 406 684 406 684 412 c 0,451,452
 684 426 684 426 661 437 c 0,453,454
 648 443 648 443 639 443 c 0,455,456
 628 443 628 443 623 432 c 0,441,442
631 676 m 2,457,458
 624 682 624 682 624 690 c 0,459,460
 624 691 624 691 626 699 c 2,461,-1
 691 842 l 1,462,-1
 710 885 l 1,463,-1
 713 889 l 2,464,465
 721 897 721 897 727 897 c 0,466,467
 731 897 731 897 739 892 c 2,468,-1
 931 734 l 2,469,470
 940 728 940 728 940 718 c 0,471,472
 940 714 940 714 939 713 c 2,473,-1
 880 515 l 1,474,-1
 877 509 l 1,475,-1
 877 508 l 1,476,477
 869 500 869 500 863 500 c 0,478,479
 858 500 858 500 850 505 c 2,480,-1
 631 676 l 2,457,458
678 724 m 0,481,482
 667 713 667 713 667 701 c 0,483,484
 667 692 667 692 678 678 c 0,485,486
 688 660 688 660 705 660 c 0,487,488
 714 660 714 660 721 664 c 0,489,490
 732 678 732 678 732 687 c 0,491,492
 732 699 732 699 721 710 c 0,493,494
 710 728 710 728 695 728 c 0,495,496
 685 728 685 728 678 724 c 0,481,482
741 495 m 0,497,498
 739 487 739 487 739 485 c 0,499,500
 739 470 739 470 764 458 c 0,501,502
 777 451 777 451 788 451 c 0,503,504
 801 451 801 451 807 464 c 0,505,506
 809 472 809 472 809 473 c 0,507,508
 809 487 809 487 783 501 c 0,509,510
 770 508 770 508 760 508 c 0,511,512
 747 508 747 508 741 495 c 0,497,498
872 742 m 0,513,514
 862 732 862 732 862 720 c 0,515,516
 862 709 862 709 872 699 c 1,517,518
 881 682 881 682 896 682 c 0,519,520
 905 682 905 682 912 686 c 0,521,522
 922 696 922 696 922 707 c 128,-1,523
 922 718 922 718 912 728 c 0,524,525
 901 745 901 745 887 745 c 0,526,527
 880 745 880 745 872 742 c 0,513,514
EndSplineSet
EndChar

StartChar: uniE005
Encoding: 57349 57349 8
Width: 1024
GlyphClass: 2
Flags: W
LayerCount: 2
Fore
SplineSet
309 319 m 1,0,-1
 85 413 l 1,1,-1
 180 637 l 1,2,-1
 268 599 l 1,3,4
 226 541 226 541 219 531 c 0,5,6
 203 506 203 506 203 476 c 0,7,8
 203 449 203 449 219 421 c 0,9,10
 250 361 250 361 319 361 c 2,11,-1
 327 361 l 1,12,-1
 309 319 l 1,0,-1
278 397 m 0,13,14
 227 426 227 426 227 468 c 0,15,16
 227 491 227 491 242 518 c 0,17,18
 263 549 263 549 377 700 c 1,19,20
 432 660 432 660 469 628 c 1,21,22
 402 616 402 616 379 550 c 0,23,24
 371 523 371 523 371 506 c 0,25,26
 371 450 371 450 428 414 c 1,27,-1
 434 364 l 1,28,-1
 409 360 l 1,29,-1
 399 433 l 1,30,31
 371 393 371 393 321 387 c 1,32,-1
 317 387 l 2,33,34
 294 387 294 387 278 397 c 0,13,14
458 427 m 1,35,36
 404 451 404 451 404 501 c 0,37,38
 404 518 404 518 408 531 c 0,39,40
 426 601 426 601 485 601 c 0,41,42
 503 601 503 601 518 597 c 1,43,-1
 521 597 l 1,44,45
 518 610 518 610 518 622 c 0,46,47
 518 676 518 676 576 700 c 0,48,49
 597 710 597 710 620 710 c 0,50,51
 670 710 670 710 695 650 c 1,52,53
 674 642 674 642 656 629 c 0,54,55
 623 602 623 602 616 559 c 0,56,57
 613 539 613 539 610 482 c 2,58,-1
 607 432 l 1,59,-1
 604 384 l 1,60,61
 577 401 577 401 566 431 c 1,62,-1
 543 360 l 1,63,-1
 519 368 l 1,64,-1
 542 439 l 1,65,66
 516 422 516 422 492 422 c 0,67,68
 481 422 481 422 461 427 c 1,69,-1
 458 427 l 1,35,36
838 316 m 2,70,71
 798 316 798 316 625 324 c 1,72,73
 634 508 634 508 640 555 c 0,74,75
 654 630 654 630 727 630 c 2,76,-1
 731 630 l 2,77,78
 767 630 767 630 793 604 c 0,79,80
 822 569 822 569 822 530 c 0,81,82
 822 517 822 517 817 497 c 1,83,84
 828 500 828 500 838 500 c 0,85,86
 887 499 887 499 921 460 c 0,87,88
 937 440 937 440 938 413 c 0,89,90
 939 410 939 410 939 400 c 0,91,92
 939 322 939 322 855 316 c 1,93,-1
 838 316 l 2,70,71
EndSplineSet
EndChar

StartChar: uniE006
Encoding: 57350 57350 9
Width: 1024
GlyphClass: 2
Flags: W
LayerCount: 2
Fore
SplineSet
867 499 m 1,0,-1
 158 499 l 1,1,-1
 158 595 l 1,2,3
 167 648 167 648 218 648 c 2,4,-1
 384 648 l 1,5,6
 343 657 343 657 307 678 c 0,7,8
 266 699 266 699 241 735 c 0,9,10
 215 767 215 767 215 799 c 0,11,12
 215 824 215 824 233 853 c 0,13,14
 275 929 275 929 361 937 c 0,15,16
 366 938 366 938 380 938 c 0,17,18
 395 938 395 938 399 937 c 0,19,20
 434 930 434 930 453 901 c 0,21,22
 492 846 492 846 504 779 c 2,23,-1
 516 727 l 1,24,-1
 518 739 l 1,25,-1
 521 752 l 1,26,27
 533 825 533 825 567 885 c 0,28,29
 583 912 583 912 610 928 c 0,30,31
 629 938 629 938 650 938 c 0,32,33
 662 938 662 938 673 935 c 0,34,35
 746 928 746 928 789 865 c 0,36,37
 812 833 812 833 812 799 c 0,38,39
 812 798 812 798 810 776 c 1,40,41
 798 738 798 738 768 713 c 0,42,43
 715 662 715 662 643 650 c 1,44,-1
 803 650 l 2,45,46
 834 650 834 650 854 624 c 0,47,48
 866 609 866 609 867 590 c 2,49,-1
 867 499 l 1,0,-1
213 109 m 0,50,51
 198 129 198 129 198 152 c 2,52,-1
 198 466 l 1,53,-1
 830 466 l 1,54,-1
 830 148 l 2,55,56
 830 98 830 98 779 87 c 1,57,-1
 249 85 l 1,58,59
 228 92 228 92 213 109 c 0,50,51
409 782 m 0,60,61
 372 835 372 835 316 861 c 1,62,63
 340 736 340 736 455 682 c 1,64,65
 441 733 441 733 409 782 c 0,60,61
716 861 m 1,66,67
 600 808 600 808 574 683 c 1,68,69
 688 737 688 737 716 861 c 1,66,67
EndSplineSet
EndChar

StartChar: uniE007
Encoding: 57351 57351 10
Width: 1024
GlyphClass: 2
Flags: W
LayerCount: 2
Fore
SplineSet
213 85 m 2,0,1
 128 85 128 85 128 171 c 2,2,-1
 128 768 l 2,3,4
 128 853 128 853 213 853 c 2,5,-1
 256 853 l 1,6,-1
 256 939 l 1,7,-1
 341 939 l 1,8,-1
 341 853 l 1,9,-1
 683 853 l 1,10,-1
 683 939 l 1,11,-1
 768 939 l 1,12,-1
 768 853 l 1,13,-1
 811 853 l 2,14,15
 896 853 896 853 896 768 c 2,16,-1
 896 171 l 2,17,18
 896 85 896 85 811 85 c 2,19,-1
 213 85 l 2,0,1
213 644 m 1,20,-1
 213 175 l 1,21,-1
 811 175 l 1,22,-1
 811 644 l 1,23,-1
 213 644 l 1,20,-1
384 299 m 1,24,-1
 299 299 l 1,25,-1
 299 384 l 1,26,-1
 384 384 l 1,27,-1
 384 299 l 1,24,-1
384 469 m 1,28,-1
 299 469 l 1,29,-1
 299 555 l 1,30,-1
 384 555 l 1,31,-1
 384 469 l 1,28,-1
555 299 m 1,32,-1
 469 299 l 1,33,-1
 469 384 l 1,34,-1
 555 384 l 1,35,-1
 555 299 l 1,32,-1
555 469 m 1,36,-1
 469 469 l 1,37,-1
 469 555 l 1,38,-1
 555 555 l 1,39,-1
 555 469 l 1,36,-1
725 299 m 1,40,-1
 640 299 l 1,41,-1
 640 384 l 1,42,-1
 725 384 l 1,43,-1
 725 299 l 1,40,-1
725 469 m 1,44,-1
 640 469 l 1,45,-1
 640 555 l 1,46,-1
 725 555 l 1,47,-1
 725 469 l 1,44,-1
EndSplineSet
EndChar

StartChar: uniE008
Encoding: 57352 57352 11
Width: 1024
GlyphClass: 2
Flags: W
LayerCount: 2
Fore
SplineSet
99 170 m 2,0,1
 85 170 85 170 85 183 c 2,2,-1
 85 516 l 2,3,4
 85 529 85 529 99 529 c 2,5,-1
 747 529 l 2,6,7
 760 529 760 529 760 516 c 2,8,-1
 760 424 l 1,9,-1
 794 424 l 2,10,11
 806 424 806 424 808 410 c 2,12,-1
 808 368 l 1,13,-1
 836 368 l 1,14,-1
 836 582 l 2,15,16
 836 595 836 595 849 595 c 2,17,-1
 874 595 l 1,18,19
 883 615 883 615 905 615 c 2,20,-1
 907 615 l 2,21,22
 940 615 940 615 940 582 c 0,23,24
 940 548 940 548 906 548 c 0,25,26
 884 548 884 548 876 568 c 1,27,-1
 864 568 l 1,28,-1
 864 355 l 2,29,30
 864 341 864 341 850 341 c 2,31,-1
 808 341 l 1,32,-1
 808 300 l 2,33,34
 807 287 807 287 794 286 c 2,35,-1
 760 286 l 1,36,-1
 760 183 l 2,37,38
 760 170 760 170 748 170 c 2,39,-1
 99 170 l 2,0,1
124 697 m 1,40,-1
 122 702 l 1,41,-1
 122 704 l 2,42,43
 122 708 122 708 128 710 c 2,44,-1
 168 716 l 1,45,-1
 186 751 l 1,46,-1
 189 755 l 1,47,-1
 190 755 l 2,48,49
 191 756 191 756 194 756 c 128,-1,50
 197 756 197 756 199 751 c 2,51,-1
 217 716 l 1,52,-1
 256 710 l 1,53,-1
 259 704 l 2,54,55
 260 703 260 703 260 700 c 128,-1,56
 260 697 260 697 259 696 c 2,57,-1
 230 669 l 1,58,-1
 236 629 l 1,59,-1
 236 624 l 2,60,61
 233 620 233 620 230 620 c 128,-1,62
 227 620 227 620 226 621 c 2,63,-1
 191 640 l 1,64,-1
 154 621 l 1,65,-1
 149 621 l 2,66,67
 144 623 144 623 144 627 c 2,68,-1
 144 629 l 1,69,-1
 151 669 l 1,70,-1
 124 697 l 1,40,-1
154 444 m 2,71,-1
 154 256 l 2,72,73
 154 230 154 230 180 230 c 2,74,-1
 288 230 l 2,75,76
 312 230 312 230 314 256 c 2,77,-1
 314 444 l 2,78,79
 314 469 314 469 290 469 c 2,80,-1
 179 469 l 2,81,82
 154 468 154 468 154 444 c 2,71,-1
287 256 m 1,83,-1
 181 256 l 1,84,-1
 181 439 l 1,85,-1
 287 439 l 1,86,-1
 287 256 l 1,83,-1
234 398 m 1,87,88
 221 370 221 370 200 347 c 1,89,90
 223 327 223 327 234 299 c 1,91,92
 246 328 246 328 268 347 c 1,93,94
 246 369 246 369 234 398 c 1,87,88
321 751 m 1,95,-1
 317 759 l 1,96,-1
 317 762 l 2,97,98
 317 772 317 772 329 774 c 2,99,-1
 397 784 l 1,100,-1
 428 847 l 2,101,102
 430 852 430 852 434 853 c 0,103,104
 435 854 435 854 439 854 c 0,105,106
 447 854 447 854 450 844 c 2,107,-1
 480 783 l 1,108,-1
 548 773 l 2,109,110
 556 771 556 771 559 764 c 0,111,112
 560 763 560 763 560 760 c 0,113,114
 560 755 560 755 555 750 c 2,115,-1
 506 702 l 1,116,-1
 518 635 l 1,117,-1
 518 626 l 1,118,119
 513 618 513 618 507 618 c 0,120,121
 506 618 506 618 505 619 c 0,122,123
 502 620 502 620 500 620 c 2,124,-1
 439 652 l 1,125,-1
 379 620 l 1,126,-1
 370 620 l 2,127,128
 359 623 359 623 359 633 c 2,129,-1
 359 636 l 1,130,-1
 371 703 l 1,131,-1
 321 751 l 1,95,-1
341 444 m 2,132,-1
 341 256 l 2,133,134
 342 232 342 232 366 230 c 2,135,-1
 473 230 l 2,136,137
 499 230 499 230 499 256 c 2,138,-1
 499 445 l 2,139,140
 498 469 498 469 475 469 c 2,141,-1
 366 469 l 2,142,143
 341 468 341 468 341 444 c 2,132,-1
472 256 m 1,144,-1
 367 256 l 1,145,-1
 367 439 l 1,146,-1
 472 439 l 1,147,-1
 472 256 l 1,144,-1
418 399 m 1,148,149
 405 371 405 371 384 349 c 1,150,151
 408 328 408 328 420 299 c 1,152,153
 432 328 432 328 454 347 c 1,154,155
 432 369 432 369 420 398 c 1,156,-1
 418 399 l 1,148,149
526 442 m 2,157,-1
 526 256 l 2,158,159
 526 230 526 230 552 230 c 2,160,-1
 659 230 l 2,161,162
 685 230 685 230 685 256 c 2,163,-1
 685 442 l 2,164,165
 685 468 685 468 659 468 c 2,166,-1
 552 468 l 2,167,168
 526 468 526 468 526 442 c 2,157,-1
660 256 m 1,169,-1
 555 256 l 1,170,-1
 555 439 l 1,171,-1
 660 439 l 1,172,-1
 660 256 l 1,169,-1
605 398 m 1,173,174
 592 370 592 370 571 347 c 1,175,176
 594 327 594 327 605 299 c 1,177,178
 618 327 618 327 640 349 c 1,179,180
 619 370 619 370 608 398 c 1,181,-1
 605 398 l 1,173,174
621 696 m 1,182,-1
 619 701 l 1,183,-1
 619 703 l 2,184,185
 619 709 619 709 626 710 c 2,186,-1
 665 715 l 1,187,-1
 682 751 l 1,188,-1
 686 755 l 2,189,190
 687 756 687 756 690 756 c 0,191,192
 694 756 694 756 696 751 c 2,193,-1
 713 715 l 1,194,-1
 753 710 l 2,195,196
 758 708 758 708 759 704 c 0,197,198
 760 703 760 703 760 701 c 0,199,200
 760 698 760 698 757 696 c 2,201,-1
 729 668 l 1,202,-1
 736 629 l 1,203,-1
 736 624 l 2,204,205
 733 620 733 620 729 620 c 0,206,207
 726 620 726 620 725 621 c 2,208,-1
 690 640 l 1,209,-1
 654 620 l 1,210,-1
 649 620 l 2,211,212
 643 622 643 622 643 627 c 2,213,-1
 643 629 l 1,214,-1
 650 669 l 1,215,-1
 621 696 l 1,182,-1
760 396 m 1,216,-1
 760 312 l 1,217,-1
 780 312 l 1,218,-1
 780 396 l 1,219,-1
 760 396 l 1,216,-1
EndSplineSet
EndChar

StartChar: uniE009
Encoding: 57353 57353 12
Width: 1024
GlyphClass: 2
Flags: W
LayerCount: 2
Fore
SplineSet
322 321 m 0,0,1
 87 556 87 556 85 890 c 2,2,-1
 85 892 l 2,3,4
 85 938 85 938 131 939 c 2,5,-1
 299 939 l 2,6,7
 346 939 346 939 346 891 c 0,8,9
 346 806 346 806 375 721 c 0,10,11
 375 718 375 718 375.5 715 c 128,-1,12
 376 712 376 712 376.5 710.5 c 128,-1,13
 377 709 377 709 377 708 c 0,14,15
 377 688 377 688 360 673 c 2,16,-1
 256 569 l 1,17,18
 362 365 362 365 569 256 c 1,19,-1
 673 360 l 2,20,21
 686 376 686 376 701 376 c 0,22,23
 710 376 710 376 721 370 c 0,24,25
 803 341 803 341 885 341 c 2,26,-1
 891 341 l 2,27,28
 893 342 893 342 900 342 c 0,29,30
 933 342 933 342 938 304 c 1,31,-1
 939 132 l 2,32,33
 937 85 937 85 891 85 c 0,34,35
 558 85 558 85 322 321 c 0,0,1
EndSplineSet
EndChar

StartChar: uniE00A
Encoding: 57354 57354 13
Width: 1024
GlyphClass: 2
Flags: W
LayerCount: 2
Fore
SplineSet
146 116 m 2,0,1
 128 116 128 116 128 134 c 2,2,-1
 128 282 l 2,3,4
 129 298 129 298 144 299 c 0,5,6
 589 340 589 340 863 690 c 0,7,8
 869 699 869 699 877 699 c 0,9,10
 881 699 881 699 889 694 c 0,11,12
 896 690 896 690 896 680 c 2,13,-1
 896 134 l 2,14,15
 896 116 896 116 878 116 c 2,16,-1
 146 116 l 2,0,1
153 363 m 2,17,18
 135 363 135 363 132 380 c 2,19,-1
 132 385 l 2,20,21
 132 402 132 402 150 405 c 0,22,23
 535 472 535 472 758 793 c 1,24,25
 732 816 732 816 732 864 c 0,26,27
 732 955 732 955 822 955 c 128,-1,28
 912 955 912 955 912 864 c 0,29,30
 912 774 912 774 822 774 c 0,31,32
 815 774 815 774 797 776 c 1,33,34
 564 433 564 433 157 363 c 1,35,-1
 153 363 l 2,17,18
822 923 m 128,-1,37
 764 923 764 923 764 864 c 0,38,39
 764 806 764 806 822 806 c 128,-1,40
 880 806 880 806 880 864 c 0,41,36
 880 923 880 923 822 923 c 128,-1,37
EndSplineSet
EndChar

StartChar: uniE00B
Encoding: 57355 57355 14
Width: 1024
GlyphClass: 2
Flags: W
LayerCount: 2
Fore
SplineSet
408 529 m 0,0,1
 462 475 462 475 462 400 c 2,2,-1
 462 399 l 2,3,4
 462 325 462 325 407 268 c 0,5,6
 353 214 353 214 275 214 c 2,7,-1
 267 214 l 2,8,9
 196 214 196 214 143 262 c 0,10,11
 86 315 86 315 85 391 c 2,12,-1
 85 399 l 2,13,14
 85 473 85 473 134 523 c 0,15,16
 186 579 186 579 262 581 c 2,17,-1
 279 581 l 2,18,19
 355 581 355 581 408 529 c 0,0,1
305 367 m 1,20,-1
 405 367 l 1,21,-1
 405 422 l 1,22,-1
 403 423 l 1,23,-1
 303 423 l 1,24,-1
 303 523 l 1,25,-1
 254 523 l 1,26,-1
 254 422 l 1,27,-1
 149 422 l 1,28,-1
 149 367 l 1,29,-1
 251 367 l 1,30,-1
 251 266 l 1,31,-1
 305 266 l 1,32,-1
 305 367 l 1,20,-1
470 741 m 1,33,-1
 468 740 l 1,34,35
 615 740 615 740 666 678 c 1,36,-1
 666 619 l 1,37,38
 623 558 623 558 472 558 c 2,39,-1
 439 558 l 1,40,41
 370 618 370 618 279 619 c 1,42,-1
 279 679 l 1,43,44
 323 741 323 741 470 741 c 1,33,-1
460 257 m 1,45,46
 478 286 478 286 491 317 c 1,47,48
 627 324 627 324 662 378 c 1,49,-1
 662 320 l 1,50,51
 618 257 618 257 468 257 c 2,52,-1
 460 257 l 1,45,46
492 456 m 1,53,-1
 472 514 l 1,54,55
 619 522 619 522 662 576 c 1,56,-1
 662 519 l 1,57,58
 593 456 593 456 503 456 c 2,59,-1
 492 456 l 1,53,-1
658 483 m 1,60,-1
 658 426 l 1,61,62
 632 378 632 378 498 363 c 1,63,64
 503 376 503 376 503 389 c 0,65,66
 503 396 503 396 502 398 c 2,67,-1
 502 418 l 1,68,69
 632 433 632 433 658 483 c 1,60,-1
935 689 m 1,70,71
 893 627 893 627 741 627 c 2,72,-1
 691 627 l 1,73,-1
 691 685 l 1,74,-1
 684 692 l 1,75,76
 635 747 635 747 563 759 c 1,77,78
 634 810 634 810 721 810 c 0,79,80
 740 810 740 810 745 809 c 1,81,-1
 743 809 l 1,82,83
 901 809 901 809 935 748 c 1,84,-1
 935 689 l 1,70,71
736 487 m 2,85,-1
 743 487 l 2,86,87
 894 487 894 487 938 550 c 1,88,-1
 938 491 l 1,89,90
 895 430 895 430 745 430 c 2,91,-1
 736 430 l 2,92,93
 711 430 711 430 695 434 c 1,94,-1
 695 491 l 1,95,96
 719 487 719 487 736 487 c 2,85,-1
736 584 m 2,97,-1
 743 584 l 2,98,99
 894 584 894 584 938 647 c 1,100,-1
 938 588 l 1,101,102
 894 526 894 526 745 526 c 2,103,-1
 736 526 l 2,104,105
 711 526 711 526 695 530 c 1,106,-1
 695 588 l 1,107,108
 719 584 719 584 736 584 c 2,97,-1
EndSplineSet
EndChar

StartChar: uniE00C
Encoding: 57356 57356 15
Width: 1024
GlyphClass: 2
Flags: W
LayerCount: 2
Fore
SplineSet
134 528 m 2,0,1
 85 528 85 528 85 576 c 2,2,-1
 85 768 l 2,3,4
 86 816 86 816 134 816 c 2,5,-1
 614 816 l 2,6,7
 662 816 662 816 662 768 c 2,8,-1
 662 575 l 2,9,10
 662 528 662 528 616 528 c 2,11,-1
 134 528 l 2,0,1
123 596 m 2,12,-1
 123 594 l 2,13,14
 124 570 124 570 148 570 c 2,15,-1
 152 570 l 2,16,17
 178 570 178 570 178 596 c 128,-1,18
 178 622 178 622 153 622 c 2,19,-1
 148 622 l 2,20,21
 123 621 123 621 123 596 c 2,12,-1
125 742 m 2,22,-1
 125 738 l 2,23,24
 126 713 126 713 150 713 c 2,25,-1
 155 713 l 2,26,27
 180 714 180 714 180 739 c 2,28,-1
 180 741 l 2,29,30
 179 766 179 766 154 766 c 2,31,-1
 150 766 l 2,32,33
 125 765 125 765 125 742 c 2,22,-1
202 672 m 2,34,-1
 202 670 l 1,35,-1
 204 670 l 1,36,37
 206 644 206 644 230 644 c 2,38,-1
 238 644 l 1,39,40
 262 648 262 648 262 669 c 0,41,42
 262 675 262 675 261 677 c 0,43,44
 256 701 256 701 236 701 c 0,45,46
 230 701 230 701 229 700 c 0,47,48
 202 698 202 698 202 672 c 2,34,-1
272 597 m 2,49,-1
 272 593 l 2,50,51
 273 568 273 568 297 568 c 2,52,-1
 301 568 l 2,53,54
 328 570 328 570 328 595 c 2,55,-1
 328 597 l 1,56,-1
 326 599 l 1,57,58
 326 625 326 625 301 625 c 2,59,-1
 299 625 l 2,60,61
 272 624 272 624 272 597 c 2,49,-1
272 740 m 2,62,-1
 272 736 l 2,63,64
 274 710 274 710 300 710 c 2,65,-1
 302 710 l 2,66,67
 328 712 328 712 328 737 c 2,68,-1
 328 739 l 1,69,-1
 327 739 l 1,70,71
 326 766 326 766 301 766 c 2,72,-1
 299 766 l 2,73,74
 272 764 272 764 272 740 c 2,62,-1
410 208 m 2,75,76
 362 208 362 208 362 256 c 2,77,-1
 362 450 l 2,78,79
 363 496 363 496 408 496 c 2,80,-1
 890 496 l 2,81,82
 939 496 939 496 939 448 c 2,83,-1
 939 256 l 2,84,85
 938 208 938 208 890 208 c 2,86,-1
 410 208 l 2,75,76
368 781 m 1,87,-1
 368 560 l 1,88,-1
 384 560 l 1,89,-1
 384 781 l 1,90,-1
 368 781 l 1,87,-1
404 290 m 2,91,-1
 404 285 l 1,92,-1
 405 283 l 1,93,94
 406 256 406 256 433 256 c 0,95,96
 460 258 460 258 460 283 c 2,97,-1
 460 287 l 2,98,99
 458 314 458 314 434 314 c 2,100,-1
 429 314 l 2,101,102
 404 313 404 313 404 290 c 2,91,-1
404 425 m 2,103,-1
 404 423 l 2,104,105
 407 398 407 398 429 398 c 2,106,-1
 434 398 l 1,107,-1
 440 399 l 2,108,109
 464 402 464 402 464 423 c 0,110,111
 464 429 464 429 463 431 c 0,112,113
 460 455 460 455 439 455 c 0,114,115
 433 455 433 455 431 454 c 0,116,117
 404 452 404 452 404 425 c 2,103,-1
415 600 m 2,118,-1
 415 596 l 2,119,120
 416 571 416 571 441 571 c 2,121,-1
 443 571 l 2,122,123
 469 571 469 571 469 598 c 0,124,125
 469 624 469 624 443 624 c 2,126,-1
 439 624 l 2,127,128
 415 622 415 622 415 600 c 2,118,-1
419 741 m 2,129,-1
 419 737 l 2,130,131
 419 714 419 714 443 713 c 1,132,-1
 444 714 l 1,133,-1
 446 714 l 2,134,135
 471 714 471 714 471 741 c 0,136,137
 471 767 471 767 445 767 c 128,-1,138
 419 767 419 767 419 741 c 2,129,-1
579 310 m 1,139,140
 552 310 552 310 552 283 c 0,141,142
 552 257 552 257 578 257 c 0,143,144
 605 257 605 257 605 283 c 2,145,-1
 605 285 l 2,146,147
 605 310 605 310 580 311 c 1,148,-1
 579 310 l 1,139,140
580 453 m 2,149,150
 554 453 554 453 554 426 c 0,151,152
 554 400 554 400 580 400 c 2,153,-1
 585 400 l 2,154,155
 609 402 609 402 609 424 c 2,156,-1
 609 428 l 2,157,158
 608 453 608 453 583 453 c 2,159,-1
 580 453 l 2,149,150
584 766 m 1,160,161
 560 762 560 762 560 741 c 0,162,163
 560 735 560 735 561 733 c 0,164,165
 566 709 566 709 585 709 c 0,166,167
 591 709 591 709 593 710 c 2,168,-1
 594 710 l 2,169,170
 619 711 619 711 619 734 c 2,171,-1
 619 739 l 1,172,-1
 618 739 l 1,173,174
 616 766 616 766 590 766 c 2,175,-1
 584 766 l 1,160,161
567 599 m 2,176,-1
 567 595 l 2,177,178
 567 572 567 572 593 570 c 0,179,180
 619 572 619 572 619 597 c 2,181,-1
 619 599 l 1,182,-1
 618 599 l 1,183,184
 616 625 616 625 592 625 c 2,185,-1
 590 625 l 2,186,187
 569 622 569 622 567 599 c 2,176,-1
644 464 m 1,188,-1
 644 241 l 1,189,-1
 656 241 l 1,190,-1
 657 464 l 1,191,-1
 644 464 l 1,188,-1
786 380 m 1,192,193
 762 376 762 376 762 355 c 0,194,195
 762 349 762 349 763 347 c 0,196,197
 768 323 768 323 788 323 c 0,198,199
 794 323 794 323 795 324 c 0,200,201
 822 326 822 326 822 352 c 2,202,-1
 822 354 l 1,203,-1
 820 354 l 1,204,205
 818 380 818 380 794 380 c 2,206,-1
 786 380 l 1,192,193
EndSplineSet
EndChar

StartChar: uniE00D
Encoding: 57357 57357 16
Width: 1024
GlyphClass: 2
Flags: W
LayerCount: 2
Fore
SplineSet
114 352 m 0,0,1
 110 373 110 373 110 405 c 2,2,-1
 110 424 l 2,3,4
 110 561 110 561 181 683 c 0,5,6
 191 701 191 701 203 715 c 0,7,8
 251 783 251 783 320 783 c 0,9,10
 351 783 351 783 387 768 c 0,11,12
 418 758 418 758 445 739 c 0,13,14
 468 725 468 725 491 725 c 2,15,-1
 533 725 l 2,16,17
 556 725 556 725 579 739 c 0,18,19
 624 772 624 772 679 779 c 0,20,21
 684 780 684 780 701 780 c 0,22,23
 768 780 768 780 814 725 c 0,24,25
 863 661 863 661 889 583 c 0,26,27
 914 507 914 507 914 424 c 0,28,29
 914 377 914 377 903 317 c 0,30,31
 901 294 901 294 889 277 c 0,32,33
 870 246 870 246 841 246 c 0,34,35
 823 246 823 246 807 256 c 0,36,37
 774 273 774 273 743 306 c 2,38,-1
 712 338 l 1,39,-1
 683 370 l 2,40,41
 663 391 663 391 636 391 c 2,42,-1
 385 391 l 2,43,44
 358 391 358 391 341 370 c 0,45,46
 300 316 300 316 253 277 c 1,47,-1
 221 256 l 1,48,-1
 213 253 l 2,49,50
 195 244 195 244 180 244 c 0,51,52
 150 244 150 244 131 281 c 1,53,54
 117 319 117 319 114 352 c 0,0,1
256 576 m 2,55,-1
 256 538 l 2,56,57
 258 530 258 530 265 530 c 2,58,-1
 313 530 l 1,59,-1
 313 484 l 2,60,61
 314 477 314 477 320 477 c 2,62,-1
 359 477 l 2,63,64
 370 477 370 477 370 487 c 2,65,-1
 370 530 l 1,66,-1
 415 530 l 2,67,68
 423 532 423 532 423 539 c 2,69,-1
 423 582 l 2,70,71
 421 590 421 590 415 590 c 2,72,-1
 370 590 l 1,73,-1
 370 633 l 2,74,75
 367 643 367 643 357 643 c 2,76,-1
 317 643 l 2,77,78
 309 641 309 641 309 635 c 2,79,-1
 309 590 l 1,80,-1
 267 590 l 2,81,82
 258 587 258 587 256 576 c 2,55,-1
629 590 m 128,-1,84
 597 590 597 590 597 558 c 128,-1,85
 597 526 597 526 629 526 c 1,86,87
 657 530 657 530 661 558 c 1,88,83
 661 590 661 590 629 590 c 128,-1,84
654 507 m 2,89,-1
 654 505 l 2,90,91
 654 473 654 473 686 473 c 2,92,-1
 689 473 l 2,93,94
 718 473 718 473 718 502 c 0,95,96
 718 534 718 534 686 534 c 2,97,-1
 680 534 l 2,98,99
 654 532 654 532 654 507 c 2,89,-1
686 647 m 2,100,101
 658 647 658 647 655 619 c 0,102,103
 656 591 656 591 683 583 c 1,104,105
 715 583 715 583 715 615 c 2,106,-1
 715 622 l 2,107,108
 714 647 714 647 690 647 c 2,109,-1
 686 647 l 2,100,101
715 562 m 2,110,-1
 715 558 l 2,111,112
 715 526 715 526 747 526 c 0,113,114
 774 528 774 528 779 555 c 1,115,116
 777 587 777 587 747 587 c 2,117,-1
 740 587 l 2,118,119
 715 586 715 586 715 562 c 2,110,-1
EndSplineSet
EndChar

StartChar: uniE00E
Encoding: 57358 57358 17
Width: 1024
GlyphClass: 2
Flags: W
LayerCount: 2
Fore
SplineSet
85 667 m 2,0,1
 83 681 83 681 83 683 c 0,2,3
 83 714 83 714 119 723 c 2,4,-1
 390 794 l 1,5,-1
 396 796 l 1,6,-1
 400 797 l 2,7,8
 403 798 403 798 411 798 c 0,9,10
 442 798 442 798 450 762 c 2,11,-1
 561 348 l 2,12,13
 564 339 564 339 564 331 c 0,14,15
 564 301 564 301 529 292 c 2,16,-1
 256 220 l 1,17,-1
 252 219 l 2,18,19
 238 217 238 217 237 217 c 0,20,21
 204 217 204 217 197 253 c 2,22,-1
 85 666 l 1,23,-1
 85 667 l 2,0,1
274 683 m 0,24,25
 212 666 212 666 212 609 c 0,26,27
 212 598 212 598 217 573 c 2,28,-1
 227 537 l 1,29,-1
 281 551 l 1,30,-1
 270 591 l 2,31,32
 267 602 267 602 267 608 c 0,33,34
 267 628 267 628 288 633 c 0,35,36
 290 634 290 634 296 634 c 0,37,38
 320 634 320 634 328 601 c 0,39,40
 332 590 332 590 332 573 c 0,41,42
 332 532 332 532 303 476 c 0,43,44
 281 433 281 433 277 418 c 0,45,46
 273 405 273 405 273 384 c 0,47,48
 273 364 273 364 277 349 c 2,49,-1
 288 307 l 1,50,-1
 450 349 l 1,51,-1
 436 400 l 1,52,-1
 331 371 l 1,53,-1
 330 375 l 2,54,55
 329 377 329 377 329 385 c 0,56,57
 329 397 329 397 337 421 c 2,58,-1
 348 447 l 1,59,-1
 362 475 l 2,60,61
 389 530 389 530 389 577 c 0,62,63
 389 593 389 593 384 615 c 0,64,65
 358 687 358 687 302 687 c 0,66,67
 286 687 286 687 274 683 c 0,24,25
600 360 m 2,68,-1
 532 616 l 1,69,-1
 572 763 l 1,70,-1
 572 764 l 1,71,72
 582 797 582 797 610 797 c 0,73,74
 618 797 618 797 629 794 c 2,75,-1
 902 723 l 2,76,77
 940 709 940 709 940 675 c 0,78,79
 940 665 940 665 939 662 c 2,80,-1
 825 248 l 2,81,82
 815 214 815 214 786 214 c 0,83,84
 778 214 778 214 768 217 c 2,85,-1
 572 271 l 1,86,87
 587 279 587 279 593 296 c 0,88,89
 604 316 604 316 604 335 c 0,90,91
 604 349 604 349 600 360 c 2,68,-1
708 611 m 1,92,-1
 636 341 l 1,93,-1
 689 328 l 1,94,-1
 784 680 l 1,95,-1
 748 690 l 1,96,97
 732 656 732 656 702 656 c 0,98,99
 693 656 693 656 676 661 c 1,100,-1
 666 622 l 1,101,-1
 708 611 l 1,92,-1
EndSplineSet
EndChar

StartChar: uniE00F
Encoding: 57359 57359 18
Width: 1024
GlyphClass: 2
Flags: W
LayerCount: 2
Fore
SplineSet
214 550 m 2,0,1
 200 561 200 561 200 573 c 0,2,3
 200 580 200 580 206 591 c 2,4,-1
 399 925 l 2,5,6
 403 932 403 932 410 936 c 1,7,-1
 411 936 l 1,8,9
 423 941 423 941 428 941 c 0,10,11
 441 941 441 941 451 925 c 2,12,-1
 642 589 l 2,13,14
 646 582 646 582 646 574 c 0,15,16
 646 544 646 544 616 544 c 2,17,-1
 232 544 l 2,18,19
 224 544 224 544 217 548 c 2,20,-1
 214 550 l 2,0,1
383 434 m 2,21,22
 379 441 379 441 379 449 c 0,23,24
 379 479 379 479 409 479 c 2,25,-1
 793 479 l 2,26,27
 801 479 801 479 808 475 c 1,28,-1
 808 474 l 1,29,30
 824 465 824 465 824 451 c 0,31,32
 824 447 824 447 819 434 c 2,33,-1
 626 100 l 2,34,35
 624 93 624 93 617 89 c 2,36,-1
 614 88 l 2,37,38
 602 83 602 83 597 83 c 0,39,40
 583 83 583 83 574 100 c 2,41,-1
 383 434 l 2,21,22
EndSplineSet
EndChar

StartChar: uniE010
Encoding: 57360 57360 19
Width: 1024
GlyphClass: 2
Flags: W
LayerCount: 2
Fore
SplineSet
213 491 m 1,0,-1
 85 491 l 1,1,-1
 512 874 l 1,2,-1
 938 491 l 1,3,-1
 810 491 l 1,4,-1
 810 150 l 1,5,-1
 597 150 l 1,6,-1
 597 406 l 1,7,-1
 427 406 l 1,8,-1
 427 150 l 1,9,-1
 213 150 l 1,10,-1
 213 491 l 1,0,-1
EndSplineSet
EndChar

StartChar: uniE011
Encoding: 57361 57361 20
Width: 1024
GlyphClass: 2
Flags: W
LayerCount: 2
Fore
SplineSet
243 239 m 0,0,1
 132 350 132 350 132 508 c 0,2,3
 132 665 132 665 243 776 c 0,4,5
 356 887 356 887 512 887 c 0,6,7
 669 887 669 887 780 776 c 0,8,9
 890 666 890 666 892 508 c 0,10,11
 892 350 892 350 781 239 c 0,12,13
 668 128 668 128 512 128 c 128,-1,14
 356 128 356 128 243 239 c 0,0,1
474 546 m 1,15,-1
 474 320 l 1,16,-1
 550 320 l 1,17,-1
 550 546 l 1,18,-1
 474 546 l 1,15,-1
474 700 m 1,19,-1
 474 623 l 1,20,-1
 550 623 l 1,21,-1
 550 700 l 1,22,-1
 474 700 l 1,19,-1
EndSplineSet
EndChar

StartChar: uniE012
Encoding: 57362 57362 21
Width: 1024
GlyphClass: 2
Flags: W
LayerCount: 2
Fore
SplineSet
165 424 m 0,0,1
 161 445 161 445 161 477 c 0,2,3
 161 556 161 556 198 626 c 0,4,5
 226 675 226 675 275 704 c 0,6,7
 323 734 323 734 378 734 c 0,8,9
 426 732 426 732 469 713 c 0,10,11
 492 701 492 701 518 698 c 1,12,13
 543 702 543 702 564 712 c 0,14,15
 614 736 614 736 669 736 c 2,16,-1
 678 736 l 2,17,18
 725 734 725 734 768 711 c 0,19,20
 809 690 809 690 836 650 c 2,21,-1
 842 642 l 1,22,-1
 834 637 l 1,23,-1
 833 637 l 1,24,25
 749 585 749 585 748 486 c 0,26,27
 748 372 748 372 853 325 c 1,28,-1
 861 322 l 1,29,-1
 858 314 l 2,30,31
 837 247 837 247 800 194 c 0,32,33
 774 155 774 155 743 122 c 0,34,35
 711 89 711 89 664 87 c 0,36,37
 628 87 628 87 596 104 c 0,38,39
 565 120 565 120 527 120 c 0,40,41
 491 120 491 120 454 103 c 0,42,43
 421 89 421 89 390 86 c 1,44,45
 343 88 343 88 310 122 c 0,46,47
 273 162 273 162 250 196 c 0,48,49
 181 301 181 301 165 424 c 0,0,1
501 735 m 2,50,51
 500 739 500 739 500 753 c 0,52,53
 500 780 500 780 509 805 c 0,54,55
 522 842 522 842 548 872 c 0,56,57
 574 901 574 901 608 918 c 0,58,59
 640 936 640 936 677 939 c 2,60,-1
 685 939 l 1,61,-1
 685 930 l 2,62,63
 686 926 686 926 686 912 c 0,64,65
 686 884 686 884 677 858 c 1,66,-1
 678 858 l 1,67,68
 667 823 667 823 640 790 c 0,69,70
 615 759 615 759 579 742 c 0,71,72
 546 728 546 728 517 728 c 2,73,-1
 501 728 l 1,74,-1
 501 735 l 2,50,51
EndSplineSet
EndChar

StartChar: uniE013
Encoding: 57363 57363 22
Width: 1024
GlyphClass: 2
Flags: W
LayerCount: 2
Fore
SplineSet
136 674 m 0,0,1
 131 704 131 704 131 721 c 0,2,3
 131 785 131 785 168 840 c 0,4,5
 187 866 187 866 197 876 c 0,6,7
 261 940 261 940 353 940 c 0,8,9
 443 939 443 939 508 875 c 0,10,11
 571 813 571 813 573 720 c 2,12,-1
 573 718 l 2,13,14
 573 686 573 686 564 656 c 1,15,16
 518 646 518 646 478 624 c 1,17,18
 516 656 516 656 526 704 c 0,19,20
 532 727 532 727 532 747 c 0,21,22
 532 788 532 788 509 829 c 0,23,24
 475 887 475 887 409 905 c 0,25,26
 386 911 386 911 364 911 c 0,27,28
 327 911 327 911 289 891 c 0,29,30
 232 860 232 860 214 797 c 1,31,-1
 213 796 l 1,32,33
 207 774 207 774 207 751 c 0,34,35
 207 707 207 707 229 670 c 0,36,37
 264 611 264 611 329 593 c 2,38,-1
 335 591 l 2,39,40
 360 586 360 586 377 586 c 0,41,42
 414 586 414 586 446 602 c 1,43,44
 390 560 390 560 359 497 c 1,45,-1
 354 497 l 2,46,47
 286 497 286 497 231 534 c 0,48,49
 156 584 156 584 136 674 c 0,0,1
294 745 m 2,50,51
 291 750 291 750 291 754 c 2,52,-1
 294 763 l 1,53,-1
 361 846 l 1,54,-1
 365 850 l 1,55,-1
 414 850 l 1,56,-1
 346 765 l 2,57,58
 345 764 345 764 345 760 c 128,-1,59
 345 756 345 756 346 755 c 2,60,-1
 410 675 l 1,61,-1
 410 669 l 1,62,-1
 362 669 l 1,63,-1
 358 673 l 1,64,-1
 294 745 l 2,50,51
356 307 m 0,65,66
 351 340 351 340 351 360 c 0,67,68
 351 414 351 414 372 466 c 0,69,70
 404 542 404 542 474 588 c 0,71,72
 541 634 541 634 626 634 c 2,73,-1
 631 634 l 2,74,75
 682 634 682 634 729 616 c 0,76,77
 896 547 896 547 896 368 c 2,78,-1
 896 360 l 2,79,80
 894 264 894 264 834 192 c 0,81,82
 774 118 774 118 681 99 c 0,83,84
 654 92 654 92 618 92 c 0,85,86
 543 92 543 92 476 135 c 0,87,88
 380 196 380 196 356 307 c 0,65,66
433 303 m 1,89,-1
 433 298 l 2,90,91
 433 265 433 265 447 228 c 0,92,93
 477 153 477 153 551 120 c 0,94,95
 587 105 587 105 626 105 c 2,96,-1
 633 105 l 2,97,98
 716 105 716 105 774 160 c 0,99,100
 838 218 838 218 844 303 c 1,101,-1
 844 315 l 1,102,103
 840 395 840 395 780 450 c 0,104,105
 724 500 724 500 651 500 c 2,106,-1
 640 500 l 2,107,108
 557 500 557 500 498 443 c 0,109,110
 438 386 438 386 433 303 c 1,89,-1
585 176 m 1,111,-1
 578 178 l 1,112,-1
 578 188 l 1,113,-1
 666 299 l 1,114,-1
 668 305 l 1,115,-1
 666 312 l 1,116,-1
 580 418 l 1,117,-1
 580 428 l 1,118,-1
 587 430 l 1,119,-1
 642 430 l 1,120,-1
 647 427 l 1,121,-1
 652 422 l 1,122,-1
 738 318 l 2,123,124
 742 314 742 314 742 307 c 0,125,126
 742 299 742 299 738 295 c 2,127,-1
 649 184 l 1,128,-1
 643 179 l 2,129,130
 638 176 638 176 634 176 c 2,131,-1
 585 176 l 1,111,-1
EndSplineSet
EndChar

StartChar: uniE014
Encoding: 57364 57364 23
Width: 1024
GlyphClass: 2
Flags: W
LayerCount: 2
Fore
SplineSet
123 462 m 0,0,1
 84 536 84 536 84 612 c 0,2,3
 84 660 84 660 99 709 c 0,4,5
 136 838 136 838 253 903 c 0,6,7
 330 944 330 944 407 944 c 0,8,9
 449 944 449 944 499 930 c 0,10,11
 694 871 694 871 730 670 c 1,12,13
 690 678 690 678 657 678 c 0,14,15
 536 678 536 678 448 602 c 1,16,17
 432 669 432 669 377 707 c 0,18,19
 340 735 340 735 298 735 c 0,20,21
 285 735 285 735 265 730 c 0,22,23
 202 707 202 707 173 647 c 0,24,25
 157 615 157 615 157 578 c 0,26,27
 157 552 157 552 166 525 c 0,28,29
 180 464 180 464 229 427 c 0,30,31
 269 396 269 396 322 396 c 0,32,33
 336 396 336 396 341 397 c 1,34,-1
 341 358 l 2,35,36
 341 336 341 336 346 301 c 1,37,-1
 320 305 l 1,38,-1
 316 305 l 1,39,40
 187 344 187 344 123 462 c 0,0,1
218 546 m 1,41,-1
 192 546 l 1,42,-1
 192 559 l 2,43,44
 192 592 192 592 201 627 c 1,45,-1
 221 630 l 1,46,-1
 238 631 l 2,47,48
 262 633 262 633 273 636 c 1,49,-1
 273 631 l 2,50,51
 273 618 273 618 277 610 c 1,52,53
 247 602 247 602 222 602 c 1,54,-1
 222 597 l 2,55,56
 222 584 222 584 218 576 c 1,57,58
 227 585 227 585 239 585 c 2,59,-1
 245 585 l 2,60,61
 260 585 260 585 273 576 c 0,62,63
 288 562 288 562 290 542 c 2,64,-1
 290 536 l 2,65,66
 290 519 290 519 286 508 c 0,67,68
 275 485 275 485 252 478 c 0,69,70
 242 476 242 476 239 476 c 0,71,72
 228 476 228 476 218 482 c 0,73,74
 213 484 213 484 196 508 c 1,75,-1
 205 510 l 1,76,-1
 211 512 l 2,77,78
 217 514 217 514 220 514 c 0,79,80
 223 516 223 516 226 516 c 0,81,82
 233 503 233 503 239 503 c 1,83,84
 243 499 243 499 249 499 c 2,85,-1
 252 499 l 2,86,87
 256 499 256 499 265 508 c 0,88,89
 268 511 268 511 268 517 c 0,90,91
 268 524 268 524 265 533 c 0,92,93
 265 546 265 546 256 555 c 0,94,95
 249 559 249 559 242 559 c 2,96,-1
 239 559 l 2,97,98
 224 559 224 559 218 546 c 1,41,-1
337 559 m 1,99,-1
 311 559 l 1,100,101
 316 601 316 601 316 628 c 2,102,-1
 316 640 l 1,103,104
 348 644 348 644 388 657 c 1,105,-1
 393 627 l 1,106,-1
 379 624 l 1,107,-1
 367 621 l 1,108,-1
 362 620 l 2,109,110
 356 618 356 618 352 617 c 0,111,112
 344 615 344 615 341 614 c 2,113,-1
 341 589 l 1,114,115
 349 597 349 597 358 597 c 2,116,-1
 372 599 l 2,117,118
 385 599 385 599 397 593 c 1,119,120
 409 581 409 581 414 563 c 1,121,122
 392 537 392 537 371 495 c 0,123,124
 368 495 368 495 365 494.5 c 128,-1,125
 362 494 362 494 360.5 493.5 c 128,-1,126
 359 493 359 493 358 493 c 0,127,128
 348 493 348 493 337 499 c 0,129,130
 320 510 320 510 316 529 c 1,131,-1
 324 532 l 1,132,-1
 331 533 l 2,133,134
 332 533 332 533 334.5 534 c 128,-1,135
 337 535 337 535 340 536 c 128,-1,136
 343 537 343 537 346 538 c 1,137,-1
 348 531 l 1,138,-1
 354 525 l 2,139,140
 358 521 358 521 365 521 c 2,141,-1
 367 521 l 2,142,143
 369 521 369 521 380 529 c 0,144,145
 385 537 385 537 385 545 c 0,146,147
 385 549 385 549 384 550 c 0,148,149
 384 560 384 560 375 567 c 0,150,151
 370 572 370 572 358 572 c 0,152,153
 344 572 344 572 337 559 c 1,99,-1
444 157 m 0,154,155
 355 237 355 237 355 361 c 0,156,157
 355 490 355 490 444 574 c 0,158,159
 517 644 517 644 615 644 c 0,160,161
 642 644 642 644 661 640 c 0,162,163
 777 638 777 638 858 556 c 256,164,165
 939 474 939 474 939 358 c 0,166,167
 939 244 939 244 858 163 c 0,168,169
 777 81 777 81 663 81 c 2,170,-1
 661 81 l 2,171,172
 529 81 529 81 444 157 c 0,154,155
606 469 m 0,173,174
 604 445 604 445 604 444 c 0,175,176
 604 405 604 405 627 367 c 0,177,178
 653 316 653 316 708 299 c 0,179,180
 730 291 730 291 748 291 c 0,181,182
 777 291 777 291 802 307 c 0,183,184
 848 332 848 332 853 384 c 0,185,186
 855 408 855 408 855 410 c 0,187,188
 855 448 855 448 832 486 c 0,189,190
 805 537 805 537 751 555 c 1,191,192
 740 563 740 563 713 563 c 2,193,-1
 707 563 l 2,194,195
 680 563 680 563 657 546 c 0,196,197
 611 521 611 521 606 469 c 0,173,174
670 427 m 0,198,199
 655 445 655 445 655 461 c 0,200,201
 655 480 655 480 675 497 c 1,202,-1
 678 497 l 1,203,204
 694 516 694 516 714 516 c 0,205,206
 730 516 730 516 747 501 c 2,207,-1
 751 497 l 2,208,209
 762 483 762 483 762 470 c 0,210,211
 762 462 762 462 759 454 c 1,212,213
 773 456 773 456 774 456 c 0,214,215
 793 456 793 456 806 437 c 1,216,217
 825 419 825 419 825 400 c 0,218,219
 825 384 825 384 811 367 c 2,220,-1
 801 358 l 2,221,222
 782 339 782 339 762 339 c 0,223,224
 741 339 741 339 722 358 c 1,225,-1
 720 361 l 1,226,227
 703 375 703 375 703 393 c 0,228,229
 703 401 703 401 708 414 c 1,230,231
 706 413 706 413 700 413 c 0,232,233
 684 413 684 413 670 427 c 0,198,199
696 486 m 0,234,235
 684 478 684 478 684 467 c 0,236,237
 684 460 684 460 690 451 c 1,238,-1
 690 448 l 1,239,240
 704 437 704 437 711 437 c 0,241,242
 719 437 719 437 725 444 c 0,243,244
 738 451 738 451 738 463 c 0,245,246
 738 470 738 470 732 479 c 1,247,-1
 732 480 l 1,248,249
 724 492 724 492 713 492 c 0,250,251
 705 492 705 492 696 486 c 0,234,235
745 429 m 0,252,253
 732 420 732 420 732 409 c 0,254,255
 732 402 732 402 738 393 c 2,256,-1
 742 388 l 2,257,258
 751 376 751 376 762 376 c 0,259,260
 769 376 769 376 780 384 c 1,261,-1
 781 384 l 1,262,263
 792 392 792 392 792 402 c 0,264,265
 792 410 792 410 786 417 c 2,266,-1
 781 422 l 2,267,268
 772 435 772 435 761 435 c 0,269,270
 754 435 754 435 745 429 c 0,252,253
EndSplineSet
EndChar

StartChar: uniE015
Encoding: 57365 57365 24
Width: 1024
GlyphClass: 2
Flags: W
LayerCount: 2
Fore
SplineSet
182 85 m 2,0,1
 158 85 158 85 158 114 c 0,2,3
 158 154 158 154 198 238 c 0,4,5
 267 390 267 390 333 390 c 2,6,-1
 377 390 l 1,7,-1
 371 350 l 1,8,-1
 364 309 l 2,9,10
 360 286 360 286 360 259 c 0,11,12
 360 244 360 244 362 233 c 0,13,14
 374 151 374 151 477 150 c 2,15,-1
 479 150 l 2,16,17
 498 150 498 150 503 243 c 1,18,19
 508 153 508 153 525 153 c 0,20,21
 630 153 630 153 645 229 c 0,22,23
 648 244 648 244 648 266 c 0,24,25
 648 267 648 267 646 305 c 2,26,-1
 640 348 l 1,27,-1
 633 393 l 1,28,-1
 686 393 l 2,29,30
 765 390 765 390 831 238 c 0,31,32
 865 160 865 160 865 120 c 0,33,34
 865 85 865 85 836 85 c 2,35,-1
 182 85 l 2,0,1
347 458 m 1,36,-1
 289 472 l 1,37,-1
 295 488 l 2,38,39
 308 527 308 527 314 575 c 0,40,41
 314 578 314 578 314.5 588.5 c 128,-1,42
 315 599 315 599 315 606 c 0,43,44
 315 637 315 637 310 667 c 0,45,46
 305 705 305 705 305 731 c 0,47,48
 305 756 305 756 310 794 c 0,49,50
 339 915 339 915 459 934 c 0,51,52
 489 939 489 939 508 939 c 0,53,54
 560 939 560 939 611 912 c 0,55,56
 700 869 700 869 703 768 c 0,57,58
 704 759 704 759 704 730 c 0,59,60
 704 684 704 684 700 653 c 0,61,62
 698 617 698 617 698 611 c 0,63,64
 698 577 698 577 706 529 c 0,65,66
 708 526 708 526 709 518 c 2,67,-1
 714 502 l 2,68,69
 716 488 716 488 718 482 c 0,70,71
 721 472 721 472 721 470 c 0,72,73
 681 462 681 462 637 454 c 2,74,-1
 588 442 l 2,75,76
 550 433 550 433 550 426 c 2,77,-1
 550 421 l 1,78,-1
 541 421 l 1,79,-1
 541 443 l 2,80,81
 542 460 542 460 547 473 c 0,82,83
 547 479 547 479 555 482 c 0,84,85
 587 501 587 501 609 529 c 0,86,87
 668 600 668 600 675 688 c 1,88,-1
 675 692 l 2,89,90
 675 710 675 710 659 716 c 0,91,92
 592 736 592 736 575 806 c 1,93,-1
 551 787 l 1,94,-1
 526 768 l 1,95,96
 452 706 452 706 352 703 c 2,97,-1
 331 703 l 1,98,99
 334 643 334 643 360 589 c 0,100,101
 386 527 386 527 444 492 c 0,102,103
 459 485 459 485 467 466 c 1,104,105
 469 446 469 446 469 444 c 128,-1,106
 469 442 469 442 468.5 439.5 c 128,-1,107
 468 437 468 437 467.5 432.5 c 128,-1,108
 467 428 467 428 467 424 c 2,109,-1
 467 421 l 1,110,-1
 459 421 l 1,111,-1
 459 427 l 1,112,-1
 455 430 l 1,113,114
 420 443 420 443 402 447 c 2,115,-1
 347 458 l 1,36,-1
505 519 m 0,116,117
 476 519 476 519 456 542 c 1,118,-1
 487 560 l 1,119,-1
 505 552 l 1,120,-1
 521 560 l 1,121,-1
 553 542 l 1,122,123
 535 519 535 519 505 519 c 0,116,117
505 545 m 0,124,125
 499 545 499 545 487 540 c 1,126,127
 499 533 499 533 505 533 c 0,128,129
 513 533 513 533 522 540 c 1,130,131
 514 545 514 545 505 545 c 0,124,125
EndSplineSet
EndChar

StartChar: uniE016
Encoding: 57366 57366 25
Width: 1024
GlyphClass: 2
Flags: W
LayerCount: 2
Fore
SplineSet
154 411 m 0,0,1
 128 428 128 428 128 452 c 2,2,-1
 128 742 l 2,3,4
 128 768 128 768 157 791 c 0,5,6
 186 815 186 815 218 815 c 2,7,-1
 695 815 l 2,8,9
 767 812 767 812 777 742 c 1,10,-1
 777 452 l 2,11,12
 777 393 777 393 695 393 c 2,13,-1
 346 393 l 1,14,-1
 183 294 l 1,15,-1
 209 393 l 1,16,17
 177 396 177 396 154 411 c 0,0,1
290 657 m 128,-1,19
 247 657 247 657 247 614 c 0,20,21
 247 572 247 572 290 572 c 2,22,-1
 295 572 l 1,23,24
 333 577 333 577 333 614 c 0,25,18
 333 657 333 657 290 657 c 128,-1,19
418 277 m 2,26,27
 354 278 354 278 346 341 c 1,28,-1
 346 354 l 1,29,-1
 760 354 l 1,30,31
 819 359 819 359 819 413 c 2,32,-1
 819 653 l 1,33,-1
 853 653 l 1,34,35
 897 647 897 647 897 607 c 0,36,37
 897 599 897 599 896 597 c 2,38,-1
 896 332 l 2,39,40
 896 280 896 280 841 277 c 2,41,-1
 836 277 l 1,42,-1
 853 205 l 1,43,-1
 734 277 l 1,44,-1
 418 277 l 2,26,27
452 657 m 0,45,46
 410 657 410 657 410 614 c 0,47,48
 410 572 410 572 452 572 c 2,49,-1
 457 572 l 1,50,51
 495 577 495 577 495 614 c 0,52,53
 495 657 495 657 452 657 c 0,45,46
614 657 m 0,54,55
 572 657 572 657 572 614 c 0,56,57
 572 572 572 572 614 572 c 0,58,59
 657 572 657 572 657 614 c 0,60,61
 657 657 657 657 614 657 c 0,54,55
EndSplineSet
EndChar

StartChar: uniE017
Encoding: 57367 57367 26
Width: 1024
GlyphClass: 2
Flags: W
LayerCount: 2
Fore
SplineSet
205 205 m 2,0,1
 128 205 128 205 128 281 c 2,2,-1
 128 744 l 2,3,4
 128 820 128 820 205 823 c 2,5,-1
 819 823 l 2,6,7
 896 823 896 823 896 747 c 2,8,-1
 896 282 l 2,9,10
 896 205 896 205 820 205 c 2,11,-1
 205 205 l 2,0,1
205 742 m 1,12,-1
 205 282 l 1,13,-1
 474 282 l 1,14,-1
 474 742 l 1,15,-1
 205 742 l 1,12,-1
333 585 m 1,16,-1
 265 563 l 1,17,-1
 265 610 l 1,18,-1
 384 653 l 1,19,-1
 388 653 l 1,20,-1
 388 363 l 1,21,-1
 333 363 l 1,22,-1
 333 585 l 1,16,-1
555 742 m 1,23,-1
 555 282 l 1,24,-1
 653 282 l 1,25,-1
 653 316 l 1,26,-1
 691 316 l 1,27,28
 725 320 725 320 725 354 c 0,29,30
 726 356 726 356 726 362 c 0,31,32
 726 389 726 389 696 392 c 2,33,-1
 678 392 l 1,34,-1
 664 388 l 2,35,36
 644 380 644 380 644 358 c 1,37,-1
 585 358 l 1,38,39
 585 439 585 439 683 439 c 0,40,41
 777 439 777 439 777 369 c 2,42,-1
 777 363 l 2,43,44
 776 317 776 317 734 299 c 1,45,-1
 755 286 l 1,46,-1
 819 286 l 1,47,-1
 819 742 l 1,48,-1
 772 742 l 1,49,50
 780 722 780 722 781 700 c 1,51,52
 770 667 770 667 755 636 c 1,53,-1
 666 538 l 1,54,-1
 794 538 l 1,55,-1
 794 491 l 1,56,-1
 593 491 l 1,57,-1
 593 529 l 1,58,59
 711 656 711 656 717 666 c 0,60,61
 721 670 721 670 724 683 c 0,62,63
 726 701 726 701 726 703 c 2,64,-1
 726 709 l 2,65,66
 724 742 724 742 691 742 c 0,67,68
 648 742 648 742 648 705 c 0,69,70
 648 694 648 694 649 691 c 1,71,-1
 589 691 l 1,72,73
 590 717 590 717 602 742 c 1,74,-1
 555 742 l 1,23,-1
EndSplineSet
EndChar

StartChar: uniE018
Encoding: 57368 57368 27
Width: 1024
GlyphClass: 2
Flags: W
LayerCount: 2
Fore
SplineSet
153 232 m 2,0,1
 85 234 85 234 85 302 c 2,2,-1
 85 722 l 2,3,4
 85 790 85 790 153 792 c 2,5,-1
 870 792 l 2,6,7
 939 790 939 790 939 722 c 2,8,-1
 939 302 l 2,9,10
 939 234 939 234 870 232 c 2,11,-1
 153 232 l 2,0,1
209 628 m 1,12,-1
 209 396 l 1,13,-1
 346 396 l 1,14,-1
 344 440 l 1,15,-1
 259 440 l 1,16,-1
 259 628 l 1,17,-1
 209 628 l 1,12,-1
375 628 m 1,18,-1
 375 396 l 1,19,-1
 425 396 l 1,20,-1
 427 628 l 1,21,-1
 375 628 l 1,18,-1
504 628 m 1,22,-1
 449 628 l 1,23,-1
 520 396 l 1,24,-1
 577 396 l 1,25,-1
 650 628 l 1,26,-1
 597 628 l 1,27,-1
 569 529 l 2,28,29
 560 496 560 496 550 447 c 1,30,-1
 541 489 l 1,31,-1
 530 530 l 1,32,-1
 504 628 l 1,22,-1
675 628 m 1,33,-1
 675 396 l 1,34,-1
 814 396 l 1,35,-1
 815 438 l 1,36,-1
 725 438 l 1,37,-1
 725 493 l 1,38,-1
 806 493 l 1,39,-1
 806 536 l 1,40,-1
 725 536 l 1,41,-1
 725 585 l 1,42,-1
 811 585 l 1,43,-1
 811 628 l 1,44,-1
 675 628 l 1,33,-1
EndSplineSet
EndChar

StartChar: uniE019
Encoding: 57369 57369 28
Width: 1024
GlyphClass: 2
Flags: W
LayerCount: 2
Fore
SplineSet
128 397 m 1,0,1
 97 403 97 403 97 429 c 0,2,3
 97 437 97 437 98 439 c 2,4,-1
 149 691 l 2,5,6
 154 720 154 720 183 721 c 2,7,-1
 905 721 l 1,8,9
 935 715 935 715 935 688 c 0,10,11
 935 680 935 680 934 678 c 2,12,-1
 883 427 l 2,13,14
 878 398 878 398 849 397 c 2,15,-1
 128 397 l 1,0,1
222 256 m 2,16,17
 218 263 218 263 218 270 c 2,18,-1
 218 273 l 1,19,-1
 243 273 l 1,20,-1
 243 269 l 2,21,22
 243 256 243 256 260 256 c 2,23,-1
 263 256 l 2,24,25
 269 256 269 256 273 260 c 128,-1,26
 277 264 277 264 277 269 c 0,27,28
 277 273 277 273 273 277 c 2,29,-1
 267 282 l 1,30,-1
 260 286 l 1,31,-1
 252 290 l 1,32,-1
 243 294 l 2,33,34
 227 302 227 302 226 320 c 2,35,-1
 226 322 l 2,36,37
 226 329 226 329 230 333 c 2,38,-1
 237 337 l 1,39,-1
 243 341 l 2,40,41
 248 346 248 346 260 346 c 0,42,43
 269 346 269 346 277 341 c 2,44,-1
 284 339 l 1,45,-1
 290 333 l 2,46,47
 294 326 294 326 294 319 c 2,48,-1
 294 316 l 1,49,-1
 273 316 l 1,50,51
 273 321 273 321 269 324 c 0,52,53
 261 329 261 329 256 329 c 128,-1,54
 251 329 251 329 243 324 c 0,55,56
 239 320 239 320 239 316 c 2,57,-1
 239 310 l 2,58,59
 240 307 240 307 243 307 c 2,60,-1
 250 305 l 1,61,-1
 256 303 l 1,62,-1
 282 290 l 1,63,-1
 287 279 l 1,64,-1
 290 269 l 2,65,66
 290 258 290 258 282 247 c 1,67,68
 271 239 271 239 261 239 c 2,69,-1
 252 239 l 2,70,71
 242 239 242 239 235 243 c 2,72,-1
 222 256 l 2,16,17
252 666 m 1,73,-1
 218 457 l 1,74,-1
 346 457 l 1,75,-1
 354 491 l 1,76,-1
 265 491 l 1,77,-1
 294 666 l 1,78,-1
 252 666 l 1,73,-1
363 247 m 1,79,-1
 341 247 l 1,80,-1
 341 346 l 1,81,-1
 383 346 l 2,82,83
 389 346 389 346 401 341 c 1,84,-1
 407 335 l 1,85,-1
 410 329 l 2,86,87
 414 322 414 322 414 314 c 2,88,-1
 414 311 l 2,89,90
 414 294 414 294 405 290 c 0,91,92
 394 282 394 282 380 282 c 2,93,-1
 363 282 l 1,94,-1
 363 247 l 1,79,-1
363 329 m 1,95,-1
 363 299 l 1,96,-1
 388 299 l 2,97,98
 393 301 393 301 393 303 c 1,99,100
 395 303 395 303 401 316 c 1,101,102
 401 329 401 329 384 329 c 2,103,-1
 363 329 l 1,95,-1
410 666 m 1,104,-1
 375 457 l 1,105,-1
 418 457 l 1,106,-1
 452 666 l 1,107,-1
 410 666 l 1,104,-1
474 269 m 0,108,109
 469 282 469 282 469 290 c 2,110,-1
 469 303 l 2,111,112
 469 311 469 311 474 324 c 0,113,114
 474 335 474 335 486 341 c 0,115,116
 496 348 496 348 508 348 c 0,117,118
 519 348 519 348 529 341 c 0,119,120
 540 336 540 336 542 324 c 0,121,122
 546 316 546 316 546 303 c 2,123,-1
 546 290 l 2,124,125
 546 277 546 277 542 269 c 1,126,127
 542 258 542 258 529 252 c 0,128,129
 519 245 519 245 508 245 c 0,130,131
 496 245 496 245 486 252 c 0,132,133
 479 259 479 259 474 269 c 0,108,109
521 666 m 1,134,-1
 474 666 l 1,135,-1
 512 457 l 1,136,-1
 555 457 l 1,137,-1
 657 666 l 1,138,-1
 610 666 l 1,139,-1
 542 508 l 1,140,-1
 521 666 l 1,134,-1
491 304 m 2,141,-1
 491 290 l 2,142,143
 491 280 491 280 495 273 c 2,144,-1
 499 269 l 2,145,146
 505 266 505 266 511 266 c 2,147,-1
 514 266 l 2,148,149
 521 267 521 267 525 273 c 0,150,151
 530 281 530 281 530 289 c 0,152,153
 530 293 530 293 529 294 c 2,154,-1
 529 299 l 2,155,156
 529 312 529 312 525 320 c 2,157,-1
 521 324 l 2,158,159
 517 328 517 328 509 328 c 128,-1,160
 501 328 501 328 495 320 c 0,161,162
 491 313 491 313 491 304 c 2,141,-1
623 247 m 1,163,-1
 602 247 l 1,164,-1
 602 346 l 1,165,-1
 640 346 l 2,166,167
 654 344 654 344 666 337 c 1,168,169
 674 326 674 326 674 316 c 2,170,-1
 674 313 l 2,171,172
 674 303 674 303 670 299 c 2,173,-1
 657 286 l 1,174,-1
 678 247 l 1,175,-1
 657 247 l 1,176,-1
 640 282 l 1,177,-1
 623 282 l 1,178,-1
 623 247 l 1,163,-1
619 329 m 1,179,-1
 619 299 l 1,180,-1
 638 299 l 2,181,182
 645 299 645 299 649 303 c 0,183,184
 652 306 652 306 653 311 c 2,185,-1
 653 316 l 2,186,187
 652 329 652 329 638 329 c 2,188,-1
 619 329 l 1,179,-1
683 666 m 1,189,-1
 649 457 l 1,190,-1
 785 457 l 1,191,-1
 789 491 l 1,192,-1
 695 491 l 1,193,-1
 704 546 l 1,194,-1
 785 546 l 1,195,-1
 789 580 l 1,196,-1
 708 580 l 1,197,-1
 717 631 l 1,198,-1
 811 631 l 1,199,-1
 819 666 l 1,200,-1
 683 666 l 1,189,-1
747 329 m 1,201,-1
 717 329 l 1,202,-1
 717 346 l 1,203,-1
 798 346 l 1,204,-1
 798 329 l 1,205,-1
 768 329 l 1,206,-1
 768 247 l 1,207,-1
 747 247 l 1,208,-1
 747 329 l 1,201,-1
EndSplineSet
EndChar

StartChar: uniE01A
Encoding: 57370 57370 29
Width: 1024
GlyphClass: 2
Flags: W
LayerCount: 2
Fore
SplineSet
138 125 m 0,0,1
 80 177 80 177 77 256 c 2,2,-1
 77 267 l 2,3,4
 77 340 77 340 126 392 c 0,5,6
 179 450 179 450 256 454 c 1,7,-1
 392 454 l 2,8,9
 425 454 425 454 425 421 c 2,10,-1
 425 229 l 2,11,12
 425 202 425 202 399 202 c 0,13,14
 372 202 372 202 372 228 c 2,15,-1
 372 338 l 2,16,17
 372 343 372 343 366 346 c 2,18,-1
 362 346 l 2,19,20
 357 346 357 346 354 342 c 0,21,22
 298 276 298 276 213 264 c 1,23,-1
 206 260 l 1,24,-1
 206 253 l 2,25,26
 206 243 206 243 213 243 c 0,27,28
 290 251 290 251 343 302 c 1,29,-1
 346 302 l 2,30,31
 349 300 349 300 349 299 c 2,32,-1
 349 259 l 1,33,-1
 347 255 l 1,34,35
 317 238 317 238 317 205 c 2,36,-1
 317 203 l 2,37,38
 317 188 317 188 328 171 c 1,39,-1
 328 168 l 1,40,-1
 325 165 l 1,41,42
 290 148 290 148 290 111 c 0,43,44
 290 96 290 96 299 82 c 1,45,-1
 299 78 l 1,46,-1
 295 75 l 1,47,-1
 274 76 l 1,48,-1
 266 76 l 2,49,50
 193 76 193 76 138 125 c 0,0,1
351 76 m 2,51,52
 316 76 316 76 314 112 c 0,53,54
 314 148 314 148 350 148 c 2,55,-1
 452 148 l 2,56,57
 487 148 487 148 487 112 c 128,-1,58
 487 76 487 76 451 76 c 2,59,-1
 351 76 l 2,51,52
374 171 m 1,60,61
 341 172 341 172 341 205 c 2,62,-1
 341 207 l 1,63,-1
 345 222 l 1,64,-1
 349 224 l 2,65,66
 352 224 352 224 352 221 c 0,67,68
 356 179 356 179 398 178 c 0,69,70
 446 178 446 178 446 226 c 2,71,-1
 446 236 l 2,72,73
 446 239 446 239 450 240 c 2,74,-1
 464 240 l 2,75,76
 498 239 498 239 498 205 c 2,77,-1
 498 203 l 2,78,79
 498 169 498 169 465 169 c 2,80,-1
 374 169 l 1,81,-1
 374 171 l 1,60,61
402 677 m 2,82,83
 372 677 372 677 367 707 c 1,84,-1
 367 714 l 2,85,86
 367 743 367 743 396 749 c 2,87,-1
 574 784 l 1,88,-1
 576 784 l 1,89,-1
 576 714 l 2,90,91
 576 712 576 712 573 711 c 2,92,-1
 410 678 l 1,93,-1
 402 677 l 2,82,83
387 896 m 0,94,95
 383 903 383 903 383 912 c 0,96,97
 383 920 383 920 384 922 c 0,98,99
 392 949 392 949 415 949 c 0,100,101
 422 949 422 949 430 946 c 2,102,-1
 587 896 l 1,103,-1
 590 893 l 1,104,-1
 590 889 l 1,105,106
 579 875 579 875 579 857 c 2,107,-1
 579 825 l 1,108,-1
 573 825 l 1,109,-1
 408 877 l 2,110,111
 394 882 394 882 387 896 c 0,94,95
448 419 m 2,112,113
 448 433 448 433 441 446 c 1,114,-1
 441 450 l 1,115,-1
 445 453 l 1,116,-1
 495 453 l 2,117,118
 530 453 530 453 532 417 c 0,119,120
 530 381 530 381 496 381 c 2,121,-1
 453 381 l 1,122,-1
 451 380 l 1,123,-1
 448 380 l 1,124,-1
 448 419 l 2,112,113
451 285 m 2,125,126
 446 285 446 285 446 290 c 2,127,-1
 446 353 l 2,128,129
 446 357 446 357 450 358 c 2,130,-1
 486 358 l 2,131,132
 521 358 521 358 521 322 c 2,133,-1
 521 321 l 2,134,135
 521 285 521 285 486 285 c 2,136,-1
 451 285 l 2,125,126
560 607 m 1,137,138
 526 608 526 608 526 641 c 2,139,-1
 526 643 l 2,140,141
 526 676 526 676 559 678 c 2,142,-1
 573 678 l 2,143,144
 578 678 578 678 578 673 c 2,145,-1
 578 663 l 2,146,147
 580 616 580 616 625 616 c 0,148,149
 665 616 665 616 671 656 c 0,150,151
 672 659 672 659 675 660 c 0,152,153
 678 660 678 660 679 657 c 2,154,-1
 683 640 l 1,155,156
 683 606 683 606 649 606 c 2,157,-1
 559 606 l 1,158,-1
 560 607 l 1,137,138
573 512 m 2,159,160
 537 512 537 512 537 548 c 0,161,162
 537 585 537 585 573 585 c 2,163,-1
 675 585 l 2,164,165
 711 585 711 585 711 548 c 0,166,167
 711 512 711 512 675 512 c 2,168,-1
 573 512 l 2,159,160
625 640 m 128,-1,170
 600 640 600 640 599 665 c 2,171,-1
 599 858 l 2,172,173
 599 890 599 890 632 892 c 2,174,-1
 750 892 l 2,175,176
 827 892 827 892 883 836 c 128,-1,177
 939 780 939 780 939 703 c 0,178,179
 939 625 939 625 883 569 c 0,180,181
 828 514 828 514 750 514 c 1,182,-1
 725 512 l 1,183,-1
 721 514 l 1,184,-1
 721 518 l 1,185,186
 730 532 730 532 730 548 c 0,187,188
 730 586 730 586 695 601 c 0,189,190
 692 601 692 601 692 604 c 2,191,-1
 692 608 l 1,192,193
 702 624 702 624 704 644 c 0,194,195
 702 677 702 677 674 692 c 1,196,-1
 672 696 l 1,197,-1
 672 736 l 1,198,-1
 674 740 l 1,199,-1
 677 740 l 1,200,201
 733 687 733 687 811 680 c 0,202,203
 820 680 820 680 821 690 c 0,204,205
 821 694 821 694 818 698 c 0,206,207
 815 701 815 701 811 701 c 0,208,209
 726 712 726 712 670 779 c 0,210,211
 667 783 667 783 662 783 c 2,212,-1
 659 783 l 2,213,214
 652 780 652 780 652 773 c 2,215,-1
 652 666 l 2,216,169
 650 640 650 640 625 640 c 128,-1,170
EndSplineSet
EndChar

StartChar: uniE01B
Encoding: 57371 57371 30
Width: 1024
GlyphClass: 2
Flags: W
LayerCount: 2
Fore
SplineSet
146 278 m 0,0,1
 128 325 128 325 128 369 c 0,2,3
 128 415 128 415 146 460 c 0,4,5
 202 601 202 601 354 604 c 1,6,-1
 387 683 l 2,7,8
 390 690 390 690 398 695 c 2,9,-1
 406 697 l 1,10,-1
 414 695 l 1,11,-1
 468 675 l 1,12,13
 504 745 504 745 556 784 c 0,14,15
 612 825 612 825 676 825 c 0,16,17
 701 825 701 825 716 821 c 1,18,-1
 704 871 l 2,19,20
 703 872 703 872 703 877 c 0,21,22
 703 884 703 884 707 888 c 0,23,24
 714 898 714 898 723 898 c 0,25,26
 728 898 728 898 736 893 c 2,27,-1
 797 850 l 1,28,-1
 870 867 l 2,29,30
 872 868 872 868 877 868 c 0,31,32
 887 868 887 868 893 858 c 0,33,34
 897 854 897 854 897 848 c 0,35,36
 897 841 897 841 891 835 c 2,37,-1
 842 776 l 1,38,-1
 867 704 l 2,39,40
 868 702 868 702 868 697 c 0,41,42
 868 688 868 688 859 680 c 0,43,44
 855 676 855 676 847 676 c 2,45,-1
 835 680 l 1,46,-1
 771 725 l 1,47,-1
 701 703 l 2,48,49
 700 702 700 702 695 702 c 0,50,51
 687 702 687 702 683 706 c 0,52,53
 673 713 673 713 673 722 c 0,54,55
 673 728 673 728 679 736 c 2,56,-1
 711 779 l 1,57,58
 694 782 694 782 677 782 c 0,59,60
 620 782 620 782 572 743 c 0,61,62
 551 725 551 725 531 698 c 2,63,-1
 517 676 l 1,64,-1
 506 657 l 1,65,-1
 559 636 l 2,66,67
 573 628 573 628 573 617 c 0,68,69
 573 616 573 616 571 608 c 2,70,-1
 538 528 l 1,71,72
 569 494 569 494 584 457 c 0,73,74
 602 412 602 412 602 367 c 0,75,76
 602 320 602 320 583 276 c 0,77,78
 545 185 545 185 454 148 c 0,79,80
 410 130 410 130 366 130 c 128,-1,81
 322 130 322 130 273 150 c 0,82,83
 183 188 183 188 146 278 c 0,0,1
213 414 m 1,84,-1
 211 404 l 2,85,86
 211 392 211 392 225 387 c 1,87,-1
 233 387 l 2,88,89
 249 387 249 387 253 400 c 1,90,-1
 252 400 l 1,91,92
 286 481 286 481 372 481 c 2,93,-1
 376 481 l 2,94,95
 396 481 396 481 398 501 c 0,96,97
 398 522 398 522 377 523 c 2,98,-1
 369 523 l 2,99,100
 257 523 257 523 213 416 c 1,101,-1
 213 414 l 1,84,-1
EndSplineSet
EndChar

StartChar: uniE01C
Encoding: 57372 57372 31
Width: 1024
GlyphClass: 2
Flags: W
LayerCount: 2
Fore
SplineSet
85 443 m 2,0,1
 69 443 69 443 69 459 c 128,-1,2
 69 475 69 475 85 475 c 2,3,-1
 151 475 l 1,4,-1
 151 822 l 2,5,6
 151 838 151 838 167 838 c 2,7,-1
 857 838 l 2,8,9
 873 838 873 838 873 822 c 2,10,-1
 873 475 l 1,11,-1
 939 475 l 2,12,13
 955 475 955 475 955 459 c 128,-1,14
 955 443 955 443 939 443 c 2,15,-1
 832 443 l 2,16,17
 816 443 816 443 816 459 c 128,-1,18
 816 475 816 475 832 475 c 2,19,-1
 841 475 l 1,20,-1
 841 806 l 1,21,-1
 183 806 l 1,22,-1
 183 475 l 1,23,-1
 186 475 l 2,24,25
 202 475 202 475 202 459 c 128,-1,26
 202 443 202 443 186 443 c 2,27,-1
 85 443 l 2,0,1
285 327 m 0,28,29
 255 380 255 380 251 441 c 1,30,-1
 251 459 l 2,31,32
 252 557 252 557 315 632 c 128,-1,33
 378 707 378 707 474 725 c 1,34,-1
 521 725 l 2,35,36
 701 725 701 725 768 559 c 0,37,38
 788 508 788 508 788 459 c 0,39,40
 788 348 788 348 709 270 c 0,41,42
 631 192 631 192 521 191 c 0,43,44
 363 191 363 191 285 327 c 0,28,29
265 477 m 1,45,-1
 265 443 l 1,46,47
 276 479 276 479 296 515 c 1,48,-1
 341 499 l 2,49,50
 343 498 343 498 360 453 c 2,51,-1
 373 419 l 2,52,53
 374 416 374 416 377 410 c 128,-1,54
 380 404 380 404 381 401 c 128,-1,55
 382 398 382 398 383.5 395.5 c 128,-1,56
 385 393 385 393 386 392 c 2,57,-1
 386 390 l 1,58,59
 370 355 370 355 364 314 c 1,60,-1
 330 318 l 1,61,-1
 310 325 l 1,62,-1
 292 336 l 1,63,-1
 307 316 l 1,64,65
 341 305 341 305 370 302 c 1,66,67
 404 265 404 265 450 245 c 1,68,-1
 450 209 l 1,69,-1
 463 206 l 1,70,-1
 457 245 l 1,71,72
 495 254 495 254 524 280 c 1,73,74
 575 274 575 274 626 274 c 2,75,-1
 640 274 l 1,76,-1
 649 240 l 1,77,78
 727 286 727 286 758 368 c 1,79,-1
 715 368 l 1,80,81
 710 388 710 388 691 430 c 2,82,-1
 685 444 l 1,83,-1
 679 457 l 2,84,85
 673 469 673 469 673 470 c 0,86,87
 690 511 690 511 691 556 c 1,88,-1
 758 556 l 1,89,-1
 755 561 l 1,90,-1
 753 567 l 1,91,-1
 689 567 l 1,92,93
 653 600 653 600 615 620 c 1,94,95
 605 660 605 660 584 694 c 1,96,-1
 606 698 l 1,97,98
 570 714 570 714 526 714 c 2,99,-1
 487 714 l 1,100,101
 505 712 505 712 536 705 c 2,102,-1
 558 700 l 2,103,104
 572 697 572 697 573 696 c 0,105,106
 595 657 595 657 602 622 c 1,107,108
 561 607 561 607 530 576 c 1,109,110
 473 592 473 592 414 594 c 1,111,-1
 410 605 l 1,112,-1
 404 619 l 2,113,114
 400 629 400 629 394 647 c 0,115,116
 397 650 397 650 400 652 c 0,117,118
 401 654 401 654 403 656 c 128,-1,119
 405 658 405 658 408.5 661 c 128,-1,120
 412 664 412 664 414 666 c 0,121,122
 415 667 415 667 434 683 c 2,123,-1
 479 716 l 1,124,-1
 464 714 l 1,125,-1
 450 710 l 1,126,127
 413 682 413 682 384 651 c 1,128,129
 341 638 341 638 313 604 c 0,130,131
 291 573 291 573 291 532 c 2,132,-1
 291 526 l 1,133,-1
 289 526 l 1,134,-1
 265 477 l 1,45,-1
399 394 m 1,135,136
 376 444 376 444 356 503 c 1,137,-1
 414 579 l 1,138,139
 475 578 475 578 532 561 c 1,140,141
 554 513 554 513 566 472 c 1,142,-1
 558 461 l 1,143,-1
 548 448 l 1,144,-1
 529 422 l 1,145,-1
 495 378 l 2,146,147
 490 378 490 378 445 385 c 0,148,149
 416 389 416 389 399 394 c 1,135,136
508 354 m 2,150,151
 502 371 502 371 501 372 c 0,152,153
 511 383 511 383 538 419 c 2,154,-1
 557 445 l 2,155,156
 558 447 558 447 560.5 449.5 c 128,-1,157
 563 452 563 452 564 454 c 0,158,159
 566 456 566 456 570 462 c 0,160,161
 571 464 571 464 573 466 c 2,162,-1
 662 461 l 1,163,164
 688 412 688 412 704 358 c 1,165,166
 696 348 696 348 677 322 c 0,167,168
 667 310 667 310 646 285 c 1,169,-1
 632 285 l 2,170,171
 581 285 581 285 530 291 c 0,172,173
 528 294 528 294 527 300 c 0,174,175
 527 301 527 301 525 306 c 128,-1,176
 523 311 523 311 522 314 c 2,177,-1
 516 332 l 1,178,-1
 508 354 l 2,150,151
EndSplineSet
EndChar

StartChar: uniE01D
Encoding: 57373 57373 32
Width: 1024
GlyphClass: 2
Flags: W
LayerCount: 2
Fore
SplineSet
90 601 m 2,0,1
 83 614 83 614 83 626 c 0,2,3
 83 648 83 648 110 662 c 2,4,-1
 208 713 l 1,5,-1
 270 358 l 1,6,-1
 270 331 l 1,7,-1
 274 315 l 1,8,-1
 270 299 l 1,9,-1
 270 256 l 1,10,-1
 271 259 l 1,11,-1
 271 249 l 1,12,-1
 90 601 l 2,0,1
241 728 m 2,13,14
 240 731 240 731 240 741 c 0,15,16
 240 774 240 774 277 780 c 2,17,-1
 398 802 l 1,18,19
 391 789 391 789 390 773 c 2,20,-1
 368 525 l 1,21,22
 320 516 320 516 285 483 c 1,23,-1
 241 728 l 2,13,14
429 209 m 0,24,25
 362 209 362 209 306 256 c 1,26,-1
 306 299 l 1,27,28
 362 255 362 255 427 255 c 0,29,30
 443 255 443 255 448 256 c 0,31,32
 453 255 453 255 468 255 c 0,33,34
 538 255 538 255 591 303 c 1,35,-1
 591 257 l 1,36,37
 559 210 559 210 448 210 c 0,38,39
 444 209 444 209 429 209 c 0,24,25
427 284 m 0,40,41
 358 284 358 284 306 330 c 1,42,-1
 306 373 l 1,43,44
 362 326 362 326 430 326 c 0,45,46
 444 326 444 326 448 327 c 0,47,48
 453 326 453 326 469 326 c 0,49,50
 540 326 540 326 592 374 c 1,51,-1
 592 331 l 1,52,53
 536 284 536 284 469 284 c 0,54,55
 453 284 453 284 448 285 c 0,56,57
 443 284 443 284 427 284 c 0,40,41
429 359 m 0,58,59
 358 359 358 359 306 405 c 1,60,-1
 306 448 l 1,61,62
 362 495 362 495 429 495 c 0,63,64
 444 495 444 495 448 494 c 0,65,66
 453 495 453 495 468 495 c 0,67,68
 538 495 538 495 591 447 c 1,69,-1
 591 407 l 1,70,71
 559 360 559 360 448 360 c 0,72,73
 443 359 443 359 429 359 c 0,58,59
430 534 m 0,74,75
 428 534 428 534 404 532 c 1,76,-1
 427 768 l 2,77,78
 428 811 428 811 472 811 c 2,79,-1
 474 811 l 1,80,-1
 576 802 l 1,81,-1
 567 784 l 1,82,-1
 476 533 l 1,83,-1
 448 533 l 2,84,85
 444 534 444 534 430 534 c 0,74,75
620 475 m 0,86,87
 577 524 577 524 512 530 c 1,88,-1
 600 773 l 2,89,90
 612 804 612 804 638 804 c 0,91,92
 650 804 650 804 658 800 c 2,93,-1
 909 708 l 2,94,95
 940 698 940 698 940 671 c 0,96,97
 940 659 940 659 936 651 c 1,98,-1
 936 649 l 1,99,-1
 799 271 l 2,100,101
 787 240 787 240 761 240 c 0,102,103
 749 240 749 240 741 244 c 2,104,-1
 627 287 l 1,105,-1
 627 303 l 1,106,-1
 624 320 l 1,107,-1
 627 336 l 1,108,-1
 627 379 l 1,109,-1
 624 395 l 1,110,111
 627 401 627 401 627 408 c 2,112,-1
 627 454 l 2,113,114
 627 468 627 468 620 475 c 0,86,87
620 604 m 0,115,116
 618 590 618 590 618 588 c 128,-1,117
 618 586 618 586 620 572 c 0,118,119
 639 523 639 523 675 444 c 1,120,121
 780 492 780 492 800 503 c 0,122,123
 827 521 827 521 827 545 c 0,124,125
 827 563 827 563 814 579 c 0,126,127
 806 590 806 590 794 597 c 0,128,129
 781 603 781 603 768 603 c 0,130,131
 747 603 747 603 729 588 c 1,132,133
 722 626 722 626 687 640 c 0,134,135
 678 644 678 644 665 644 c 0,136,137
 632 644 632 644 620 604 c 0,115,116
EndSplineSet
EndChar

StartChar: uniE01E
Encoding: 57374 57374 33
Width: 1024
GlyphClass: 2
Flags: W
LayerCount: 2
Fore
SplineSet
295 592 m 2,0,-1
 295 581 l 2,1,2
 295 527 295 527 303 458 c 1,3,4
 237 466 237 466 187 466 c 2,5,-1
 130 466 l 1,6,-1
 85 545 l 1,7,-1
 85 619 l 1,8,-1
 130 697 l 1,9,-1
 188 697 l 2,10,11
 238 697 238 697 304 705 c 1,12,13
 295 648 295 648 295 592 c 2,0,-1
392 404 m 1,14,-1
 498 214 l 1,15,-1
 498 211 l 2,16,17
 498 209 498 209 498.5 206 c 128,-1,18
 499 203 499 203 499.5 201.5 c 128,-1,19
 500 200 500 200 500 199 c 0,20,21
 500 187 500 187 484 180 c 2,22,-1
 385 140 l 1,23,-1
 382 140 l 2,24,25
 380 139 380 139 374 139 c 0,26,27
 360 139 360 139 354 157 c 2,28,-1
 286 425 l 1,29,-1
 392 404 l 1,14,-1
829 885 m 2,30,31
 875 883 875 883 906 796 c 0,32,33
 938 712 938 712 938 581 c 0,34,35
 938 452 938 452 906 368 c 0,36,37
 873 280 873 280 830 280 c 2,38,-1
 762 280 l 1,39,40
 584 403 584 403 366 450 c 1,41,42
 354 520 354 520 354 583 c 2,43,-1
 354 593 l 2,44,45
 354 652 354 652 366 716 c 1,46,47
 580 761 580 761 762 885 c 1,48,-1
 829 885 l 2,30,31
853 389 m 0,49,50
 883 478 883 478 883 566 c 2,51,-1
 883 605 l 2,52,53
 883 691 883 691 855 774 c 0,54,55
 846 804 846 804 826 827 c 2,56,-1
 817 835 l 2,57,58
 812 839 812 839 805 839 c 0,59,60
 801 839 801 839 794 835 c 2,61,-1
 785 827 l 1,62,63
 767 804 767 804 755 775 c 0,64,65
 725 685 725 685 725 594 c 2,66,-1
 725 570 l 2,67,68
 725 480 725 480 755 389 c 0,69,70
 767 358 767 358 785 336 c 1,71,-1
 794 328 l 2,72,73
 798 324 798 324 804 324 c 0,74,75
 818 326 818 326 825 336 c 0,76,77
 843 359 843 359 853 389 c 0,49,50
805 680 m 2,78,79
 811 680 811 680 814 676 c 0,80,81
 822 660 822 660 824 655 c 0,82,83
 835 625 835 625 835 587 c 2,84,-1
 835 575 l 2,85,86
 835 537 835 537 825 507 c 1,87,-1
 814 486 l 1,88,-1
 806 482 l 1,89,-1
 798 486 l 1,90,-1
 787 507 l 1,91,92
 776 540 776 540 776 575 c 2,93,-1
 776 588 l 2,94,95
 776 624 776 624 787 655 c 1,96,-1
 798 676 l 1,97,-1
 801 678 l 1,98,-1
 805 680 l 2,78,79
EndSplineSet
EndChar

StartChar: uniE01F
Encoding: 57375 57375 34
Width: 1024
GlyphClass: 2
Flags: W
LayerCount: 2
Fore
SplineSet
205 204 m 128,-1,1
 87 322 87 322 86 490 c 0,2,3
 86 659 86 659 204 777 c 0,4,5
 323 896 323 896 490 896 c 1,6,-1
 490 490 l 1,7,-1
 896 490 l 1,8,9
 896 324 896 324 777 205 c 0,10,11
 659 87 659 87 492 86 c 0,12,0
 323 86 323 86 205 204 c 128,-1,1
939 534 m 1,13,-1
 534 534 l 1,14,-1
 534 939 l 1,15,16
 701 939 701 939 820 820 c 128,-1,17
 939 701 939 701 939 534 c 1,13,-1
EndSplineSet
EndChar

StartChar: uniE020
Encoding: 57376 57376 35
Width: 1024
GlyphClass: 2
Flags: W
LayerCount: 2
Fore
SplineSet
162 151 m 2,0,1
 137 151 137 151 137 177 c 2,2,-1
 137 181 l 2,3,4
 137 191 137 191 145 199 c 2,5,-1
 388 399 l 1,6,-1
 388 732 l 1,7,-1
 446 896 l 1,8,9
 467 936 467 936 512 939 c 1,10,11
 556 932 556 932 578 894 c 1,12,-1
 636 732 l 1,13,-1
 636 401 l 1,14,-1
 879 201 l 2,15,16
 887 190 887 190 887 180 c 128,-1,17
 887 170 887 170 880 160 c 0,18,19
 876 151 876 151 860 151 c 2,20,-1
 671 151 l 1,21,-1
 601 293 l 2,22,23
 589 315 589 315 564 318 c 2,24,-1
 448 318 l 2,25,26
 422 317 422 317 411 293 c 2,27,-1
 341 151 l 1,28,-1
 162 151 l 2,0,1
351 448 m 1,29,-1
 184 306 l 1,30,-1
 184 693 l 1,31,32
 199 761 199 761 257 761 c 0,33,34
 274 761 274 761 286 757 c 0,35,36
 339 745 339 745 351 693 c 1,37,-1
 351 448 l 1,29,-1
440 85 m 2,38,39
 404 85 404 85 401 123 c 2,40,-1
 401 130 l 2,41,42
 401 137 401 137 404 143 c 2,43,-1
 454 268 l 2,44,45
 465 291 465 291 491 293 c 2,46,-1
 521 293 l 2,47,48
 546 293 546 293 553 268 c 2,49,-1
 602 144 l 2,50,51
 605 135 605 135 605 127 c 0,52,53
 605 103 605 103 579 91 c 1,54,-1
 576 91 l 1,55,-1
 560 88 l 1,56,-1
 444 88 l 1,57,-1
 444 85 l 1,58,-1
 440 85 l 2,38,39
508 860 m 1,59,-1
 466 734 l 1,60,-1
 549 734 l 1,61,-1
 508 860 l 1,59,-1
835 311 m 1,62,-1
 667 451 l 1,63,-1
 667 698 l 1,64,65
 671 777 671 777 750 779 c 2,66,-1
 759 779 l 2,67,68
 831 779 831 779 835 703 c 1,69,-1
 835 311 l 1,62,-1
EndSplineSet
EndChar

StartChar: uniE021
Encoding: 57377 57377 36
Width: 1024
GlyphClass: 2
Flags: W
LayerCount: 2
Fore
SplineSet
111 187 m 0,0,1
 85 216 85 216 85 240 c 0,2,3
 85 265 85 265 111 293 c 2,4,-1
 376 558 l 1,5,-1
 482 452 l 1,6,-1
 216 187 l 2,7,8
 194 165 194 165 164 165 c 0,9,10
 133 165 133 165 111 187 c 0,0,1
252 682 m 2,11,12
 244 692 244 692 244 698 c 0,13,14
 244 706 244 706 252 716 c 2,15,-1
 464 928 l 2,16,17
 473 937 473 937 482 937 c 128,-1,18
 491 937 491 937 500 928 c 2,19,-1
 535 893 l 2,20,21
 543 885 543 885 543 876 c 128,-1,22
 543 867 543 867 535 859 c 2,23,-1
 323 646 l 2,24,25
 315 638 315 638 306 638 c 128,-1,26
 297 638 297 638 288 646 c 2,27,-1
 252 682 l 2,11,12
552 452 m 1,28,-1
 375 629 l 1,29,-1
 552 805 l 1,30,-1
 728 628 l 1,31,-1
 552 452 l 1,28,-1
514 87 m 2,32,33
 489 87 489 87 489 113 c 2,34,-1
 489 212 l 2,35,36
 489 237 489 237 514 237 c 2,37,-1
 912 237 l 2,38,39
 938 237 938 237 938 212 c 2,40,-1
 938 113 l 2,41,42
 938 87 938 87 913 87 c 2,43,-1
 514 87 l 2,32,33
570 363 m 2,44,45
 561 372 561 372 561 381 c 128,-1,46
 561 390 561 390 570 398 c 2,47,-1
 782 611 l 2,48,49
 791 620 791 620 800 620 c 128,-1,50
 809 620 809 620 818 611 c 1,51,-1
 817 611 l 1,52,-1
 853 575 l 2,53,54
 862 568 862 568 862 558 c 0,55,56
 862 549 862 549 853 540 c 2,57,-1
 641 329 l 2,58,59
 632 319 632 319 623 319 c 128,-1,60
 614 319 614 319 607 327 c 2,61,-1
 606 329 l 1,62,-1
 570 363 l 2,44,45
EndSplineSet
EndChar

StartChar: uniE022
Encoding: 57378 57378 37
Width: 1024
GlyphClass: 2
Flags: W
LayerCount: 2
Fore
SplineSet
131 337 m 2,0,1
 128 344 128 344 128 352 c 0,2,3
 128 364 128 364 136 375 c 2,4,-1
 239 506 l 1,5,-1
 312 460 l 1,6,-1
 300 457 l 2,7,8
 275 447 275 447 275 431 c 0,9,10
 275 430 275 430 277 422 c 0,11,12
 287 406 287 406 300 406 c 0,13,14
 308 406 308 406 317 412 c 0,15,16
 340 420 340 420 341 442 c 1,17,-1
 384 417 l 2,18,19
 394 410 394 410 405 408 c 1,20,-1
 346 334 l 1,21,-1
 153 363 l 1,22,-1
 150 363 l 2,23,24
 142 363 142 363 141 354 c 2,25,-1
 141 351 l 2,26,27
 141 342 141 342 150 341 c 2,28,-1
 341 313 l 1,29,-1
 420 121 l 2,30,31
 423 114 423 114 431 114 c 2,32,-1
 435 114 l 2,33,34
 442 117 442 117 442 123 c 0,35,36
 442 127 442 127 441 128 c 2,37,-1
 364 321 l 1,38,-1
 439 414 l 1,39,-1
 443 416 l 1,40,-1
 457 424 l 1,41,-1
 559 302 l 1,42,-1
 564 297 l 2,43,44
 573 288 573 288 585 285 c 1,45,46
 584 272 584 272 576 263 c 2,47,-1
 457 112 l 2,48,49
 446 97 446 97 428 97 c 0,50,51
 422 97 422 97 420 98 c 2,52,-1
 233 130 l 2,53,54
 212 134 212 134 204 154 c 2,55,-1
 131 337 l 2,0,1
175 296 m 0,56,57
 171 289 171 289 171 280 c 0,58,59
 171 265 171 265 188 256 c 1,60,61
 198 246 198 246 210 246 c 0,62,63
 221 246 221 246 231 256 c 0,64,65
 234 264 234 264 234 271 c 0,66,67
 234 285 234 285 217 296 c 0,68,69
 207 306 207 306 196 306 c 128,-1,70
 185 306 185 306 175 296 c 0,56,57
233 533 m 2,71,72
 215 544 215 544 213 567 c 2,73,-1
 213 764 l 2,74,75
 214 786 214 786 233 797 c 2,76,-1
 394 891 l 2,77,78
 404 897 404 897 413 897 c 128,-1,79
 422 897 422 897 433 891 c 2,80,-1
 600 796 l 2,81,82
 620 785 620 785 620 762 c 2,83,-1
 620 562 l 2,84,85
 620 540 620 540 600 529 c 2,86,-1
 511 478 l 1,87,-1
 433 434 l 1,88,-1
 423 430 l 2,89,90
 421 429 421 429 413 429 c 0,91,92
 406 429 406 429 394 434 c 2,93,-1
 251 522 l 1,94,-1
 233 533 l 2,71,72
220 198 m 0,95,96
 216 191 216 191 216 182 c 0,97,98
 216 167 216 167 233 158 c 1,99,100
 243 148 243 148 255 148 c 0,101,102
 266 148 266 148 276 158 c 0,103,104
 279 166 279 166 279 173 c 0,105,106
 279 187 279 187 262 198 c 0,107,108
 252 208 252 208 241 208 c 128,-1,109
 230 208 230 208 220 198 c 0,95,96
230 776 m 0,110,111
 228 770 228 770 228 770 c 2,112,113
 228 766 228 766 234 761 c 2,114,-1
 404 662 l 1,115,-1
 404 454 l 2,116,117
 404 443 404 443 416 443 c 0,118,119
 427 445 427 445 427 454 c 2,120,-1
 427 662 l 1,121,-1
 596 760 l 2,122,123
 602 764 602 764 602 769 c 0,124,125
 602 770 602 770 601 771 c 0,126,127
 600 774 600 774 600 776 c 0,128,129
 596 782 596 782 591 782 c 2,130,-1
 585 780 l 1,131,-1
 414 683 l 1,132,-1
 245 780 l 1,133,-1
 245 781 l 1,134,135
 244 781 244 781 242 782 c 128,-1,136
 240 783 240 783 239 783 c 0,137,138
 233 783 233 783 230 776 c 0,110,111
271 711 m 0,139,140
 247 711 247 711 247 678 c 0,141,142
 247 643 247 643 271 643 c 0,143,144
 296 643 296 643 296 678 c 0,145,146
 296 711 296 711 271 711 c 0,139,140
251 240 m 0,147,148
 248 232 248 232 248 225 c 0,149,150
 248 210 248 210 265 201 c 1,151,152
 275 191 275 191 286 191 c 128,-1,153
 297 191 297 191 307 201 c 0,154,155
 311 208 311 208 311 216 c 0,156,157
 311 231 311 231 293 240 c 1,158,159
 282 251 282 251 272 251 c 128,-1,160
 262 251 262 251 251 240 c 0,147,148
285 287 m 0,161,162
 281 280 281 280 281 272 c 0,163,164
 281 258 281 258 299 247 c 0,165,166
 309 237 309 237 320 237 c 0,167,168
 332 237 332 237 342 247 c 0,169,170
 345 254 345 254 345 262 c 0,171,172
 345 278 345 278 328 287 c 1,173,174
 317 298 317 298 306 298 c 0,175,176
 296 298 296 298 285 287 c 0,161,162
313 640 m 0,177,178
 290 640 290 640 290 605 c 0,179,180
 290 571 290 571 314 571 c 1,181,-1
 312 572 l 1,182,183
 337 572 337 572 337 606 c 128,-1,184
 337 640 337 640 313 640 c 0,177,178
325 189 m 0,185,186
 321 182 321 182 321 173 c 0,187,188
 321 158 321 158 338 149 c 1,189,190
 348 139 348 139 360 139 c 0,191,192
 371 139 371 139 381 149 c 1,193,-1
 381 150 l 2,194,195
 384 158 384 158 384 165 c 0,196,197
 384 180 384 180 367 189 c 1,198,199
 356 200 356 200 346 200 c 128,-1,200
 336 200 336 200 325 189 c 0,185,186
357 571 m 0,201,202
 332 571 332 571 332 537 c 128,-1,203
 332 503 332 503 357 503 c 0,204,205
 381 503 381 503 381 537 c 128,-1,206
 381 571 381 571 357 571 c 0,201,202
417 811 m 0,207,208
 384 811 384 811 384 788 c 0,209,210
 384 762 384 762 417 762 c 0,211,212
 451 762 451 762 451 787 c 0,213,214
 451 811 451 811 417 811 c 0,207,208
451 290 m 0,215,216
 435 280 435 280 435 266 c 0,217,218
 435 257 435 257 439 250 c 0,219,220
 448 224 448 224 464 224 c 0,221,222
 465 224 465 224 473 226 c 0,223,224
 489 236 489 236 489 251 c 0,225,226
 489 259 489 259 485 266 c 0,227,228
 476 291 476 291 459 291 c 0,229,230
 453 291 453 291 451 290 c 0,215,216
469 380 m 0,231,232
 452 371 452 371 452 356 c 0,233,234
 452 347 452 347 456 340 c 0,235,236
 465 314 465 314 481 314 c 0,237,238
 482 314 482 314 490 316 c 2,239,-1
 492 316 l 1,240,241
 508 326 508 326 508 340 c 0,242,243
 508 344 508 344 503 356 c 0,244,245
 494 381 494 381 477 381 c 0,246,247
 471 381 471 381 469 380 c 0,231,232
468 568 m 2,248,-1
 468 563 l 2,249,250
 468 533 468 533 491 533 c 0,251,252
 516 533 516 533 517 566 c 0,253,254
 517 599 517 599 494 601 c 2,255,-1
 493 601 l 2,256,257
 470 601 470 601 468 568 c 2,248,-1
574 314 m 1,258,-1
 474 433 l 1,259,-1
 483 437 l 1,260,-1
 519 458 l 1,261,-1
 522 460 l 1,262,-1
 520 456 l 2,263,264
 518 446 518 446 518 444 c 0,265,266
 518 431 518 431 528 421 c 2,267,-1
 537 412 l 2,268,269
 545 407 545 407 553 407 c 0,270,271
 560 407 560 407 568 412 c 1,272,-1
 568 413 l 1,273,274
 577 424 577 424 577 434 c 128,-1,275
 577 444 577 444 565 455 c 0,276,277
 554 469 554 469 537 469 c 2,278,-1
 533 469 l 1,279,-1
 587 500 l 1,280,-1
 657 512 l 1,281,-1
 791 352 l 2,282,283
 795 348 795 348 800 348 c 2,284,-1
 807 350 l 2,285,286
 811 354 811 354 811 358 c 128,-1,287
 811 362 811 362 807 366 c 2,288,-1
 674 525 l 1,289,-1
 743 710 l 2,290,291
 744 711 744 711 744 715 c 0,292,293
 744 721 744 721 736 724 c 0,294,295
 735 725 735 725 731 725 c 0,296,297
 725 725 725 725 722 718 c 2,298,-1
 653 532 l 1,299,-1
 629 529 l 1,300,301
 640 546 640 546 640 563 c 2,302,-1
 640 725 l 1,303,-1
 722 738 l 2,304,305
 724 739 724 739 730 739 c 0,306,307
 747 739 747 739 758 725 c 2,308,-1
 887 574 l 2,309,310
 897 564 897 564 897 551 c 0,311,312
 897 542 897 542 893 535 c 2,313,-1
 827 354 l 2,314,315
 819 333 819 333 797 329 c 2,316,-1
 609 301 l 1,317,-1
 604 301 l 2,318,319
 588 301 588 301 578 311 c 2,320,-1
 574 314 l 1,258,-1
517 646 m 2,321,-1
 517 643 l 2,322,323
 517 611 517 611 540 611 c 2,324,-1
 543 611 l 2,325,326
 564 611 564 611 566 644 c 2,327,-1
 566 647 l 2,328,329
 566 678 566 678 543 678 c 2,330,-1
 542 678 l 2,331,332
 519 678 519 678 517 646 c 2,321,-1
602 436 m 2,333,334
 593 425 593 425 593 416 c 0,335,336
 593 404 593 404 606 394 c 1,337,338
 615 378 615 378 629 378 c 0,339,340
 637 378 637 378 646 384 c 2,341,-1
 647 385 l 2,342,343
 656 396 656 396 656 405 c 0,344,345
 656 417 656 417 643 427 c 1,346,347
 634 442 634 442 620 442 c 0,348,349
 615 442 615 442 603 437 c 1,350,-1
 602 436 l 2,333,334
680 413 m 0,351,352
 671 402 671 402 671 392 c 128,-1,353
 671 382 671 382 683 371 c 1,354,355
 692 356 692 356 706 356 c 0,356,357
 711 356 711 356 724 361 c 1,358,359
 733 372 733 372 733 381 c 0,360,361
 733 393 733 393 720 403 c 1,362,363
 711 419 711 419 697 419 c 0,364,365
 689 419 689 419 680 413 c 0,351,352
753 614 m 0,366,367
 743 604 743 604 743 593 c 128,-1,368
 743 582 743 582 754 571 c 1,369,370
 763 555 763 555 777 555 c 0,371,372
 786 555 786 555 793 559 c 0,373,374
 804 570 804 570 804 581 c 0,375,376
 804 591 804 591 793 602 c 1,377,378
 784 618 784 618 769 618 c 0,379,380
 760 618 760 618 753 614 c 0,366,367
766 524 m 0,381,382
 756 514 756 514 756 503 c 128,-1,383
 756 492 756 492 767 481 c 1,384,385
 776 465 776 465 791 465 c 0,386,387
 800 465 800 465 807 469 c 1,388,-1
 807 470 l 1,389,390
 817 480 817 480 817 491 c 0,391,392
 817 501 817 501 806 512 c 1,393,394
 797 528 797 528 782 528 c 0,395,396
 773 528 773 528 766 524 c 0,381,382
EndSplineSet
EndChar

StartChar: uniE023
Encoding: 57379 57379 38
Width: 1024
GlyphClass: 2
Flags: W
LayerCount: 2
Fore
SplineSet
107 420 m 1,0,-1
 105 438 l 1,1,2
 105 477 105 477 150 486 c 2,3,-1
 411 555 l 2,4,5
 429 557 429 557 430 557 c 0,6,7
 468 557 468 557 479 512 c 2,8,-1
 546 250 l 1,9,-1
 546 248 l 2,10,11
 546 245 546 245 546.5 240.5 c 128,-1,12
 547 236 547 236 547.5 233.5 c 128,-1,13
 548 231 548 231 548 230 c 0,14,15
 548 192 548 192 503 181 c 2,16,-1
 243 114 l 1,17,-1
 242 114 l 2,18,19
 239 114 239 114 234.5 113.5 c 128,-1,20
 230 113 230 113 227.5 112.5 c 128,-1,21
 225 112 225 112 224 112 c 0,22,23
 186 112 186 112 175 157 c 2,24,-1
 108 418 l 1,25,-1
 107 420 l 1,0,-1
209 433 m 0,26,27
 183 427 183 427 183 404 c 2,28,-1
 183 403 l 2,29,30
 183 402 183 402 183.5 400.5 c 128,-1,31
 184 399 184 399 184.5 396.5 c 128,-1,32
 185 394 185 394 185 392 c 0,33,34
 191 366 191 366 213 366 c 0,35,36
 215 366 215 366 225 368 c 0,37,38
 251 376 251 376 251 398 c 0,39,40
 251 406 251 406 250 409 c 0,41,42
 244 435 244 435 221 435 c 2,43,-1
 220 435 l 2,44,45
 219 435 219 435 217.5 434.5 c 128,-1,46
 216 434 216 434 213.5 433.5 c 128,-1,47
 211 433 211 433 209 433 c 0,26,27
257 255 m 0,48,49
 230 250 230 250 230 226 c 0,50,51
 230 218 230 218 231 216 c 0,52,53
 237 190 237 190 259 190 c 0,54,55
 261 190 261 190 271 192 c 1,56,-1
 271 189 l 1,57,-1
 274 190 l 2,58,59
 298 198 298 198 298 217 c 0,60,61
 298 224 298 224 295 232 c 0,62,63
 288 256 288 256 265 256 c 0,64,65
 259 256 259 256 257 255 c 0,48,49
322 362 m 2,66,67
 297 356 297 356 297 334 c 2,68,-1
 297 333 l 2,69,70
 297 332 297 332 297.5 330.5 c 128,-1,71
 298 329 298 329 298.5 326.5 c 128,-1,72
 299 324 299 324 299 322 c 0,73,74
 307 298 307 298 327 298 c 0,75,76
 335 298 335 298 338 299 c 0,77,78
 367 304 367 304 367 330 c 0,79,80
 367 336 367 336 366 338 c 2,81,-1
 365 340 l 1,82,83
 358 364 358 364 336 364 c 2,84,-1
 322 362 l 2,66,67
384 478 m 2,85,86
 359 471 359 471 359 450 c 0,87,88
 359 449 359 449 359.5 447.5 c 128,-1,89
 360 446 360 446 360.5 443 c 128,-1,90
 361 440 361 440 361 437 c 0,91,92
 368 412 368 412 389 412 c 0,93,94
 390 412 390 412 391.5 412.5 c 128,-1,95
 393 413 393 413 396 413.5 c 128,-1,96
 399 414 399 414 402 414 c 1,97,-1
 400 414 l 1,98,-1
 404 415 l 2,99,100
 428 422 428 422 428 443 c 0,101,102
 428 444 428 444 427.5 446 c 128,-1,103
 427 448 427 448 426.5 451 c 128,-1,104
 426 454 426 454 426 457 c 0,105,106
 418 480 418 480 398 480 c 2,107,-1
 384 478 l 2,85,86
431 303 m 0,108,109
 405 297 405 297 405 275 c 0,110,111
 405 273 405 273 407 263 c 1,112,-1
 408 262 l 1,113,114
 414 237 414 237 435 237 c 0,115,116
 436 237 436 237 437.5 237.5 c 128,-1,117
 439 238 439 238 442 238.5 c 128,-1,118
 445 239 445 239 448 239 c 0,119,120
 474 245 474 245 474 268 c 2,121,-1
 474 269 l 2,122,123
 474 270 474 270 473.5 271.5 c 128,-1,124
 473 273 473 273 472.5 275.5 c 128,-1,125
 472 278 472 278 472 280 c 0,126,127
 466 305 466 305 444 305 c 0,128,129
 443 305 443 305 441.5 304.5 c 128,-1,130
 440 304 440 304 437 303.5 c 128,-1,131
 434 303 434 303 431 303 c 0,108,109
439 672 m 2,132,133
 430 686 430 686 430 703 c 0,134,135
 430 711 430 711 431 714 c 0,136,137
 436 737 436 737 456 750 c 2,138,-1
 680 900 l 1,139,-1
 697 908 l 1,140,141
 713 910 713 910 714 910 c 0,142,143
 741 910 741 910 758 884 c 2,144,-1
 908 660 l 2,145,146
 916 646 916 646 916 632 c 0,147,148
 916 631 916 631 914 617 c 0,149,150
 910 594 910 594 890 581 c 0,151,152
 653 426 653 426 649 424 c 0,153,154
 646 424 646 424 643.5 423.5 c 128,-1,155
 641 423 641 423 639 422.5 c 128,-1,156
 637 422 637 422 635.5 422 c 128,-1,157
 634 422 634 422 633 422 c 0,158,159
 606 422 606 422 588 448 c 2,160,-1
 439 672 l 2,132,133
529 719 m 0,161,162
 513 709 513 709 513 694 c 0,163,164
 513 684 513 684 521 673 c 0,165,166
 531 657 531 657 546 657 c 0,167,168
 556 657 556 657 566 664 c 1,169,-1
 567 664 l 1,170,171
 583 674 583 674 583 689 c 0,172,173
 583 699 583 699 575 710 c 0,174,175
 565 726 565 726 549 726 c 0,176,177
 539 726 539 726 529 719 c 0,161,162
635 566 m 0,178,179
 615 555 615 555 615 539 c 0,180,181
 615 534 615 534 620 521 c 1,182,-1
 621 520 l 1,183,184
 631 504 631 504 645 504 c 0,185,186
 655 504 655 504 666 512 c 1,187,-1
 667 512 l 1,188,-1
 669 513 l 2,189,190
 683 524 683 524 683 537 c 0,191,192
 683 547 683 547 675 558 c 0,193,194
 665 571 665 571 651 571 c 0,195,196
 647 571 647 571 635 566 c 0,178,179
680 819 m 0,197,198
 664 809 664 809 664 794 c 0,199,200
 664 787 664 787 672 773 c 0,201,202
 682 757 682 757 697 757 c 0,203,204
 704 757 704 757 718 765 c 0,205,206
 734 775 734 775 734 790 c 0,207,208
 734 800 734 800 726 811 c 0,209,210
 716 827 716 827 701 827 c 0,211,212
 691 827 691 827 680 819 c 0,197,198
782 668 m 0,213,214
 766 658 766 658 766 642 c 0,215,216
 766 632 766 632 773 622 c 0,217,218
 783 606 783 606 798 606 c 0,219,220
 809 606 809 606 819 613 c 1,221,-1
 819 614 l 1,222,223
 835 624 835 624 835 639 c 0,224,225
 835 649 835 649 828 659 c 0,226,227
 818 675 818 675 802 675 c 0,228,229
 792 675 792 675 782 668 c 0,213,214
EndSplineSet
EndChar

StartChar: uniE024
Encoding: 57380 57380 39
Width: 1024
GlyphClass: 2
Flags: W
LayerCount: 2
Fore
SplineSet
907 669 m 0,0,1
 927 621 927 621 935 559 c 0,2,3
 938 535 938 535 938 509 c 0,4,5
 938 366 938 366 845 246 c 0,6,7
 733 107 733 107 560 89 c 0,8,9
 539 87 539 87 514 87 c 0,10,11
 407 87 407 87 309 139 c 0,12,13
 193 203 193 203 133 322 c 0,14,15
 85 418 85 418 85 514 c 0,16,17
 85 628 85 628 154 737 c 0,18,19
 246 884 246 884 419 925 c 0,20,21
 470 937 470 937 519 937 c 0,22,23
 635 937 635 937 740 871 c 0,24,25
 855 800 855 800 907 669 c 0,0,1
875 565 m 2,26,27
 883 568 883 568 883 577 c 2,28,-1
 883 581 l 1,29,30
 871 655 871 655 826 723 c 0,31,32
 822 729 822 729 817 729 c 0,33,34
 814 728 814 728 810 727 c 2,35,-1
 807 727 l 2,36,37
 798 726 798 726 798 717 c 2,38,-1
 798 691 l 2,39,40
 798 678 798 678 793 678 c 2,41,-1
 779 678 l 1,42,-1
 691 699 l 1,43,-1
 677 702 l 1,44,-1
 647 709 l 1,45,-1
 642 713 l 1,46,-1
 639 718 l 1,47,-1
 639 721 l 1,48,-1
 565 816 l 2,49,50
 562 818 562 818 562 820 c 2,51,-1
 556 827 l 1,52,-1
 556 832 l 1,53,-1
 564 838 l 1,54,-1
 633 867 l 1,55,-1
 616 872 l 2,56,57
 565 887 565 887 513 887 c 0,58,59
 472 887 472 887 425 876 c 0,60,61
 415 873 415 873 415 863 c 2,62,-1
 415 861 l 2,63,64
 415 852 415 852 425 849 c 2,65,-1
 439 838 l 2,66,67
 447 835 447 835 447 833 c 2,68,-1
 447 828 l 1,69,-1
 442 820 l 2,70,71
 438 818 438 818 438 815 c 2,72,-1
 377 714 l 1,73,-1
 377 711 l 2,74,75
 377 708 377 708 370 701 c 1,76,-1
 242 660 l 1,77,-1
 229 660 l 2,78,79
 224 660 224 660 224 671 c 2,80,-1
 221 705 l 2,81,82
 220 715 220 715 210 717 c 2,83,-1
 206 717 l 2,84,85
 200 717 200 717 194 711 c 0,86,87
 146 626 146 626 146 527 c 2,88,-1
 146 521 l 2,89,90
 146 511 146 511 156 508 c 2,91,-1
 160 508 l 2,92,93
 167 508 167 508 173 514 c 2,94,-1
 183 536 l 1,95,-1
 182 536 l 1,96,-1
 182 537 l 2,97,98
 183 538 183 538 183 539 c 0,99,100
 189 547 189 547 192 547 c 128,-1,101
 195 547 195 547 200 542 c 1,102,-1
 200 540 l 1,103,-1
 285 448 l 1,104,-1
 292 441 l 1,105,-1
 295 436 l 1,106,-1
 295 389 l 1,107,-1
 300 297 l 2,108,109
 300 286 300 286 296 286 c 2,110,-1
 282 288 l 1,111,-1
 276 288 l 1,112,-1
 204 299 l 1,113,-1
 214 287 l 1,114,115
 286 191 286 191 402 154 c 1,116,-1
 406 154 l 2,117,118
 412 154 412 154 417 161 c 0,119,120
 421 165 421 165 421 169 c 0,121,122
 421 172 421 172 417 176 c 2,123,-1
 399 202 l 1,124,-1
 387 218 l 1,125,-1
 387 225 l 1,126,-1
 391 229 l 1,127,-1
 444 252 l 1,128,-1
 472 263 l 2,129,130
 473 263 473 263 475 264 c 128,-1,131
 477 265 477 265 481 267 c 128,-1,132
 485 269 485 269 489 271 c 2,133,-1
 523 285 l 1,134,-1
 534 285 l 1,135,-1
 660 247 l 1,136,-1
 663 247 l 2,137,138
 671 244 671 244 673 240 c 2,139,-1
 673 238 l 2,140,141
 672 237 672 237 672 235 c 0,142,143
 671 234 671 234 671 232 c 2,144,-1
 670 230 l 2,145,146
 668 228 668 228 667 227 c 0,147,148
 664 226 664 226 664 223 c 2,149,-1
 643 185 l 1,150,-1
 657 168 l 1,151,-1
 662 168 l 1,152,153
 760 209 760 209 822 300 c 0,154,155
 826 304 826 304 826 308 c 0,156,157
 826 313 826 313 822 317 c 0,158,159
 818 323 818 323 811 323 c 0,160,161
 808 323 808 323 806 322 c 2,162,-1
 786 314 l 2,163,164
 782 312 782 312 781 312 c 2,165,-1
 769 309 l 1,166,-1
 765 311 l 1,167,168
 763 317 763 317 763 319 c 2,169,-1
 754 421 l 1,170,-1
 754 426 l 2,171,172
 753 428 753 428 753 434 c 2,173,-1
 752 450 l 1,174,-1
 751 457 l 1,175,-1
 754 468 l 1,176,-1
 762 478 l 1,177,-1
 767 483 l 1,178,-1
 832 579 l 2,179,180
 836 585 836 585 839 585 c 2,181,-1
 843 585 l 1,182,-1
 851 577 l 1,183,-1
 859 568 l 2,184,185
 864 563 864 563 867 563 c 2,186,-1
 875 565 l 2,26,27
396 452 m 2,187,188
 378 461 378 461 378 470 c 2,189,-1
 394 524 l 1,190,-1
 398 538 l 1,191,-1
 402 551 l 1,192,-1
 423 626 l 2,193,194
 426 636 426 636 429 636 c 2,195,-1
 588 642 l 1,196,-1
 602 642 l 1,197,-1
 605 637 l 1,198,-1
 607 633 l 1,199,-1
 607 630 l 1,200,-1
 657 494 l 2,201,202
 657 492 657 492 660 489 c 2,203,-1
 663 481 l 1,204,-1
 663 478 l 2,205,206
 663 474 663 474 658 471 c 2,207,-1
 540 377 l 1,208,-1
 530 369 l 2,209,210
 528 367 528 367 526 367 c 2,211,-1
 520 369 l 1,212,-1
 474 401 l 1,213,-1
 402 448 l 1,214,-1
 396 452 l 2,187,188
EndSplineSet
EndChar

StartChar: uniE025
Encoding: 57381 57381 40
Width: 1024
GlyphClass: 2
Flags: W
LayerCount: 2
Fore
SplineSet
139 192 m 2,0,1
 130 192 130 192 128 201 c 2,2,-1
 128 565 l 2,3,4
 128 574 128 574 137 576 c 2,5,-1
 245 576 l 2,6,7
 254 576 254 576 256 567 c 2,8,-1
 256 245 l 2,9,10
 256 236 256 236 265 235 c 2,11,-1
 332 235 l 2,12,13
 340 235 340 235 341 244 c 2,14,-1
 341 437 l 2,15,16
 341 447 341 447 351 448 c 2,17,-1
 459 448 l 2,18,19
 468 448 468 448 469 439 c 2,20,-1
 469 245 l 2,21,22
 469 236 469 236 479 235 c 2,23,-1
 545 235 l 2,24,25
 554 235 554 235 555 244 c 2,26,-1
 555 652 l 2,27,28
 555 660 555 660 564 661 c 2,29,-1
 673 661 l 2,30,31
 682 661 682 661 683 652 c 2,32,-1
 683 244 l 2,33,34
 683 236 683 236 692 235 c 2,35,-1
 758 235 l 2,36,37
 766 235 766 235 768 244 c 2,38,-1
 768 821 l 2,39,40
 768 830 768 830 777 832 c 2,41,-1
 885 832 l 2,42,43
 894 832 894 832 896 823 c 2,44,-1
 896 203 l 2,45,46
 896 194 896 194 887 192 c 2,47,-1
 139 192 l 2,0,1
EndSplineSet
EndChar

StartChar: uniE026
Encoding: 57382 57382 41
Width: 1024
GlyphClass: 2
Flags: W
LayerCount: 2
Fore
SplineSet
283 388 m 0,0,1
 128 543 128 543 128 762 c 2,2,-1
 128 765 l 2,3,4
 130 794 130 794 158 794 c 2,5,-1
 271 794 l 2,6,7
 299 793 299 793 299 766 c 2,8,-1
 299 764 l 2,9,10
 300 702 300 702 320 644 c 0,11,12
 322 636 322 636 322 635 c 0,13,14
 322 623 322 623 311 614 c 2,15,-1
 243 546 l 1,16,17
 313 411 313 411 448 341 c 1,18,-1
 521 410 l 2,19,20
 528 420 528 420 540 420 c 0,21,22
 542 420 542 420 550 418 c 0,23,24
 604 401 604 401 655 401 c 2,25,-1
 663 401 l 2,26,27
 691 400 691 400 691 373 c 2,28,-1
 691 259 l 2,29,30
 689 230 689 230 663 230 c 2,31,-1
 660 230 l 2,32,33
 438 232 438 232 283 388 c 0,0,1
488 512 m 1,34,-1
 375 512 l 1,35,-1
 375 542 l 2,36,37
 375 566 375 566 387 586 c 2,38,-1
 400 603 l 1,39,-1
 414 619 l 2,40,41
 452 660 452 660 452 695 c 0,42,43
 453 697 453 697 453 704 c 0,44,45
 453 721 453 721 435 721 c 0,46,47
 414 721 414 721 414 695 c 2,48,-1
 414 670 l 1,49,-1
 380 670 l 1,50,-1
 380 695 l 2,51,52
 379 698 379 698 379 707 c 0,53,54
 379 749 379 749 426 755 c 1,55,-1
 437 755 l 2,56,57
 492 755 492 755 492 695 c 0,58,59
 492 654 492 654 454 610 c 128,-1,60
 416 566 416 566 416 550 c 2,61,-1
 416 546 l 1,62,-1
 488 546 l 1,63,-1
 488 512 l 1,34,-1
580 555 m 1,64,-1
 508 555 l 1,65,-1
 508 593 l 1,66,-1
 576 755 l 1,67,-1
 619 755 l 1,68,-1
 619 593 l 1,69,-1
 636 593 l 1,70,-1
 636 555 l 1,71,-1
 619 555 l 1,72,-1
 619 512 l 1,73,-1
 580 512 l 1,74,-1
 580 555 l 1,64,-1
580 683 m 1,75,-1
 542 593 l 1,76,-1
 580 593 l 1,77,-1
 580 683 l 1,75,-1
674 512 m 1,78,-1
 640 512 l 1,79,-1
 738 755 l 1,80,-1
 768 755 l 1,81,-1
 674 512 l 1,78,-1
858 721 m 1,82,-1
 781 721 l 1,83,-1
 781 755 l 1,84,-1
 896 755 l 1,85,-1
 896 721 l 1,86,-1
 841 512 l 1,87,-1
 802 512 l 1,88,-1
 858 721 l 1,82,-1
EndSplineSet
EndChar

StartChar: uniE027
Encoding: 57383 57383 42
Width: 1024
GlyphClass: 2
Flags: W
LayerCount: 2
Fore
SplineSet
171 365 m 0,0,1
 157 418 157 418 157 465 c 128,-1,2
 157 512 157 512 171 565 c 0,3,4
 175 575 175 575 184 575 c 2,5,-1
 192 573 l 1,6,-1
 375 496 l 2,7,8
 385 492 385 492 385 487 c 0,9,10
 385 486 385 486 383 484 c 2,11,-1
 383 450 l 2,12,13
 383 438 383 438 375 433 c 2,14,-1
 191 356 l 1,15,-1
 190 355 l 2,16,17
 189 354 189 354 184 354 c 0,18,19
 176 354 176 354 171 365 c 0,0,1
200 292 m 0,20,21
 199 294 199 294 199 299 c 0,22,23
 199 307 199 307 209 311 c 2,24,-1
 393 388 l 1,25,-1
 393 389 l 2,26,27
 395 390 395 390 398 390 c 0,28,29
 399 391 399 391 400 391 c 0,30,31
 408 391 408 391 414 380 c 2,32,-1
 425 367 l 1,33,-1
 431 362 l 1,34,-1
 435 358 l 1,35,-1
 441 351 l 1,36,-1
 441 349 l 1,37,-1
 439 341 l 1,38,-1
 362 157 l 2,39,40
 358 148 358 148 349 148 c 2,41,-1
 341 150 l 1,42,43
 251 201 251 201 200 292 c 0,20,21
209 611 m 2,44,45
 199 615 199 615 199 624 c 0,46,47
 199 629 199 629 200 631 c 0,48,49
 250 724 250 724 341 773 c 0,50,51
 349 775 349 775 350 775 c 0,52,53
 358 775 358 775 362 766 c 2,54,-1
 439 582 l 2,55,56
 440 581 440 581 440 577 c 128,-1,57
 440 573 440 573 435 565 c 2,58,-1
 430 561 l 1,59,-1
 424 556 l 1,60,-1
 413 544 l 2,61,62
 407 532 407 532 399 532 c 2,63,-1
 393 534 l 1,64,-1
 209 611 l 2,44,45
408 120 m 0,65,66
 399 124 399 124 399 132 c 0,67,68
 399 133 399 133 401 141 c 2,69,-1
 478 324 l 1,70,-1
 478 325 l 2,71,72
 480 328 480 328 486 334 c 2,73,-1
 488 335 l 2,74,75
 490 335 490 335 490 332 c 1,76,-1
 524 332 l 2,77,78
 536 332 536 332 541 323 c 2,79,-1
 618 140 l 2,80,81
 619 138 619 138 619 133 c 0,82,83
 619 124 619 124 609 120 c 0,84,85
 560 105 560 105 509 105 c 0,86,87
 459 105 459 105 408 120 c 0,65,66
405 782 m 1,88,-1
 403 790 l 2,89,90
 403 797 403 797 414 802 c 0,91,92
 418 806 418 806 424 806 c 2,93,-1
 427 806 l 2,94,95
 429 808 429 808 431 808 c 0,96,97
 434 808 434 808 435 807 c 0,98,99
 441 804 441 804 444 798 c 0,100,101
 456 770 456 770 478 704 c 2,102,-1
 499 649 l 2,103,104
 502 643 502 643 508 640 c 2,105,-1
 516 638 l 2,106,107
 524 638 524 638 529 649 c 2,108,-1
 550 704 l 1,109,110
 571 745 571 745 585 798 c 0,111,112
 585 801 585 801 590 804 c 2,113,-1
 602 806 l 1,114,-1
 603 806 l 1,115,116
 603 802 603 802 620 802 c 1,117,118
 629 798 629 798 629 790 c 0,119,120
 629 789 629 789 627 781 c 2,121,-1
 550 597 l 2,122,123
 544 589 544 589 533 589 c 2,124,-1
 499 589 l 2,125,126
 487 589 487 589 482 597 c 2,127,-1
 405 782 l 1,88,-1
448 452 m 2,128,129
 445 459 445 459 445 465 c 0,130,131
 445 472 445 472 448 478 c 2,132,-1
 469 512 l 2,133,134
 476 525 476 525 491 525 c 2,135,-1
 533 525 l 1,136,-1
 533 526 l 1,137,138
 547 526 547 526 555 512 c 2,139,-1
 576 478 l 2,140,141
 580 474 580 474 580 465 c 0,142,143
 580 459 580 459 576 452 c 2,144,-1
 555 418 l 2,145,146
 548 405 548 405 533 405 c 2,147,-1
 491 405 l 2,148,149
 476 405 476 405 469 418 c 2,150,-1
 448 452 l 2,128,129
499 756 m 0,151,152
 473 833 473 833 465 871 c 1,153,154
 466 917 466 917 512 918 c 0,155,156
 557 916 557 916 563 871 c 1,157,158
 549 806 549 806 529 756 c 0,159,160
 526 750 526 750 520 747 c 2,161,-1
 512 745 l 2,162,163
 504 745 504 745 499 756 c 0,151,152
584 342 m 2,164,165
 583 344 583 344 583 349 c 0,166,167
 583 358 583 358 593 362 c 2,168,-1
 605 372 l 1,169,-1
 610 379 l 1,170,-1
 614 383 l 2,171,172
 620 389 620 389 625 389 c 0,173,174
 626 389 626 389 628 388 c 128,-1,175
 630 387 630 387 631 387 c 2,176,-1
 815 311 l 2,177,178
 824 306 824 306 824 299 c 0,179,180
 824 298 824 298 822 290 c 0,181,182
 771 200 771 200 681 149 c 1,183,-1
 680 148 l 2,184,185
 679 147 679 147 674 147 c 0,186,187
 666 147 666 147 661 158 c 2,188,-1
 585 341 l 1,189,-1
 584 342 l 2,164,165
589 565 m 2,190,191
 584 573 584 573 584 577 c 128,-1,192
 584 581 584 581 585 582 c 2,193,-1
 662 766 l 2,194,195
 666 775 666 775 674 775 c 0,196,197
 675 775 675 775 683 773 c 0,198,199
 773 722 773 722 824 631 c 0,200,201
 825 629 825 629 825 624 c 0,202,203
 825 615 825 615 815 611 c 2,204,-1
 631 534 l 1,205,-1
 625 532 l 2,206,207
 617 532 617 532 611 544 c 2,208,-1
 600 556 l 1,209,-1
 594 561 l 1,210,-1
 589 565 l 2,190,191
649 427 m 2,211,212
 640 433 640 433 640 444 c 2,213,-1
 640 478 l 2,214,215
 640 490 640 490 649 495 c 2,216,-1
 832 572 l 1,217,-1
 832 573 l 2,218,219
 834 574 834 574 837 574 c 0,220,221
 838 575 838 575 839 575 c 0,222,223
 848 575 848 575 853 558 c 0,224,225
 868 509 868 509 868 457 c 0,226,227
 868 406 868 406 853 357 c 0,228,229
 848 348 848 348 841 348 c 0,230,231
 840 348 840 348 832 350 c 2,232,-1
 649 427 l 2,211,212
EndSplineSet
EndChar

StartChar: uniE028
Encoding: 57384 57384 43
Width: 1024
GlyphClass: 2
Flags: W
LayerCount: 2
Fore
SplineSet
131 538 m 0,0,1
 85 583 85 583 85 647 c 0,2,3
 85 712 85 712 130 757 c 0,4,5
 176 803 176 803 240 803 c 128,-1,6
 304 803 304 803 350 758 c 1,7,-1
 350 757 l 1,8,-1
 457 651 l 1,9,-1
 402 595 l 1,10,-1
 295 702 l 2,11,12
 272 725 272 725 241 725 c 0,13,14
 163 725 163 725 163 648 c 0,15,16
 163 570 163 570 241 570 c 0,17,18
 272 570 272 570 295 593 c 1,19,-1
 350 538 l 1,20,21
 305 492 305 492 241 492 c 0,22,23
 176 492 176 492 131 538 c 0,0,1
402 264 m 0,24,25
 358 309 358 309 357 372 c 2,26,-1
 357 375 l 2,27,28
 357 436 357 436 399 481 c 2,29,-1
 674 755 l 2,30,31
 719 800 719 800 781 800 c 2,32,-1
 784 800 l 2,33,34
 848 800 848 800 893 755 c 0,35,36
 938 708 938 708 938 645 c 0,37,38
 938 581 938 581 893 536 c 128,-1,39
 848 491 848 491 784 491 c 0,40,41
 719 491 719 491 674 536 c 1,42,-1
 729 591 l 1,43,44
 752 568 752 568 784 568 c 0,45,46
 861 568 861 568 861 646 c 0,47,48
 861 723 861 723 784 723 c 0,49,50
 752 723 752 723 729 700 c 2,51,-1
 454 427 l 2,52,53
 435 405 435 405 434 375 c 0,54,55
 434 297 434 297 512 297 c 128,-1,56
 590 297 590 297 590 375 c 0,57,58
 590 406 590 406 567 429 c 1,59,-1
 622 484 l 1,60,61
 667 439 667 439 667 374 c 0,62,63
 667 310 667 310 622 265 c 0,64,65
 576 219 576 219 512 219 c 128,-1,66
 448 219 448 219 402 264 c 0,24,25
512 687 m 1,67,-1
 396 803 l 1,68,-1
 629 803 l 1,69,-1
 512 687 l 1,67,-1
EndSplineSet
EndChar

StartChar: uniE029
Encoding: 57385 57385 44
Width: 1024
GlyphClass: 2
Flags: W
LayerCount: 2
Fore
SplineSet
166 449 m 1,0,1
 104 479 104 479 85 545 c 1,2,3
 224 461 224 461 439 461 c 0,4,5
 523 461 523 461 599 471 c 0,6,7
 767 492 767 492 886 535 c 1,8,-1
 889 535 l 2,9,10
 892 535 892 535 892 534 c 0,11,12
 892 527 892 527 701 449 c 0,13,14
 574 398 574 398 427 398 c 0,15,16
 388 398 388 398 377 399 c 0,17,18
 239 408 239 408 166 449 c 1,0,1
277 491 m 0,19,20
 148 513 148 513 85 558 c 1,21,-1
 882 558 l 1,22,23
 634 478 634 478 433 478 c 0,24,25
 346 478 346 478 277 491 c 0,19,20
437 682 m 0,26,27
 224 682 224 682 85 597 c 1,28,29
 104 664 104 664 166 693 c 1,30,31
 235 735 235 735 377 743 c 0,32,33
 425 745 425 745 430 745 c 0,34,35
 578 745 578 745 701 693 c 0,36,37
 892 615 892 615 892 608 c 1,38,-1
 886 608 l 1,39,40
 761 652 761 652 599 671 c 0,41,42
 505 682 505 682 437 682 c 0,26,27
885 583 m 1,43,-1
 89 583 l 1,44,45
 150 628 150 628 280 650 c 0,46,47
 348 663 348 663 436 663 c 0,48,49
 489 663 489 663 528 659 c 0,50,51
 692 645 692 645 885 583 c 1,43,-1
264 279 m 2,52,53
 234 279 234 279 233 309 c 2,54,-1
 233 406 l 1,55,56
 329 382 329 382 426 382 c 0,57,58
 495 382 495 382 564 394 c 1,59,-1
 564 309 l 2,60,61
 562 280 562 280 534 279 c 2,62,-1
 264 279 l 2,52,53
268 333 m 2,63,-1
 268 330 l 2,64,65
 268 323 268 323 276 321 c 2,66,-1
 311 321 l 1,67,-1
 310 322 l 1,68,69
 320 322 320 322 320 332 c 128,-1,70
 320 342 320 342 310 342 c 2,71,-1
 276 342 l 2,72,73
 270 341 270 341 268 333 c 2,63,-1
378 341 m 2,74,75
 370 339 370 339 370 332 c 0,76,77
 370 329 370 329 371 328 c 0,78,79
 373 320 373 320 380 320 c 0,80,81
 383 320 383 320 384 321 c 2,82,-1
 417 320 l 2,83,84
 424 322 424 322 426 329 c 2,85,-1
 426 332 l 2,86,87
 426 340 426 340 417 341 c 2,88,-1
 378 341 l 2,74,75
489 342 m 2,89,90
 478 340 478 340 478 331 c 0,91,92
 479 322 479 322 489 321 c 2,93,-1
 521 321 l 2,94,95
 532 321 532 321 532 331 c 2,96,-1
 532 332 l 2,97,98
 532 342 532 342 521 342 c 2,99,-1
 489 342 l 2,89,90
934 405 m 1,100,101
 889 441 889 441 873 494 c 1,102,103
 930 528 930 528 930 532 c 1,104,105
 940 488 940 488 940 430 c 0,106,107
 940 410 940 410 939 404 c 1,108,-1
 934 405 l 1,100,101
930 610 m 1,109,110
 885 641 885 641 873 648 c 1,111,112
 889 702 889 702 934 736 c 1,113,-1
 939 738 l 1,114,115
 940 732 940 732 940 712 c 0,116,117
 940 654 940 654 930 610 c 1,109,110
EndSplineSet
EndChar

StartChar: uniE030
Encoding: 57392 57392 45
Width: 1024
GlyphClass: 2
Flags: W
LayerCount: 2
Fore
SplineSet
938 512 m 0,0,1
 936 503 936 503 934 502 c 2,2,-1
 932 500 l 1,3,-1
 932 496 l 1,4,-1
 933 495 l 1,5,-1
 933 484 l 2,6,7
 933 475 933 475 927 472 c 0,8,9
 924 469 924 469 922 469 c 0,10,11
 919 469 919 469 918 470 c 0,12,13
 914 470 914 470 911 475 c 2,14,-1
 911 476 l 1,15,-1
 910 476 l 1,16,-1
 909 476 l 2,17,18
 908 477 908 477 907 477 c 128,-1,19
 906 477 906 477 904 475 c 2,20,-1
 902 473 l 1,21,-1
 902 470 l 2,22,23
 902 468 902 468 903 467 c 2,24,-1
 904 466 l 2,25,26
 906 464 906 464 906 462 c 0,27,28
 906 461 906 461 904 459 c 0,29,30
 902 458 902 458 901 458 c 2,31,-1
 898 458 l 2,32,33
 892 458 892 458 888 462 c 0,34,35
 878 469 878 469 859 482 c 2,36,-1
 855 485 l 1,37,-1
 854 485 l 2,38,39
 853 486 853 486 850 488 c 2,40,-1
 849 489 l 1,41,-1
 848 489 l 2,42,43
 847 489 847 489 847 490 c 2,44,-1
 846 491 l 1,45,-1
 842 493 l 1,46,-1
 831 501 l 2,47,48
 828 502 828 502 822 504 c 2,49,-1
 817 504 l 1,50,-1
 816 505 l 1,51,-1
 812 505 l 2,52,53
 811 506 811 506 809.5 506 c 128,-1,54
 808 506 808 506 807 507 c 0,55,56
 787 511 787 511 763 527 c 0,57,58
 745 539 745 539 745 561 c 2,59,-1
 745 564 l 2,60,61
 745 573 745 573 748 582 c 0,62,63
 751 590 751 590 754 596 c 2,64,-1
 754 600 l 1,65,-1
 752 602 l 2,66,67
 751 603 751 603 750 603 c 2,68,-1
 748 602 l 1,69,-1
 747 601 l 1,70,-1
 743 597 l 2,71,72
 743 596 743 596 742 594 c 2,73,-1
 740 590 l 2,74,75
 738 587 738 587 736 582 c 128,-1,76
 734 577 734 577 733 575 c 0,77,78
 730 566 730 566 730 557 c 0,79,80
 730 546 730 546 734 541 c 0,81,82
 735 540 735 540 735 539 c 0,83,84
 735 536 735 536 734 536 c 2,85,-1
 732 534 l 1,86,87
 704 524 704 524 673 503 c 0,88,89
 646 484 646 484 624 461 c 2,90,-1
 623 460 l 2,91,92
 622 459 622 459 620 459 c 2,93,-1
 618 461 l 1,94,-1
 484 625 l 2,95,96
 483 626 483 626 483 627 c 2,97,-1
 483 630 l 2,98,99
 485 632 485 632 487 632 c 0,100,101
 489 633 489 633 492 634.5 c 128,-1,102
 495 636 495 636 496 636 c 2,103,-1
 497 637 l 1,104,-1
 498 637 l 1,105,-1
 498 641 l 2,106,107
 498 643 498 643 497 644 c 0,108,109
 479 654 479 654 465 671 c 1,110,-1
 465 675 l 2,111,112
 465 676 465 676 467 678 c 2,113,-1
 468 679 l 2,114,115
 470 679 470 679 471 678 c 0,116,117
 513 669 513 669 557 666 c 2,118,-1
 558 666 l 2,119,120
 559 666 559 666 560 667 c 2,121,-1
 561 669 l 2,122,123
 561 670 561 670 561.5 670 c 128,-1,124
 562 670 562 670 562 671 c 2,125,-1
 561 673 l 2,126,127
 555 681 555 681 554 687 c 2,128,-1
 555 692 l 1,129,-1
 562 692 l 1,130,131
 574 680 574 680 590 674 c 1,132,-1
 591 674 l 1,133,-1
 592 673 l 1,134,-1
 594 674 l 1,135,-1
 597 677 l 2,136,137
 597 678 597 678 596 679 c 2,138,-1
 596 680 l 1,139,140
 592 687 592 687 590 700 c 0,141,142
 590 702 590 702 591 702 c 2,143,-1
 593 705 l 2,144,145
 596 705 596 705 597 704 c 0,146,147
 613 696 613 696 639 691 c 1,148,-1
 641 691 l 2,149,150
 643 691 643 691 643 692 c 2,151,-1
 645 694 l 1,152,-1
 644 697 l 2,153,154
 638 708 638 708 638 709 c 2,155,-1
 638 712 l 1,156,-1
 639 713 l 1,157,-1
 640 715 l 1,158,-1
 641 716 l 2,159,160
 642 716 642 716 643 716 c 128,-1,161
 644 716 644 716 646 714 c 0,162,163
 653 707 653 707 666 699 c 0,164,165
 668 698 668 698 669 698 c 2,166,-1
 671 700 l 1,167,-1
 673 701 l 1,168,-1
 673 704 l 1,169,-1
 673 714 l 2,170,171
 673 725 673 725 675 730 c 2,172,-1
 677 732 l 1,173,-1
 678 733 l 1,174,-1
 681 733 l 1,175,-1
 683 731 l 1,176,177
 690 718 690 718 702 711 c 0,178,179
 713 703 713 703 728 703 c 0,180,181
 739 703 739 703 752 695 c 0,182,183
 762 690 762 690 772 678 c 1,184,-1
 774 677 l 1,185,-1
 777 677 l 1,186,-1
 780 680 l 1,187,188
 785 702 785 702 789 711 c 1,189,-1
 791 712 l 2,190,191
 791 713 791 713 793 713 c 0,192,193
 796 713 796 713 797 712 c 2,194,-1
 797 709 l 2,195,196
 800 686 800 686 808 672 c 1,197,-1
 809 672 l 2,198,199
 810 670 810 670 812 670 c 128,-1,200
 814 670 814 670 815 672 c 0,201,202
 820 677 820 677 825 677 c 0,203,204
 826 678 826 678 827 678 c 2,205,-1
 828 677 l 1,206,-1
 830 677 l 2,207,208
 831 676 831 676 831 674 c 2,209,-1
 831 673 l 2,210,211
 831 670 831 670 830 670 c 0,212,213
 824 664 824 664 820 654 c 1,214,-1
 820 652 l 2,215,216
 820 650 820 650 821 650 c 0,217,218
 846 622 846 622 876 602 c 0,219,220
 877 600 877 600 877 597 c 0,221,222
 877 593 877 593 875 592 c 2,223,-1
 875 587 l 1,224,-1
 876 586 l 1,225,-1
 877 584 l 1,226,-1
 879 581 l 2,227,228
 880 580 880 580 882 577 c 0,229,230
 882 576 882 576 884 574.5 c 128,-1,231
 886 573 886 573 886 572 c 0,232,233
 887 571 887 571 895 561 c 0,234,235
 900 554 900 554 902 551 c 0,236,237
 923 525 923 525 936 518 c 1,238,-1
 937 516 l 2,239,240
 938 515 938 515 938 512 c 0,0,1
851 592 m 0,241,242
 853 592 853 592 854 593 c 128,-1,243
 855 594 855 594 855 597 c 0,244,245
 852 600 852 600 852 600 c 2,246,247
 847 604 847 604 841 604 c 128,-1,248
 835 604 835 604 832 597 c 2,249,-1
 832 596 l 2,250,251
 832 592 832 592 837 592 c 0,252,253
 839 591 839 591 844 591 c 128,-1,254
 849 591 849 591 851 592 c 0,241,242
356 723 m 2,255,-1
 536 500 l 1,256,-1
 678 325 l 2,257,258
 682 322 682 322 682 317 c 2,259,-1
 682 315 l 2,260,261
 682 310 682 310 677 305 c 0,262,263
 672 302 672 302 668 302 c 2,264,-1
 667 302 l 2,265,266
 661 303 661 303 657 307 c 2,267,-1
 516 480 l 1,268,-1
 515 482 l 2,269,270
 511 484 511 484 510 484 c 2,271,-1
 508 484 l 2,272,273
 505 484 505 484 504 482 c 2,274,-1
 270 294 l 2,275,276
 267 291 267 291 261 291 c 2,277,-1
 259 291 l 2,278,279
 252 293 252 293 249 297 c 2,280,-1
 88 496 l 2,281,282
 85 499 85 499 85 504 c 2,283,-1
 85 507 l 2,284,285
 88 513 88 513 90 515 c 2,286,-1
 349 724 l 2,287,288
 350 725 350 725 353 725 c 0,289,290
 354 725 354 725 356 723 c 2,255,-1
486 502 m 2,291,292
 488 504 488 504 488 507 c 2,293,-1
 488 510 l 1,294,-1
 488 513 l 1,295,-1
 452 557 l 2,296,297
 450 560 450 560 447 560 c 2,298,-1
 445 560 l 2,299,300
 442 560 442 560 442 559 c 2,301,-1
 403 528 l 2,302,303
 401 527 401 527 399 527 c 2,304,-1
 398 527 l 2,305,306
 394 527 394 527 393 529 c 2,307,-1
 348 585 l 2,308,309
 346 587 346 587 346 590 c 0,310,311
 347 593 347 593 349 595 c 2,312,-1
 388 627 l 2,313,314
 390 627 390 627 390 631 c 2,315,-1
 390 632 l 2,316,317
 390 633 390 633 388 637 c 2,318,-1
 353 681 l 1,319,-1
 348 683 l 2,320,321
 345 683 345 683 343 682 c 2,322,-1
 304 651 l 2,323,324
 302 649 302 649 302 646 c 2,325,-1
 302 643 l 2,326,327
 302 640 302 640 303 640 c 2,328,-1
 338 596 l 1,329,-1
 339 591 l 2,330,331
 339 588 339 588 337 586 c 2,332,-1
 285 544 l 2,333,334
 283 543 283 543 283 539 c 2,335,-1
 283 537 l 2,336,337
 283 534 283 534 284 533 c 2,338,-1
 328 478 l 2,339,340
 330 474 330 474 330 472 c 2,341,-1
 328 467 l 1,342,-1
 276 427 l 2,343,344
 275 425 275 425 272 425 c 2,345,-1
 270 425 l 2,346,347
 269 425 269 425 265 427 c 2,348,-1
 221 482 l 2,349,350
 219 486 219 486 219 487 c 2,351,-1
 219 488 l 2,352,353
 219 493 219 493 222 493 c 2,354,-1
 273 535 l 2,355,356
 276 535 276 535 276 540 c 2,357,-1
 276 542 l 2,358,359
 276 545 276 545 275 546 c 2,360,-1
 239 589 l 2,361,362
 238 592 238 592 234 592 c 2,363,-1
 233 592 l 2,364,365
 232 592 232 592 230 592 c 2,366,-1
 229 591 l 1,367,-1
 178 549 l 2,368,369
 175 546 175 546 175 544 c 2,370,-1
 175 542 l 2,371,372
 175 539 175 539 176 538 c 2,373,-1
 212 494 l 2,374,375
 213 492 213 492 213 491 c 2,376,-1
 213 489 l 2,377,378
 213 486 213 486 210 484 c 2,379,-1
 170 451 l 2,380,381
 168 449 168 449 167 447 c 2,382,-1
 167 445 l 2,383,384
 167 442 167 442 168 442 c 1,385,-1
 168 441 l 1,386,-1
 213 385 l 1,387,-1
 218 382 l 2,388,389
 220 382 220 382 224 384 c 2,390,-1
 264 417 l 2,391,392
 266 418 266 418 270 418 c 0,393,394
 274 416 274 416 275 415 c 2,395,-1
 310 372 l 2,396,397
 311 369 311 369 315 368 c 0,398,399
 317 368 317 368 321 370 c 2,400,-1
 373 412 l 2,401,402
 375 414 375 414 375 417 c 2,403,-1
 375 419 l 2,404,405
 375 422 375 422 374 422 c 2,406,-1
 338 467 l 2,407,408
 337 469 337 469 337 472 c 128,-1,409
 337 475 337 475 339 477 c 2,410,-1
 391 518 l 2,411,412
 395 520 395 520 397 520 c 2,413,-1
 402 517 l 1,414,-1
 437 473 l 2,415,416
 437 472 437 472 442 470 c 0,417,418
 445 470 445 470 448 472 c 2,419,-1
 486 502 l 2,291,292
EndSplineSet
EndChar

StartChar: uniE031
Encoding: 57393 57393 46
Width: 802
GlyphClass: 2
Flags: W
LayerCount: 2
Fore
SplineSet
423 449 m 1,0,-1
 423 276 l 1,1,2
 474 280 474 280 519 306 c 0,3,4
 563 332 563 332 593 374 c 1,5,-1
 443 461 l 1,6,7
 436 454 436 454 423 449 c 1,0,-1
360 461 m 1,8,-1
 210 374 l 1,9,10
 239 332 239 332 284 306 c 256,11,12
 329 280 329 280 380 276 c 1,13,-1
 380 449 l 1,14,15
 367 454 367 454 360 461 c 1,8,-1
380 570 m 1,16,-1
 380 744 l 1,17,18
 329 740 329 740 284 713 c 0,19,20
 238 687 238 687 210 646 c 1,21,-1
 360 559 l 1,22,23
 367 564 367 564 380 570 c 1,16,-1
593 646 m 1,24,25
 561 688 561 688 519 713 c 0,26,27
 474 740 474 740 423 744 c 1,28,-1
 423 570 l 1,29,30
 436 564 436 564 443 559 c 1,31,-1
 593 646 l 1,24,25
389 482 m 0,32,33
 395 479 395 479 401 479 c 0,34,35
 408 479 408 479 414 482 c 0,36,37
 419 483 419 483 424 488 c 2,38,-1
 430 497 l 2,39,40
 433 504 433 504 433 510 c 128,-1,41
 433 516 433 516 430 523 c 2,42,-1
 424 532 l 2,43,44
 419 537 419 537 414 538 c 0,45,46
 408 541 408 541 401 541 c 0,47,48
 395 541 395 541 389 538 c 0,49,50
 384 537 384 537 379 532 c 0,51,52
 374 528 374 528 373 523 c 0,53,54
 370 516 370 516 370 510 c 128,-1,55
 370 504 370 504 373 497 c 0,56,57
 374 492 374 492 379 488 c 0,58,59
 384 483 384 483 389 482 c 0,32,33
187 411 m 1,60,-1
 338 498 l 2,61,62
 337 501 337 501 337 510 c 128,-1,63
 337 519 337 519 338 522 c 2,64,-1
 187 608 l 1,65,66
 166 562 166 562 166 510 c 256,67,68
 166 458 166 458 187 411 c 1,60,-1
465 498 m 2,69,-1
 615 411 l 1,70,71
 637 455 637 455 637 510 c 0,72,73
 637 564 637 564 615 608 c 1,74,-1
 465 522 l 2,75,76
 466 519 466 519 466 510 c 128,-1,77
 466 501 466 501 465 498 c 2,69,-1
295 761 m 0,78,79
 346 782 346 782 401 782 c 128,-1,80
 456 782 456 782 508 761 c 0,81,82
 553 742 553 742 593 702 c 0,83,84
 631 664 631 664 652 616 c 0,85,86
 673 565 673 565 673 510 c 0,87,88
 673 456 673 456 652 403 c 0,89,90
 631 355 631 355 594 318 c 0,91,92
 556 279 556 279 508 259 c 0,93,94
 456 238 456 238 401 238 c 128,-1,95
 346 238 346 238 295 259 c 0,96,97
 247 279 247 279 209 318 c 0,98,99
 169 358 169 358 151 403 c 0,100,101
 129 453 129 453 129 510 c 0,102,103
 129 568 129 568 151 616 c 0,104,105
 169 662 169 662 209 702 c 0,106,107
 247 740 247 740 295 761 c 0,78,79
435 908 m 0,108,109
 512 903 512 903 580 867 c 0,110,111
 648 834 648 834 697 779 c 0,112,113
 747 723 747 723 774 654 c 0,114,115
 801 584 801 584 801 510 c 2,116,-1
 801 505 l 2,117,118
 800 408 800 408 754 323 c 0,119,120
 710 239 710 239 628 181 c 0,121,122
 622 178 622 178 617 178 c 2,123,-1
 614 178 l 2,124,125
 607 179 607 179 603 185 c 1,126,-1
 603 186 l 1,127,128
 599 190 599 190 599 195 c 0,129,130
 599 198 599 198 600 199 c 0,131,132
 602 206 602 206 607 211 c 0,133,134
 651 242 651 242 674 269 c 0,135,136
 705 305 705 305 724 341 c 0,137,138
 744 378 744 378 754 422 c 0,139,140
 765 466 765 466 765 503 c 2,141,-1
 765 510 l 2,142,143
 765 586 765 586 737 651 c 0,144,145
 709 717 709 717 658 768 c 0,146,147
 608 818 608 818 543 845 c 0,148,149
 473 874 473 874 401 874 c 0,150,151
 386 874 386 874 382 873 c 0,152,153
 316 870 316 870 252 841 c 0,154,155
 192 814 192 814 145 767 c 0,156,157
 98 719 98 719 70 659 c 256,158,159
 42 599 42 599 38 529 c 0,160,161
 37 524 37 524 37 510 c 0,162,163
 37 450 37 450 60 387 c 0,164,165
 83 320 83 320 130 266 c 0,166,167
 181 211 181 211 242 183 c 0,168,169
 307 150 307 150 382 146 c 0,170,171
 386 145 386 145 401 145 c 0,172,173
 462 146 462 146 522 167 c 0,174,175
 523 168 523 168 528 168 c 0,176,177
 534 168 534 168 537 165 c 0,178,179
 542 162 542 162 545 157 c 0,180,181
 546 155 546 155 546 152 c 0,182,183
 547 150 547 150 547 150 c 2,184,185
 547 145 547 145 546 144 c 0,186,187
 543 137 543 137 536 133 c 0,188,189
 535 132 535 132 534 132 c 0,190,191
 472 110 472 110 401 110 c 0,192,193
 317 110 317 110 246 141 c 0,194,195
 171 173 171 173 118 226 c 0,196,197
 60 284 60 284 32 353 c 0,198,199
 0 429 0 429 0 509 c 0,200,201
 0 593 0 593 31 664 c 0,202,203
 63 739 63 739 116 792 c 0,204,205
 174 850 174 850 243 878 c 0,206,207
 319 910 319 910 398 910 c 0,208,209
 401 910 401 910 435 908 c 0,108,109
EndSplineSet
EndChar

StartChar: uniE032
Encoding: 57394 57394 47
Width: 800
GlyphClass: 2
Flags: W
LayerCount: 2
Fore
SplineSet
769 491 m 1,0,-1
 769 518 l 2,1,2
 769 562 769 562 755 612 c 0,3,4
 741 663 741 663 714 705 c 1,5,-1
 687 593 l 1,6,-1
 769 491 l 1,0,-1
566 309 m 1,7,-1
 724 332 l 1,8,9
 753 387 753 387 764 448 c 1,10,-1
 666 572 l 1,11,-1
 534 526 l 1,12,-1
 502 394 l 1,13,-1
 566 309 l 1,7,-1
501 157 m 1,14,15
 562 174 562 174 614 211 c 0,16,17
 666 247 666 247 702 299 c 1,18,-1
 568 279 l 1,19,-1
 501 157 l 1,14,15
462 147 m 1,20,-1
 540 292 l 1,21,-1
 478 376 l 1,22,-1
 323 376 l 1,23,-1
 258 292 l 1,24,-1
 352 145 l 1,25,26
 376 142 376 142 400 142 c 128,-1,27
 424 142 424 142 462 147 c 1,20,-1
231 279 m 1,28,-1
 98 299 l 1,29,30
 140 242 140 242 192 207 c 0,31,32
 247 170 247 170 311 153 c 1,33,-1
 231 279 l 1,28,-1
131 572 m 1,34,-1
 34 451 l 1,35,36
 46 388 46 388 76 332 c 1,37,-1
 233 309 l 1,38,-1
 299 395 l 1,39,-1
 264 527 l 1,40,-1
 131 572 l 1,34,-1
106 737 m 1,41,-1
 139 601 l 1,42,-1
 273 555 l 1,43,-1
 384 641 l 1,44,-1
 384 772 l 1,45,-1
 220 835 l 1,46,47
 152 798 152 798 106 737 c 1,41,-1
400 881 m 1,48,-1
 400 882 l 1,49,50
 329 882 329 882 257 853 c 1,51,-1
 399 799 l 1,52,-1
 537 855 l 1,53,54
 470 881 470 881 405 881 c 2,55,-1
 400 881 l 1,48,-1
504 532 m 1,56,-1
 399 615 l 1,57,-1
 294 532 l 1,58,-1
 327 406 l 1,59,-1
 473 406 l 1,60,-1
 504 532 l 1,56,-1
691 739 m 1,61,62
 645 801 645 801 575 839 c 1,63,-1
 415 773 l 1,64,-1
 415 641 l 1,65,-1
 524 555 l 1,66,-1
 659 601 l 1,67,-1
 691 739 l 1,61,62
719 752 m 1,68,-1
 721 750 l 1,69,70
 760 698 760 698 780 638 c 0,71,72
 800 573 800 573 800 512 c 0,73,74
 800 489 800 489 795 452 c 0,75,76
 795 449 795 449 794 448 c 0,77,78
 784 376 784 376 746 314 c 0,79,80
 746 313 746 313 745 312 c 2,81,-1
 744 310 l 1,82,-1
 744 309 l 1,83,84
 700 235 700 235 630 185 c 0,85,86
 560 136 560 136 475 119 c 1,87,-1
 472 119 l 1,88,89
 440 112 440 112 399 112 c 0,90,91
 378 112 378 112 343 117 c 1,92,-1
 339 117 l 1,93,94
 276 128 276 128 219 156 c 0,95,96
 165 184 165 184 117 229 c 0,97,98
 74 274 74 274 44 330 c 0,99,100
 14 388 14 388 4 451 c 1,101,-1
 4 452 l 2,102,103
 2 468 2 468 1 477 c 0,104,105
 0 485 0 485 0 512 c 128,-1,106
 0 539 0 539 3 564 c 0,107,108
 5 572 5 572 8 574 c 0,109,110
 13 577 13 577 18 577 c 2,111,-1
 20 577 l 2,112,113
 26 575 26 575 30 571 c 0,114,115
 33 566 33 566 33 559 c 0,116,117
 30 536 30 536 30 512 c 0,118,119
 30 498 30 498 31 493 c 1,120,-1
 110 593 l 1,121,-1
 83 704 l 1,122,123
 81 700 81 700 75.5 689.5 c 128,-1,124
 70 679 70 679 67 674 c 2,125,-1
 67 673 l 2,126,127
 64 668 64 668 58 665 c 2,128,-1
 54 665 l 2,129,130
 48 665 48 665 47 666 c 0,131,132
 40 669 40 669 39 676 c 0,133,134
 38 677 38 677 38 680 c 2,135,136
 38 680 38 680 39 682 c 0,137,138
 40 685 40 685 40 687 c 0,139,140
 55 718 55 718 75 745 c 0,141,142
 75 747 75 747 76 748 c 2,143,-1
 80 752 l 1,144,145
 132 822 132 822 209 864 c 0,146,147
 210 865 210 865 214 865 c 0,148,149
 256 889 256 889 304 900 c 0,150,151
 350 912 350 912 400 912 c 0,152,153
 443 912 443 912 492 901 c 0,154,155
 539 891 539 891 580 869 c 0,156,157
 580 868 580 868 581 868 c 128,-1,158
 582 868 582 868 583 867 c 0,159,160
 662 825 662 825 718 754 c 1,161,-1
 719 752 l 1,68,-1
EndSplineSet
EndChar

StartChar: uniE033
Encoding: 57395 57395 48
Width: 1024
GlyphClass: 2
Flags: W
LayerCount: 2
Fore
SplineSet
431 526 m 0,0,1
 396 541 396 541 366 570 c 0,2,3
 340 596 340 596 323 635 c 0,4,5
 307 675 307 675 307 714 c 128,-1,6
 307 753 307 753 323 793 c 0,7,8
 338 826 338 826 366 858 c 0,9,10
 393 885 393 885 432 902 c 0,11,12
 468 918 468 918 512 918 c 128,-1,13
 556 918 556 918 591 902 c 0,14,15
 627 887 627 887 656 858 c 0,16,17
 684 830 684 830 700 793 c 0,18,19
 716 755 716 755 716 714 c 128,-1,20
 716 673 716 673 700 635 c 0,21,22
 682 595 682 595 656 570 c 0,23,24
 627 541 627 541 591 526 c 0,25,26
 552 511 552 511 512 511 c 0,27,28
 468 511 468 511 431 526 c 0,0,1
386 840 m 0,29,30
 358 807 358 807 348 783 c 0,31,32
 334 749 334 749 334 714 c 0,33,34
 334 681 334 681 348 645 c 0,35,36
 362 614 362 614 387 589 c 0,37,38
 409 564 409 564 443 552 c 0,39,40
 478 537 478 537 512 537 c 256,41,42
 546 537 546 537 580 552 c 0,43,44
 611 563 611 563 637 589 c 0,45,46
 661 615 661 615 674 645 c 0,47,48
 688 677 688 677 688 714 c 0,49,50
 688 752 688 752 674 783 c 0,51,52
 660 815 660 815 637 840 c 0,53,54
 609 865 609 865 580 878 c 0,55,56
 544 892 544 892 512 892 c 0,57,58
 477 892 477 892 443 878 c 0,59,60
 412 865 412 865 386 840 c 0,29,30
910 279 m 0,61,62
 924 244 924 244 931 204 c 0,63,64
 936 181 936 181 938 145 c 2,65,-1
 938 119 l 2,66,67
 937 112 937 112 933 110 c 0,68,69
 930 106 930 106 924 106 c 2,70,-1
 777 106 l 2,71,72
 770 106 770 106 767 110 c 0,73,74
 763 113 763 113 763 120 c 0,75,76
 763 125 763 125 767 128 c 0,77,78
 770 132 770 132 777 132 c 2,79,-1
 911 132 l 1,80,-1
 911 137 l 2,81,82
 911 141 911 141 909 175 c 0,83,84
 902 216 902 216 899 227 c 0,85,86
 881 292 881 292 842 334 c 0,87,88
 813 366 813 366 773 381 c 0,89,90
 732 396 732 396 680 396 c 2,91,-1
 342 396 l 2,92,93
 292 396 292 396 251 381 c 0,94,95
 209 366 209 366 180 334 c 0,96,97
 157 308 157 308 145 282 c 0,98,99
 134 261 134 261 124 227 c 0,100,101
 116 193 116 193 114 175 c 0,102,103
 111 157 111 157 111 137 c 2,104,-1
 111 132 l 1,105,-1
 675 132 l 2,106,107
 681 132 681 132 684 128 c 0,108,109
 688 125 688 125 688 120 c 0,110,111
 688 113 688 113 684 110 c 0,112,113
 681 106 681 106 675 106 c 2,114,-1
 99 106 l 2,115,116
 94 106 94 106 90 110 c 0,117,118
 86 112 86 112 85 119 c 2,119,-1
 85 145 l 2,120,121
 86 171 86 171 92 204 c 0,122,123
 110 299 110 299 161 353 c 0,124,125
 192 385 192 385 239 405 c 0,126,127
 284 424 284 424 343 424 c 2,128,-1
 680 424 l 2,129,130
 739 424 739 424 784 405 c 0,131,132
 833 385 833 385 862 353 c 0,133,134
 889 325 889 325 910 279 c 0,61,62
EndSplineSet
EndChar

StartChar: uniE034
Encoding: 57396 57396 49
Width: 957
GlyphClass: 2
Flags: W
LayerCount: 2
Fore
SplineSet
781 213 m 0,0,1
 797 213 797 213 812 219 c 0,2,3
 826 225 826 225 836 235 c 0,4,5
 847 246 847 246 853 260 c 0,6,7
 859 275 859 275 859 290 c 0,8,9
 859 306 859 306 853 321 c 0,10,11
 847 334 847 334 836 345 c 128,-1,12
 825 356 825 356 812 362 c 0,13,14
 797 368 797 368 781 368 c 0,15,16
 764 368 764 368 751 362 c 0,17,18
 737 356 737 356 726 345 c 0,19,20
 716 335 716 335 710 321 c 0,21,22
 704 306 704 306 704 290 c 256,23,24
 704 274 704 274 710 260 c 0,25,26
 718 244 718 244 726 235 c 128,-1,27
 734 226 734 226 751 219 c 0,28,29
 766 213 766 213 781 213 c 0,0,1
739 391 m 0,30,31
 758 400 758 400 781 400 c 256,32,33
 804 400 804 400 824 391 c 0,34,35
 844 383 844 383 859 368 c 0,36,37
 875 352 875 352 882 333 c 0,38,39
 891 313 891 313 891 290 c 0,40,41
 891 268 891 268 882 248 c 0,42,43
 875 229 875 229 859 213 c 0,44,45
 844 198 844 198 824 189 c 0,46,47
 802 181 802 181 781 181 c 0,48,49
 761 181 761 181 739 189 c 0,50,51
 719 198 719 198 704 213 c 128,-1,52
 689 228 689 228 680 248 c 0,53,54
 672 270 672 270 672 290 c 0,55,56
 672 311 672 311 680 333 c 0,57,58
 689 353 689 353 704 368 c 0,59,60
 720 384 720 384 739 391 c 0,30,31
325 490 m 0,61,62
 331 496 331 496 331 504 c 0,63,64
 330 511 330 511 324 517 c 0,65,66
 316 522 316 522 310 522 c 0,67,68
 302 521 302 521 297 514 c 0,69,70
 291 508 291 508 291 500 c 2,71,-1
 293 492 l 2,72,73
 294 489 294 489 297 486 c 2,74,-1
 300 484 l 1,75,-1
 304 482 l 1,76,-1
 311 482 l 2,77,78
 320 483 320 483 325 490 c 0,61,62
268 428 m 0,79,80
 277 430 277 430 283 437 c 0,81,82
 289 442 289 442 289 451 c 2,83,-1
 289 453 l 1,84,-1
 287 461 l 2,85,86
 285 465 285 465 282 468 c 0,87,88
 274 473 274 473 268 473 c 2,89,-1
 266 473 l 2,90,91
 256 472 256 472 251 465 c 0,92,93
 245 459 245 459 245 451 c 2,94,-1
 245 449 l 2,95,96
 246 439 246 439 253 434 c 0,97,98
 259 428 259 428 268 428 c 0,79,80
354 522 m 0,99,100
 359 513 359 513 360 503 c 0,101,102
 361 501 361 501 361 496 c 0,103,104
 361 494 361 494 359 486 c 0,105,106
 356 477 356 477 350 471 c 0,107,108
 342 462 342 462 332 459 c 0,109,110
 330 458 330 458 322 458 c 128,-1,111
 314 458 314 458 311 459 c 1,112,113
 315 452 315 452 315 440 c 2,114,-1
 315 436 l 2,115,116
 313 421 313 421 305 414 c 0,117,118
 298 407 298 407 291 403 c 128,-1,119
 284 399 284 399 273 399 c 0,120,121
 261 399 261 399 253 403 c 0,122,123
 244 407 244 407 236 415 c 0,124,125
 228 422 228 422 223 430 c 0,126,127
 217 439 217 439 215 449 c 2,128,-1
 215 454 l 2,129,130
 215 455 215 455 215.5 456.5 c 128,-1,131
 216 458 216 458 216.5 461 c 128,-1,132
 217 464 217 464 217 467 c 0,133,134
 219 476 219 476 226 483 c 0,135,136
 233 493 233 493 246 496 c 0,137,138
 256 498 256 498 257 498 c 0,139,140
 259 498 259 498 269 496 c 1,141,142
 266 503 266 503 266 512 c 2,143,-1
 266 516 l 2,144,145
 267 527 267 527 275 535 c 0,146,147
 282 542 282 542 289 546 c 0,148,149
 294 550 294 550 306 551 c 0,150,151
 311 550 311 550 318 548 c 2,152,-1
 325 547 l 2,153,154
 334 543 334 543 341 536 c 0,155,156
 350 528 350 528 354 522 c 0,99,100
785 281 m 1,157,-1
 785 316 l 1,158,-1
 784 314 l 1,159,-1
 763 281 l 1,160,-1
 785 281 l 1,157,-1
805 281 m 1,161,-1
 816 281 l 1,162,-1
 816 265 l 1,163,-1
 805 265 l 1,164,-1
 805 244 l 1,165,-1
 785 244 l 1,166,-1
 785 265 l 1,167,-1
 744 265 l 1,168,-1
 743 277 l 1,169,-1
 785 343 l 1,170,-1
 805 343 l 1,171,-1
 805 281 l 1,161,-1
540 182 m 0,172,173
 545 177 545 177 545 171 c 0,174,175
 545 164 545 164 541 160 c 1,176,-1
 541 159 l 1,177,178
 537 155 537 155 529 155 c 0,179,180
 522 155 522 155 518 159 c 0,181,182
 498 178 498 178 485 201 c 1,183,184
 424 178 424 178 364 178 c 2,185,-1
 359 178 l 2,186,187
 296 178 296 178 238 199 c 0,188,189
 181 220 181 220 134 258 c 0,190,191
 89 295 89 295 57 349 c 0,192,193
 25 402 25 402 13 464 c 0,194,195
 7 497 7 497 7 529 c 128,-1,196
 7 561 7 561 15 604 c 0,197,198
 29 673 29 673 68 727 c 0,199,200
 107 784 107 784 164 822 c 0,201,202
 222 861 222 861 293 875 c 0,203,204
 326 881 326 881 358 881 c 128,-1,205
 390 881 390 881 433 873 c 0,206,207
 502 859 502 859 556 820 c 0,208,209
 613 781 613 781 651 724 c 0,210,211
 690 666 690 666 704 595 c 1,212,213
 755 593 755 593 801 574 c 1,214,-1
 802 574 l 1,215,216
 853 551 853 551 885 516 c 0,217,218
 920 480 920 480 939 434 c 0,219,220
 957 388 957 388 957 338 c 0,221,222
 957 286 957 286 936 238 c 1,223,-1
 936 237 l 1,224,225
 917 192 917 192 882 157 c 0,226,227
 846 122 846 122 805 104 c 0,228,229
 764 85 764 85 714 82 c 2,230,-1
 703 82 l 2,231,232
 663 82 663 82 618 96 c 1,233,-1
 617 96 l 1,234,-1
 617 97 l 1,235,236
 611 99 611 99 608 105 c 0,237,238
 607 106 607 106 607 110 c 2,239,240
 607 110 607 110 608 112 c 0,241,242
 608 115 608 115 609 117 c 0,243,244
 611 123 611 123 617 126 c 0,245,246
 618 127 618 127 623 127 c 128,-1,247
 628 127 628 127 629 126 c 0,248,249
 660 116 660 116 694 114 c 2,250,-1
 699 114 l 2,251,252
 740 114 740 114 781 129 c 0,253,254
 825 147 825 147 854 175 c 0,255,256
 886 207 886 207 904 244 c 0,257,258
 924 284 924 284 925 331 c 2,259,-1
 925 336 l 2,260,261
 925 379 925 379 910 419 c 0,262,263
 892 463 892 463 864 492 c 0,264,265
 832 524 832 524 795 542 c 0,266,267
 756 561 756 561 708 562 c 1,268,269
 710 532 710 532 710 529 c 0,270,271
 710 482 710 482 696 432 c 0,272,273
 682 385 682 385 657 343 c 0,274,275
 631 302 631 302 595 269 c 0,276,277
 558 235 558 235 514 214 c 1,278,279
 515 212 515 212 540 182 c 0,172,173
234 234 m 0,280,281
 290 209 290 209 358 209 c 128,-1,282
 426 209 426 209 483 234 c 128,-1,283
 540 259 540 259 584 303 c 0,284,285
 628 346 628 346 653 405 c 0,286,287
 678 461 678 461 678 529 c 128,-1,288
 678 597 678 597 653 654 c 128,-1,289
 628 711 628 711 584 755 c 0,290,291
 540 800 540 800 482 824 c 0,292,293
 426 849 426 849 358 849 c 128,-1,294
 290 849 290 849 234 824 c 0,295,296
 176 800 176 800 132 755 c 0,297,298
 88 711 88 711 64 653 c 0,299,300
 38 592 38 592 38 529 c 0,301,302
 38 467 38 467 64 404 c 0,303,304
 88 347 88 347 132 303 c 0,305,306
 176 258 176 258 234 234 c 0,280,281
234 346 m 0,307,308
 262 335 262 335 288 335 c 0,309,310
 315 335 315 335 343 346 c 0,311,312
 368 356 368 356 388 376 c 128,-1,313
 408 396 408 396 418 421 c 0,314,315
 429 449 429 449 429 476 c 0,316,317
 429 501 429 501 418 531 c 0,318,319
 407 556 407 556 388 575 c 0,320,321
 368 595 368 595 343 606 c 0,322,323
 315 617 315 617 288 617 c 0,324,325
 260 617 260 617 233 605 c 0,326,327
 208 594 208 594 189 575 c 0,328,329
 169 555 169 555 158 530 c 0,330,331
 147 502 147 502 147 476 c 0,332,333
 147 446 147 446 159 421 c 0,334,335
 170 396 170 396 189 376 c 128,-1,336
 208 356 208 356 234 346 c 0,307,308
221 635 m 0,337,338
 250 648 250 648 288 648 c 0,339,340
 327 648 327 648 356 635 c 0,341,342
 386 622 386 622 410 598 c 0,343,344
 433 575 433 575 447 543 c 0,345,346
 461 509 461 509 461 476 c 0,347,348
 461 442 461 442 447 408 c 0,349,350
 433 376 433 376 410 353 c 0,351,352
 386 329 386 329 356 316 c 128,-1,353
 326 303 326 303 288 303 c 128,-1,354
 250 303 250 303 221 316 c 0,355,356
 192 328 192 328 166 353 c 0,357,358
 144 374 144 374 129 408 c 0,359,360
 116 437 116 437 116 476 c 0,361,362
 116 514 116 514 129 543 c 0,363,364
 144 577 144 577 166 598 c 0,365,366
 190 622 190 622 221 635 c 0,337,338
EndSplineSet
EndChar

StartChar: uniE035
Encoding: 57397 57397 50
Width: 1024
GlyphClass: 2
Flags: W
LayerCount: 2
Fore
SplineSet
843 421 m 2,0,-1
 843 503 l 1,1,-1
 898 503 l 1,2,-1
 898 527 l 1,3,-1
 843 527 l 1,4,-1
 843 603 l 2,5,6
 843 609 843 609 839 615 c 0,7,8
 835 620 835 620 830 622 c 2,9,-1
 828 622 l 1,10,-1
 828 687 l 2,11,12
 828 694 828 694 826 697 c 0,13,14
 825 702 825 702 820 707 c 0,15,16
 816 713 816 713 810 713 c 0,17,18
 806 716 806 716 799 716 c 2,19,-1
 768 716 l 2,20,21
 767 716 767 716 761 712 c 0,22,23
 758 708 758 708 758 703 c 0,24,25
 758 699 758 699 761 696 c 0,26,27
 765 692 765 692 768 692 c 2,28,-1
 799 692 l 2,29,30
 802 692 802 692 803 691 c 0,31,32
 805 689 805 689 805 687 c 2,33,-1
 805 337 l 2,34,35
 805 335 805 335 803 333 c 0,36,37
 802 332 802 332 799 332 c 2,38,-1
 114 332 l 2,39,40
 111 332 111 332 110 333 c 0,41,42
 108 335 108 335 108 337 c 2,43,-1
 108 687 l 2,44,45
 108 689 108 689 110 691 c 0,46,47
 111 692 111 692 114 692 c 2,48,-1
 716 692 l 2,49,50
 722 692 722 692 725 695 c 128,-1,51
 728 698 728 698 728 703 c 2,52,-1
 728 705 l 2,53,54
 728 708 728 708 726 712 c 0,55,56
 720 716 720 716 718 716 c 2,57,-1
 114 716 l 2,58,59
 109 716 109 716 103 713 c 0,60,61
 99 713 99 713 93 707 c 0,62,63
 88 702 88 702 87 697 c 0,64,65
 85 691 85 691 85 687 c 2,66,-1
 85 337 l 2,67,68
 85 333 85 333 87 327 c 0,69,70
 88 322 88 322 93 317 c 0,71,72
 99 311 99 311 103 311 c 0,73,74
 109 308 109 308 114 308 c 2,75,-1
 799 308 l 2,76,77
 805 308 805 308 811 311 c 0,78,79
 816 311 816 311 820 317 c 0,80,81
 825 322 825 322 826 327 c 0,82,83
 828 330 828 330 828 337 c 2,84,-1
 828 402 l 1,85,-1
 832 404 l 2,86,87
 837 407 837 407 840 412 c 0,88,89
 843 415 843 415 843 421 c 2,0,-1
900 666 m 0,90,91
 892 666 892 666 886 663 c 0,92,93
 876 658 876 658 873 655 c 0,94,95
 869 651 869 651 865 643 c 0,96,97
 863 638 863 638 863 628 c 0,98,99
 863 617 863 617 865 613 c 2,100,-1
 873 601 l 2,101,102
 878 596 878 596 886 593 c 0,103,104
 892 590 892 590 900 590 c 0,105,106
 909 590 909 590 915 593 c 0,107,108
 925 598 925 598 928 601 c 0,109,110
 931 605 931 605 935 613 c 0,111,112
 938 619 938 619 938 628 c 128,-1,113
 938 637 938 637 935 643 c 0,114,115
 932 651 932 651 928 655 c 0,116,117
 919 661 919 661 915 663 c 0,118,119
 909 666 909 666 900 666 c 0,90,91
912 513 m 1,120,-1
 912 607 l 2,121,122
 912 611 912 611 909 614 c 0,123,124
 908 616 908 616 901 618 c 0,125,126
 896 618 896 618 893 615 c 128,-1,127
 890 612 890 612 888 607 c 2,128,-1
 888 515 l 2,129,130
 888 514 888 514 890 510 c 0,131,132
 890 509 890 509 891 508 c 2,133,-1
 892 507 l 2,134,135
 893 505 893 505 898 503 c 2,136,-1
 904 503 l 2,137,138
 908 505 908 505 910 507 c 2,139,-1
 912 513 l 1,120,-1
321 646 m 0,140,141
 327 643 327 643 330 640 c 128,-1,142
 333 637 333 637 336 631 c 0,143,144
 336 629 336 629 337 626 c 2,145,-1
 338 621 l 1,146,-1
 338 403 l 2,147,148
 338 402 338 402 337.5 401 c 128,-1,149
 337 400 337 400 336.5 397.5 c 128,-1,150
 336 395 336 395 336 393 c 0,151,152
 333 387 333 387 330 384 c 128,-1,153
 327 381 327 381 321 378 c 0,154,155
 316 377 316 377 311 377 c 2,156,-1
 180 377 l 2,157,158
 174 377 174 377 169 378 c 2,159,-1
 160 384 l 1,160,-1
 154 393 l 2,161,162
 154 395 154 395 153 398 c 2,163,-1
 152 403 l 1,164,-1
 152 621 l 1,165,-1
 154 631 l 1,166,-1
 160 640 l 1,167,-1
 169 646 l 2,168,169
 174 647 174 647 180 647 c 2,170,-1
 311 647 l 2,171,172
 316 647 316 647 321 646 c 0,140,141
313 401 m 2,173,-1
 313 623 l 2,174,175
 313 624 313 624 311 624 c 2,176,-1
 180 624 l 2,177,178
 177 624 177 624 177 623 c 1,179,180
 176 623 176 623 176 621 c 2,181,-1
 176 403 l 2,182,183
 176 401 176 401 177 401 c 1,184,185
 177 400 177 400 180 400 c 2,186,-1
 311 400 l 2,187,188
 313 400 313 400 313 401 c 2,173,-1
533 646 m 2,189,-1
 542 640 l 1,190,-1
 547 631 l 2,191,192
 549 626 549 626 549 621 c 2,193,-1
 549 403 l 2,194,195
 549 398 549 398 547 393 c 2,196,-1
 542 384 l 1,197,-1
 533 378 l 2,198,199
 528 377 528 377 523 377 c 2,200,-1
 391 377 l 2,201,202
 385 377 385 377 381 378 c 2,203,-1
 372 384 l 1,204,-1
 366 393 l 2,205,206
 366 395 366 395 365 398 c 2,207,-1
 364 403 l 1,208,-1
 364 621 l 2,209,210
 364 622 364 622 364.5 623 c 128,-1,211
 365 624 365 624 365.5 626.5 c 128,-1,212
 366 629 366 629 366 631 c 2,213,-1
 372 640 l 1,214,-1
 381 646 l 2,215,216
 385 647 385 647 391 647 c 2,217,-1
 523 647 l 2,218,219
 528 647 528 647 533 646 c 2,189,-1
525 401 m 0,220,221
 526 401 526 401 526 403 c 2,222,-1
 526 621 l 2,223,224
 526 623 526 623 525 623 c 0,225,226
 524 624 524 624 523 624 c 2,227,-1
 391 624 l 2,228,229
 389 624 389 624 388 623 c 2,230,-1
 388 621 l 1,231,-1
 388 403 l 1,232,-1
 388 401 l 2,233,234
 389 400 389 400 391 400 c 2,235,-1
 523 400 l 2,236,237
 524 400 524 400 525 401 c 0,220,221
749 640 m 128,-1,239
 752 637 752 637 755 631 c 0,240,241
 757 621 757 621 757 621 c 1,242,-1
 757 403 l 2,243,244
 757 402 757 402 756.5 401 c 128,-1,245
 756 400 756 400 755.5 397.5 c 128,-1,246
 755 395 755 395 755 393 c 0,247,248
 752 387 752 387 749 384 c 128,-1,249
 746 381 746 381 740 378 c 0,250,251
 736 377 736 377 729 377 c 2,252,-1
 598 377 l 2,253,254
 593 377 593 377 588 378 c 0,255,256
 582 381 582 381 579 384 c 0,257,258
 578 387 578 387 573 393 c 0,259,260
 572 398 572 398 572 403 c 2,261,-1
 572 621 l 2,262,263
 572 626 572 626 573 631 c 0,264,265
 578 637 578 637 579 640 c 0,266,267
 582 643 582 643 588 646 c 0,268,269
 593 647 593 647 598 647 c 2,270,-1
 729 647 l 2,271,272
 736 647 736 647 740 646 c 0,273,238
 746 643 746 643 749 640 c 128,-1,239
733 401 m 2,274,-1
 733 403 l 1,275,-1
 733 621 l 1,276,-1
 733 623 l 2,277,278
 732 624 732 624 729 624 c 2,279,-1
 598 624 l 2,280,281
 596 624 596 624 596 623 c 1,282,283
 595 623 595 623 595 621 c 2,284,-1
 595 403 l 2,285,286
 595 401 595 401 596 401 c 1,287,288
 596 400 596 400 598 400 c 2,289,-1
 729 400 l 2,290,291
 732 400 732 400 733 401 c 2,274,-1
258 543 m 0,292,293
 263 542 263 542 269 536 c 0,294,295
 270 535 270 535 272.5 531.5 c 128,-1,296
 275 528 275 528 277 525 c 0,297,298
 279 517 279 517 279 512 c 0,299,300
 279 509 279 509 277 499 c 0,301,302
 275 497 275 497 272.5 493 c 128,-1,303
 270 489 270 489 269 488 c 0,304,305
 263 482 263 482 258 481 c 0,306,307
 252 478 252 478 245 478 c 128,-1,308
 238 478 238 478 232 481 c 0,309,310
 226 482 226 482 222 488 c 0,311,312
 217 491 217 491 214 499 c 0,313,314
 212 509 212 509 212 512 c 0,315,316
 212 517 212 517 214 525 c 0,317,318
 217 533 217 533 222 536 c 0,319,320
 226 542 226 542 232 543 c 0,321,322
 238 546 238 546 245 546 c 128,-1,323
 252 546 252 546 258 543 c 0,292,293
470 543 m 0,324,325
 475 542 475 542 481 536 c 0,326,327
 484 533 484 533 488 525 c 0,328,329
 491 519 491 519 491 512 c 128,-1,330
 491 505 491 505 488 499 c 0,331,332
 484 491 484 491 481 488 c 0,333,334
 475 482 475 482 470 481 c 0,335,336
 464 478 464 478 457 478 c 128,-1,337
 450 478 450 478 443 481 c 0,338,339
 440 482 440 482 432 488 c 0,340,341
 430 491 430 491 426 499 c 0,342,343
 423 507 423 507 423 512 c 0,344,345
 423 519 423 519 426 525 c 0,346,347
 430 533 430 533 432 536 c 0,348,349
 440 542 440 542 443 543 c 0,350,351
 451 546 451 546 457 546 c 0,352,353
 464 546 464 546 470 543 c 0,324,325
678 543 m 0,354,355
 682 542 682 542 688 536 c 0,356,357
 691 533 691 533 695 525 c 0,358,359
 698 518 698 518 698 512 c 0,360,361
 698 507 698 507 695 499 c 0,362,363
 691 491 691 491 688 488 c 0,364,365
 682 482 682 482 678 481 c 0,366,367
 672 478 672 478 664 478 c 0,368,369
 657 478 657 478 651 481 c 0,370,371
 646 482 646 482 640 488 c 0,372,373
 637 491 637 491 633 499 c 0,374,375
 630 505 630 505 630 512 c 128,-1,376
 630 519 630 519 633 525 c 0,377,378
 637 533 637 533 640 536 c 0,379,380
 646 542 646 542 651 543 c 0,381,382
 657 546 657 546 664 546 c 0,383,384
 672 546 672 546 678 543 c 0,354,355
EndSplineSet
EndChar

StartChar: uniE036
Encoding: 57398 57398 51
Width: 1031
GlyphClass: 2
Flags: W
LayerCount: 2
Fore
SplineSet
994 507 m 2,0,1
 999 508 999 508 1001 513 c 0,2,3
 1004 518 1004 518 1004 523 c 2,4,-1
 1004 525 l 1,5,-1
 1003 525 l 1,6,-1
 1003 528 l 1,7,8
 988 574 988 574 958 666 c 0,9,10
 948 696 948 696 932.5 743 c 128,-1,11
 917 790 917 790 911 805 c 0,12,13
 908 816 908 816 902 817 c 0,14,15
 896 819 896 819 895 819 c 128,-1,16
 894 819 894 819 886 817 c 2,17,-1
 803 789 l 2,18,19
 792 786 792 786 789 780 c 0,20,21
 788 779 788 779 788 774 c 2,22,-1
 788 772 l 2,23,24
 789 771 789 771 789.5 768.5 c 128,-1,25
 790 766 790 766 790 763 c 0,26,27
 797 740 797 740 808 710 c 0,28,29
 812 696 812 696 820 672 c 128,-1,30
 828 648 828 648 828 647 c 0,31,32
 840 616 840 616 846 595 c 0,33,34
 873 510 873 510 881 489 c 0,35,36
 884 482 884 482 889 477 c 0,37,38
 895 475 895 475 896 475 c 0,39,40
 900 475 900 475 901 476 c 2,41,-1
 994 507 l 2,0,1
848 492 m 0,42,43
 850 492 850 492 853 496 c 0,44,45
 854 497 854 497 854 499 c 128,-1,46
 854 501 854 501 853 502 c 0,47,48
 793 680 793 680 777 731 c 0,49,50
 775 735 775 735 773 737 c 2,51,-1
 771 737 l 2,52,53
 767 737 767 737 766 736 c 2,54,-1
 760 734 l 1,55,-1
 755 732 l 2,56,57
 752 732 752 732 750 731 c 0,58,59
 750 730 750 730 748 730 c 128,-1,60
 746 730 746 730 746 729 c 0,61,62
 745 728 745 728 743 728 c 0,63,64
 730 725 730 725 719 725 c 0,65,66
 688 726 688 726 656 734 c 0,67,68
 627 739 627 739 594 746 c 0,69,70
 560 750 560 750 532 752 c 2,71,-1
 527 752 l 2,72,73
 518 752 518 752 509 749 c 0,74,75
 495 744 495 744 487 738 c 0,76,77
 433 695 433 695 392 656 c 0,78,79
 387 651 387 651 382 642 c 0,80,81
 380 632 380 632 380 629 c 2,82,-1
 380 612 l 1,83,-1
 381 598 l 2,84,85
 382 591 382 591 382 571 c 2,86,-1
 382 556 l 2,87,88
 382 547 382 547 380 517 c 0,89,90
 380 515 380 515 382 509 c 1,91,-1
 388 506 l 1,92,-1
 401 506 l 2,93,94
 409 508 409 508 412 511 c 0,95,96
 421 515 421 515 429 527 c 0,97,98
 430 528 430 528 432 532 c 128,-1,99
 434 536 434 536 436.5 539.5 c 128,-1,100
 439 543 439 543 441 547 c 0,101,102
 448 562 448 562 449 573 c 0,103,104
 449 575 449 575 450 576 c 2,105,-1
 450 581 l 2,106,107
 451 583 451 583 451 586 c 2,108,-1
 452 593 l 1,109,-1
 452 596 l 1,110,-1
 454 600 l 2,111,112
 459 617 459 617 464 625 c 0,113,114
 471 634 471 634 483 638 c 0,115,116
 493 640 493 640 496 640 c 0,117,118
 503 640 503 640 505 639 c 0,119,120
 519 636 519 636 529 626 c 2,121,-1
 759 428 l 1,122,-1
 760 427 l 2,123,124
 761 427 761 427 761 426 c 0,125,126
 762 425 762 425 763 425 c 2,127,-1
 765 425 l 2,128,129
 768 425 768 425 769 426 c 2,130,-1
 777 431 l 1,131,-1
 785 437 l 2,132,133
 786 438 786 438 800 448 c 0,134,135
 816 462 816 462 827 475 c 0,136,137
 834 487 834 487 848 492 c 0,42,43
773 342 m 0,138,139
 781 353 781 353 781 361 c 2,140,-1
 781 365 l 2,141,142
 780 377 780 377 768 389 c 0,143,144
 679 467 679 467 619 518 c 0,145,146
 612 525 612 525 564 566 c 2,147,-1
 536 590 l 2,148,149
 533 592 533 592 524 600 c 128,-1,150
 515 608 515 608 508 614 c 2,151,-1
 507 615 l 2,152,153
 502 618 502 618 498 618 c 0,154,155
 492 618 492 618 489 614 c 0,156,157
 483 610 483 610 479 601 c 0,158,159
 475 594 475 594 475 585 c 0,160,161
 474 565 474 565 467 547 c 0,162,163
 460 528 460 528 448 513 c 0,164,165
 436 497 436 497 422 489 c 0,166,167
 409 482 409 482 392 482 c 2,168,-1
 388 482 l 2,169,170
 373 484 373 484 364 493 c 0,171,172
 357 500 357 500 357 511 c 2,173,-1
 357 516 l 2,174,175
 359 558 359 558 359 570 c 0,176,177
 358 575 358 575 358 597 c 2,178,-1
 357 610 l 1,179,-1
 356 624 l 1,180,-1
 356 628 l 2,181,182
 356 638 356 638 361 651 c 0,183,184
 364 661 364 661 377 674 c 0,185,186
 387 684 387 684 392 687 c 2,187,-1
 395 691 l 1,188,-1
 399 694 l 2,189,190
 402 697 402 697 404 698 c 2,191,-1
 407 701 l 1,192,193
 405 703 405 703 401 703 c 2,194,-1
 399 703 l 2,195,196
 394 702 394 702 379 702 c 0,197,198
 362 702 362 702 348 705 c 0,199,200
 320 711 320 711 301 727 c 1,201,-1
 299 727 l 2,202,203
 298 728 298 728 297 728 c 0,204,205
 295 730 295 730 293 730 c 2,206,-1
 292 730 l 2,207,208
 289 730 289 730 287 725 c 0,209,210
 283 718 283 718 271 694.5 c 128,-1,211
 259 671 259 671 252 657 c 0,212,213
 238 632 238 632 210 577 c 0,214,215
 188 534 188 534 174 508 c 0,216,217
 173 507 173 507 173 504 c 2,218,-1
 173 502 l 2,219,220
 173 499 173 499 177 498 c 0,221,222
 186 494 186 494 193 487 c 0,223,224
 200 483 200 483 203 472 c 0,225,226
 210 460 210 460 213 457 c 128,-1,227
 216 454 216 454 217 452 c 2,228,-1
 219 450 l 2,229,230
 221 448 221 448 222 448 c 0,231,232
 224 448 224 448 226 450 c 2,233,-1
 228 452 l 2,234,235
 229 453 229 453 231 456 c 0,236,237
 237 463 237 463 245 468 c 0,238,239
 250 472 250 472 262 473 c 2,240,-1
 267 473 l 2,241,242
 276 473 276 473 279 472 c 0,243,244
 289 470 289 470 295 464 c 0,245,246
 308 456 308 456 315 440 c 1,247,248
 329 452 329 452 343 454 c 2,249,-1
 349 454 l 2,250,251
 362 454 362 454 372 448 c 0,252,253
 387 440 387 440 394 427 c 0,254,255
 398 420 398 420 398 408 c 0,256,257
 398 400 398 400 397 397 c 0,258,259
 397 394 397 394 399 392 c 2,260,-1
 401 392 l 1,261,-1
 403 391 l 1,262,-1
 404 391 l 2,263,264
 416 389 416 389 427 381 c 0,265,266
 438 374 438 374 442 363 c 0,267,268
 446 355 446 355 446 341 c 0,269,270
 445 328 445 328 438 318 c 0,271,272
 438 316 438 316 437 315 c 256,273,274
 436 314 436 314 436 313 c 0,275,276
 436 311 436 311 437 310 c 0,277,278
 441 310 441 310 449 306 c 0,279,280
 460 302 460 302 467 294 c 128,-1,281
 474 286 474 286 476 276 c 0,282,283
 478 268 478 268 478 266 c 0,284,285
 478 265 478 265 476 255 c 0,286,287
 475 245 475 245 467 236 c 0,288,289
 466 235 466 235 466 232 c 2,290,-1
 466 231 l 2,291,292
 466 230 466 230 468 228 c 2,293,-1
 470 227 l 2,294,295
 471 226 471 226 472 224.5 c 128,-1,296
 473 223 473 223 474 222 c 0,297,298
 476 221 476 221 478.5 219 c 128,-1,299
 481 217 481 217 482 217 c 2,300,-1
 488 211 l 1,301,-1
 495 206 l 2,302,303
 506 197 506 197 516 197 c 0,304,305
 527 198 527 198 536 207 c 0,306,307
 543 214 543 214 543 226 c 2,308,-1
 543 228 l 2,309,310
 542 241 542 241 532 249 c 0,311,312
 525 255 525 255 516 263 c 128,-1,313
 507 271 507 271 504 273 c 2,314,-1
 476 297 l 2,315,316
 474 298 474 298 469 305 c 0,317,318
 467 311 467 311 467 312 c 0,319,320
 467 316 467 316 470 319 c 0,321,322
 472 322 472 322 477 324 c 2,323,-1
 479 324 l 2,324,325
 480 324 480 324 482 323 c 128,-1,326
 484 322 484 322 485 322 c 2,327,-1
 497 313 l 2,328,329
 510 303 510 303 538 278 c 2,330,-1
 559 260 l 2,331,332
 571 250 571 250 580 242 c 0,333,334
 585 235 585 235 595 234 c 2,335,-1
 599 234 l 2,336,337
 607 234 607 234 613 237 c 0,338,339
 619 241 619 241 623 247 c 128,-1,340
 627 253 627 253 628 260 c 0,341,342
 628 263 628 263 626 273 c 0,343,344
 623 280 623 280 616 286 c 0,345,346
 610 290 610 290 576 320 c 2,347,-1
 556 338 l 1,348,-1
 536 355 l 1,349,-1
 528 361 l 1,350,-1
 521 368 l 2,351,352
 521 369 521 369 520 369 c 0,353,354
 517 374 517 374 517 377 c 0,355,356
 517 382 517 382 521 386 c 0,357,358
 524 390 524 390 529 390 c 2,359,-1
 531 390 l 2,360,361
 532 390 532 390 538 388 c 2,362,-1
 540 386 l 2,363,364
 542 385 542 385 544 383 c 2,365,-1
 651 290 l 2,366,367
 662 281 662 281 670 280 c 2,368,-1
 673 280 l 2,369,370
 682 280 682 280 689 284 c 0,371,372
 699 289 699 289 703 298 c 0,373,374
 705 308 705 308 705 309 c 0,375,376
 705 316 705 316 704 318 c 0,377,378
 703 327 703 327 694 334 c 0,379,380
 682 344 682 344 667 358 c 2,381,-1
 640 381 l 2,382,383
 592 422 592 422 585 429 c 0,384,385
 576 436 576 436 576 443 c 0,386,387
 576 447 576 447 580 451 c 0,388,389
 583 455 583 455 587 455 c 2,390,-1
 589 455 l 2,391,392
 594 455 594 455 602 449 c 2,393,-1
 604 447 l 1,394,-1
 727 341 l 2,395,396
 737 331 737 331 751 331 c 0,397,398
 765 333 765 333 773 342 c 0,138,139
446 247 m 0,399,400
 453 254 453 254 453 264 c 0,401,402
 451 273 451 273 444 280 c 128,-1,403
 437 287 437 287 428 287 c 2,404,-1
 426 287 l 2,405,406
 418 287 418 287 410 278 c 2,407,-1
 407 275 l 1,408,-1
 404 271 l 2,409,410
 402 269 402 269 400 266 c 2,411,-1
 398 264 l 2,412,413
 394 260 394 260 393 254 c 0,414,415
 395 245 395 245 399 238 c 0,416,417
 403 232 403 232 412 228 c 2,418,-1
 420 226 l 2,419,420
 424 226 424 226 425 227 c 0,421,422
 431 228 431 228 437 236 c 2,423,-1
 438 238 l 2,424,425
 440 240 440 240 442 242 c 0,426,427
 443 244 443 244 446 247 c 0,399,400
365 272 m 0,428,429
 372 274 372 274 377 279 c 0,430,431
 380 282 380 282 393.5 298.5 c 128,-1,432
 407 315 407 315 417 327 c 0,433,434
 422 335 422 335 422 342 c 2,435,-1
 422 345 l 2,436,437
 420 356 420 356 413 362 c 128,-1,438
 406 368 406 368 397 368 c 2,439,-1
 395 368 l 2,440,441
 384 366 384 366 378 359 c 0,442,443
 361 338 361 338 359 335 c 2,444,-1
 349 324 l 2,445,446
 344 317 344 317 339 312 c 0,447,448
 334 304 334 304 334 299 c 0,449,450
 334 290 334 290 338 283 c 128,-1,451
 342 276 342 276 350 273 c 0,452,453
 358 271 358 271 359 271 c 0,454,455
 364 271 364 271 365 272 c 0,428,429
305 320 m 2,456,457
 315 321 315 321 322 330 c 2,458,-1
 333 345 l 1,459,-1
 345 360 l 2,460,461
 346 361 346 361 358 375 c 0,462,463
 361 379 361 379 364.5 383.5 c 128,-1,464
 368 388 368 388 369 389 c 0,465,466
 372 392 372 392 373 397 c 0,467,468
 375 405 375 405 375 406 c 0,469,470
 375 408 375 408 373 416 c 0,471,472
 368 425 368 425 358 429 c 0,473,474
 350 431 350 431 349 431 c 0,475,476
 344 431 344 431 343 430 c 0,477,478
 336 427 336 427 331 421 c 0,479,480
 302 387 302 387 282 361 c 0,481,482
 282 360 282 360 281 360 c 0,483,484
 276 352 276 352 276 345 c 2,485,-1
 276 342 l 2,486,487
 277 332 277 332 286 325 c 1,488,-1
 287 325 l 1,489,490
 295 320 295 320 302 320 c 2,491,-1
 305 320 l 2,456,457
239 382 m 0,492,493
 246 378 246 378 254 378 c 0,494,495
 258 379 258 379 265 385 c 0,496,497
 272 390 272 390 278 398 c 0,498,499
 284 404 284 404 289 413 c 0,500,501
 294 421 294 421 294 425 c 0,502,503
 292 432 292 432 288 440 c 0,504,505
 283 445 283 445 275 449 c 2,506,-1
 267 451 l 2,507,508
 262 451 262 451 261 450 c 0,509,510
 254 448 254 448 250 441 c 0,511,512
 249 440 249 440 231 419 c 0,513,514
 225 408 225 408 224 406 c 2,515,-1
 224 404 l 2,516,517
 224 399 224 399 227 393 c 0,518,519
 232 385 232 385 239 382 c 0,492,493
932 814 m 0,520,521
 978 678 978 678 1025 535 c 0,522,523
 1028 528 1028 528 1028 520 c 0,524,525
 1028 511 1028 511 1024 504 c 0,526,527
 1016 490 1016 490 1000 484 c 0,528,529
 960 471 960 471 909 454 c 0,530,531
 901 452 901 452 898 452 c 0,532,533
 896 452 896 452 886 454 c 0,534,535
 872 459 872 459 866 468 c 0,536,537
 862 472 862 472 861 472 c 128,-1,538
 860 472 860 472 859 471 c 256,539,540
 858 470 858 470 856 470 c 0,541,542
 852 469 852 469 849 464 c 0,543,544
 829 436 829 436 789 411 c 1,545,-1
 785 407 l 2,546,547
 785 405 785 405 788 402 c 0,548,549
 798 392 798 392 803 378 c 0,550,551
 805 364 805 364 805 362 c 0,552,553
 805 353 805 353 804 350 c 0,554,555
 801 339 801 339 795 330 c 0,556,557
 787 322 787 322 779 316 c 0,558,559
 770 310 770 310 760 309 c 0,560,561
 758 308 758 308 749 308 c 0,562,563
 741 308 741 308 738 309 c 0,564,565
 736 310 736 310 732 310 c 0,566,567
 730 308 730 308 729 304 c 0,568,569
 727 291 727 291 720 281 c 0,570,571
 714 271 714 271 705 265 c 0,572,573
 695 259 695 259 683 257 c 0,574,575
 681 256 681 256 675 256 c 0,576,577
 666 256 666 256 659 259 c 0,578,579
 658 260 658 260 656 260 c 128,-1,580
 654 260 654 260 653 259 c 128,-1,581
 652 258 652 258 651 254 c 0,582,583
 649 245 649 245 644 236 c 0,584,585
 639 228 639 228 631 221 c 0,586,587
 624 215 624 215 613 212 c 0,588,589
 603 210 603 210 601 210 c 0,590,591
 595 210 595 210 593 211 c 0,592,593
 583 212 583 212 574 217 c 0,594,595
 572 218 572 218 571 218 c 0,596,597
 570 219 570 219 569 219 c 2,598,-1
 568 219 l 1,599,-1
 566 214 l 2,600,601
 563 201 563 201 554 191 c 0,602,603
 548 185 548 185 538 179 c 0,604,605
 526 174 526 174 519 174 c 2,606,-1
 514 174 l 2,607,608
 513 174 513 174 499 176 c 0,609,610
 488 179 488 179 481 186 c 0,611,612
 471 194 471 194 467 198 c 2,613,-1
 461 204 l 1,614,-1
 454 210 l 1,615,-1
 450 212 l 1,616,-1
 449 212 l 2,617,618
 446 212 446 212 445 211 c 0,619,620
 437 204 437 204 424 203 c 2,621,-1
 420 203 l 2,622,623
 409 203 409 203 402 207 c 0,624,625
 392 211 392 211 383 220 c 128,-1,626
 374 229 374 229 372 242 c 0,627,628
 370 246 370 246 369 247 c 128,-1,629
 368 248 368 248 363 248 c 2,630,-1
 358 248 l 1,631,-1
 344 250 l 2,632,633
 334 254 334 254 328 259 c 0,634,635
 321 266 321 266 317 273 c 0,636,637
 312 282 312 282 311 291 c 0,638,639
 311 295 311 295 310 296 c 128,-1,640
 309 297 309 297 305 297 c 2,641,-1
 300 297 l 2,642,643
 292 297 292 297 284 300 c 0,644,645
 274 303 274 303 267 310 c 128,-1,646
 260 317 260 317 257 326 c 0,647,648
 253 334 253 334 253 348 c 0,649,650
 253 353 253 353 252 354 c 128,-1,651
 251 355 251 355 247 355 c 0,652,653
 244 355 244 355 241 356 c 128,-1,654
 238 357 238 357 235 358 c 128,-1,655
 232 359 232 359 231 359 c 0,656,657
 222 363 222 363 215 370 c 0,658,659
 212 373 212 373 205 385 c 0,660,661
 202 394 202 394 202 404 c 0,662,663
 202 413 202 413 205 422 c 0,664,665
 206 423 206 423 206 425 c 2,666,-1
 206 427 l 2,667,668
 206 429 206 429 204 431 c 0,669,670
 188 449 188 449 179 467 c 0,671,672
 178 470 178 470 172 474 c 0,673,674
 171 475 171 475 170 475 c 0,675,676
 169 476 169 476 167 476 c 2,677,-1
 165 477 l 2,678,679
 164 478 164 478 163 478 c 0,680,681
 162 479 162 479 161 479 c 128,-1,682
 160 479 160 479 159 478 c 2,683,-1
 157 476 l 1,684,-1
 157 475 l 1,685,686
 145 464 145 464 133 463 c 2,687,-1
 130 463 l 2,688,689
 120 463 120 463 108 469 c 0,690,691
 104 471 104 471 94.5 475.5 c 128,-1,692
 85 480 85 480 65.5 490.5 c 128,-1,693
 46 501 46 501 28 510 c 0,694,695
 10 518 10 518 5 534 c 0,696,697
 3 544 3 544 3 546 c 0,698,699
 3 556 3 556 9 567 c 0,700,701
 40 625 40 625 45 635 c 2,702,-1
 50 644 l 1,703,-1
 54 653 l 2,704,705
 60 664 60 664 63 671 c 0,706,707
 74 690 74 690 81 704 c 0,708,709
 81 705 81 705 82 706 c 0,710,711
 84 710 84 710 89 711 c 2,712,-1
 91 711 l 2,713,714
 92 711 92 711 98 709 c 0,715,716
 102 707 102 707 103 702 c 2,717,-1
 103 700 l 2,718,719
 103 699 103 699 101 693 c 2,720,-1
 99 690 l 2,721,722
 97 686 97 686 93 677.5 c 128,-1,723
 89 669 89 669 84 661 c 0,724,725
 81 654 81 654 75 643 c 2,726,-1
 71 635 l 1,727,-1
 66 626 l 2,728,729
 62 618 62 618 49.5 593.5 c 128,-1,730
 37 569 37 569 31 558 c 0,731,732
 27 551 27 551 27 546 c 0,733,734
 27 543 27 543 28 542 c 0,735,736
 29 536 29 536 40 531 c 2,737,-1
 117 490 l 2,738,739
 122 487 122 487 128 487 c 128,-1,740
 134 487 134 487 138 490 c 0,741,742
 142 494 142 494 144 499 c 0,743,744
 147 505 147 505 161.5 533.5 c 128,-1,745
 176 562 176 562 210 627 c 128,-1,746
 244 692 244 692 277 756 c 0,747,748
 280 764 280 764 280 768 c 2,749,-1
 280 771 l 2,750,751
 279 777 279 777 268 782 c 0,752,753
 255 789 255 789 241.5 796 c 128,-1,754
 228 803 228 803 219.5 807 c 128,-1,755
 211 811 211 811 204 814.5 c 128,-1,756
 197 818 197 818 194 820 c 2,757,-1
 191 822 l 2,758,759
 184 826 184 826 178 826 c 0,760,761
 175 826 175 826 174 825 c 0,762,763
 169 823 169 823 162 812 c 2,764,-1
 159 807 l 1,765,-1
 157 802 l 2,766,767
 149 786 149 786 142 773 c 0,768,769
 140 768 140 768 135 767 c 2,770,-1
 132 767 l 2,771,772
 127 767 127 767 126 768 c 0,773,774
 121 770 121 770 120 775 c 2,775,-1
 120 778 l 2,776,777
 120 783 120 783 121 784 c 2,778,-1
 143 825 l 2,779,780
 151 843 151 843 167 848 c 0,781,782
 175 850 175 850 177 850 c 0,783,784
 188 850 188 850 201 843 c 2,785,-1
 279 803 l 2,786,787
 294 796 294 796 300 785 c 0,788,789
 304 778 304 778 304 767 c 0,790,791
 304 760 304 760 303 758 c 2,792,-1
 303 753 l 1,793,-1
 306 750 l 2,794,795
 313 748 313 748 325 741 c 0,796,797
 327 740 327 740 333.5 736.5 c 128,-1,798
 340 733 340 733 344 731 c 0,799,800
 354 728 354 728 358 727 c 2,801,-1
 401 727 l 2,802,803
 404 726 404 726 414 726 c 0,804,805
 428 726 428 726 436 730 c 0,806,807
 452 736 452 736 468 752 c 0,808,809
 483 767 483 767 504 772 c 0,810,811
 515 776 515 776 534 776 c 0,812,813
 544 776 544 776 547 775 c 0,814,815
 577 772 577 772 614 766 c 0,816,817
 627 764 627 764 646 760 c 2,818,-1
 663 757 l 1,819,-1
 679 754 l 1,820,-1
 682 754 l 2,821,822
 683 754 683 754 685 753 c 128,-1,823
 687 752 687 752 688 752 c 2,824,-1
 694 752 l 1,825,-1
 701 750 l 2,826,827
 707 750 707 750 708 749 c 0,828,829
 710 748 710 748 717 748 c 0,830,831
 726 748 726 748 736 751 c 2,832,-1
 738 752 l 2,833,834
 740 752 740 752 742 752 c 0,835,836
 744 753 744 753 746.5 754 c 128,-1,837
 749 755 749 755 750 755 c 2,838,-1
 756 758 l 1,839,-1
 760 758 l 1,840,-1
 761 759 l 2,841,842
 762 760 762 760 763 760 c 2,843,-1
 766 763 l 2,844,845
 766 764 766 764 765 764 c 1,846,-1
 765 773 l 2,847,848
 765 782 765 782 770 794 c 0,849,850
 778 805 778 805 794 811 c 2,851,-1
 881 840 l 2,852,853
 884 840 884 840 887 840.5 c 128,-1,854
 890 841 890 841 892 841.5 c 128,-1,855
 894 842 894 842 895 842 c 0,856,857
 905 842 905 842 912 838 c 0,858,859
 927 831 927 831 932 814 c 0,520,521
EndSplineSet
EndChar

StartChar: uniE037
Encoding: 57399 57399 52
Width: 1024
GlyphClass: 2
Flags: W
LayerCount: 2
Fore
SplineSet
160 439 m 1,0,-1
 167 437 l 1,1,-1
 197 432 l 1,2,-1
 212 429 l 1,3,-1
 220 427 l 2,4,5
 227 426 227 426 273 424 c 2,6,-1
 296 423 l 1,7,-1
 307 422 l 1,8,-1
 319 422 l 1,9,-1
 338 421 l 1,10,-1
 347 420 l 1,11,-1
 380 420 l 1,12,-1
 392 419 l 1,13,-1
 596 419 l 2,14,15
 602 419 602 419 671 427 c 2,16,-1
 700 432 l 1,17,-1
 730 436 l 1,18,-1
 728 439 l 1,19,-1
 727 441 l 1,20,-1
 726 442 l 1,21,-1
 724 445 l 1,22,-1
 723 447 l 1,23,-1
 722 448 l 1,24,-1
 722 452 l 1,25,-1
 723 454 l 1,26,-1
 723 456 l 1,27,-1
 724 459 l 1,28,-1
 724 461 l 1,29,30
 725 461 725 461 727 463 c 2,31,-1
 728 464 l 1,32,-1
 728 465 l 1,33,-1
 729 465 l 1,34,-1
 732 468 l 1,35,-1
 941 468 l 1,36,-1
 941 469 l 1,37,-1
 943 469 l 1,38,-1
 944 468 l 1,39,-1
 951 477 l 1,40,-1
 954 481 l 1,41,-1
 956 483 l 2,42,43
 960 491 960 491 961 496 c 2,44,-1
 962 502 l 1,45,-1
 963 505 l 1,46,-1
 964 507 l 1,47,-1
 35 507 l 1,48,-1
 42 486 l 2,49,50
 44 483 44 483 60 474 c 2,51,-1
 72 468 l 1,52,-1
 76 465 l 1,53,-1
 92 457 l 1,54,-1
 100 452 l 1,55,-1
 104 450 l 2,56,57
 110 448 110 448 138 443 c 2,58,-1
 152 440 l 1,59,-1
 160 439 l 1,0,-1
221 340 m 2,60,61
 229 337 229 337 274 334 c 2,62,-1
 297 332 l 1,63,-1
 319 330 l 1,64,-1
 339 328 l 1,65,-1
 348 327 l 1,66,-1
 353 327 l 2,67,68
 371 327 371 327 381 326 c 2,69,-1
 398 326 l 1,70,-1
 404 325 l 1,71,-1
 432 325 l 1,72,-1
 437 324 l 1,73,-1
 618 324 l 2,74,75
 633 324 633 324 705 347 c 2,76,-1
 740 358 l 1,77,-1
 757 364 l 1,78,-1
 774 369 l 1,79,-1
 762 388 l 1,80,-1
 756 397 l 1,81,-1
 753 402 l 1,82,-1
 750 406 l 1,83,-1
 686 396 l 1,84,-1
 653 391 l 1,85,-1
 637 388 l 2,86,87
 607 386 607 386 556 386 c 2,88,-1
 293 386 l 2,89,90
 266 386 266 386 213 395 c 2,91,-1
 187 400 l 1,92,-1
 174 403 l 1,93,-1
 161 405 l 1,94,-1
 126 411 l 1,95,-1
 108 415 l 1,96,-1
 100 416 l 2,97,98
 93 417 93 417 71 429 c 2,99,-1
 62 435 l 1,100,-1
 52 441 l 1,101,-1
 64 420 l 1,102,-1
 66 416 l 2,103,104
 68 412 68 412 82 402 c 2,105,-1
 89 397 l 1,106,-1
 93 395 l 1,107,-1
 97 392 l 1,108,-1
 111 382 l 1,109,-1
 119 376 l 1,110,-1
 122 374 l 2,111,112
 132 369 132 369 147 364 c 2,113,-1
 158 360 l 1,114,-1
 164 359 l 1,115,-1
 169 357 l 1,116,-1
 214 342 l 1,117,-1
 221 340 l 2,60,61
217 311 m 1,118,-1
 217 298 l 2,119,120
 217 295 217 295 218 294 c 2,121,-1
 219 292 l 1,122,-1
 219 291 l 1,123,-1
 221 288 l 1,124,-1
 221 286 l 1,125,-1
 222 286 l 1,126,127
 222 285 222 285 224 283 c 2,128,-1
 225 281 l 1,129,-1
 226 281 l 1,130,-1
 226 280 l 1,131,-1
 229 278 l 1,132,-1
 230 277 l 1,133,-1
 230 276 l 1,134,-1
 234 274 l 1,135,-1
 236 274 l 1,136,-1
 237 273 l 1,137,-1
 240 272 l 1,138,-1
 241 271 l 1,139,-1
 500 271 l 1,140,-1
 500 292 l 1,141,-1
 334 292 l 2,142,143
 312 292 312 292 264 301 c 2,144,-1
 241 306 l 1,145,-1
 229 309 l 1,146,-1
 217 311 l 1,118,-1
851 312 m 1,147,-1
 862 295 l 1,148,-1
 983 295 l 1,149,-1
 956 365 l 1,150,-1
 943 400 l 1,151,-1
 929 436 l 1,152,-1
 769 436 l 1,153,-1
 816 365 l 1,154,-1
 839 330 l 1,155,-1
 851 312 l 1,147,-1
943 578 m 1,156,-1
 734 578 l 1,157,-1
 731 580 l 1,158,-1
 729 582 l 1,159,-1
 726 584 l 1,160,-1
 725 585 l 1,161,-1
 723 589 l 1,162,-1
 723 592 l 1,163,-1
 722 595 l 1,164,-1
 722 597 l 1,165,-1
 724 601 l 1,166,-1
 724 602 l 1,167,-1
 725 603 l 1,168,-1
 725 604 l 1,169,-1
 750 641 l 1,170,-1
 768 668 l 1,171,-1
 774 678 l 1,172,-1
 705 700 l 1,173,-1
 671 711 l 1,174,-1
 653 717 l 2,175,176
 633 722 633 722 563 722 c 2,177,-1
 509 722 l 1,178,-1
 491 723 l 1,179,-1
 333 723 l 2,180,181
 310 723 310 723 256 708 c 2,182,-1
 229 700 l 1,183,-1
 216 696 l 1,184,-1
 202 693 l 1,185,-1
 148 678 l 1,186,-1
 121 670 l 1,187,-1
 107 666 l 2,188,189
 93 663 93 663 74 632 c 2,190,-1
 64 617 l 1,191,-1
 60 610 l 1,192,-1
 55 602 l 1,193,-1
 74 613 l 1,194,-1
 84 618 l 1,195,-1
 88 621 l 2,196,197
 94 624 94 624 127 631 c 2,198,-1
 144 634 l 1,199,-1
 152 636 l 1,200,-1
 161 637 l 1,201,-1
 248 655 l 1,202,-1
 263 658 l 2,203,204
 277 661 277 661 384 661 c 2,205,-1
 561 661 l 2,206,207
 580 661 580 661 613 657 c 2,208,-1
 633 655 l 1,209,-1
 644 654 l 1,210,-1
 654 653 l 1,211,-1
 660 653 l 1,212,-1
 665 648 l 1,213,-1
 665 647 l 1,214,-1
 667 645 l 1,215,-1
 669 644 l 1,216,-1
 669 643 l 2,217,218
 670 642 670 642 670 639 c 2,219,-1
 670 632 l 1,220,-1
 669 631 l 1,221,-1
 669 630 l 2,222,223
 669 629 669 629 667 627 c 2,224,-1
 666 625 l 1,225,-1
 665 625 l 1,226,-1
 660 620 l 1,227,-1
 652 620 l 1,228,-1
 611 624 l 1,229,-1
 581 627 l 2,230,231
 576 628 576 628 531 628 c 2,232,-1
 289 628 l 2,233,234
 266 628 266 628 202 614 c 2,235,-1
 173 607 l 1,236,-1
 159 604 l 1,237,-1
 144 600 l 1,238,-1
 98 589 l 1,239,-1
 75 584 l 1,240,-1
 64 581 l 2,241,242
 51 578 51 578 44 559 c 2,243,-1
 40 549 l 1,244,-1
 38 545 l 1,245,-1
 36 540 l 1,246,-1
 964 540 l 1,247,-1
 961 551 l 1,248,-1
 959 556 l 1,249,-1
 959 559 l 1,250,-1
 958 560 l 1,251,-1
 957 562 l 2,252,253
 956 564 956 564 955 564 c 1,254,255
 955 565 955 565 953.5 567 c 128,-1,256
 952 569 952 569 951 570 c 2,257,-1
 945 576 l 1,258,-1
 943 579 l 1,259,-1
 943 578 l 1,156,-1
977 734 m 1,260,-1
 983 752 l 1,261,-1
 862 752 l 1,262,-1
 816 681 l 1,263,-1
 793 646 l 1,264,-1
 781 629 l 1,265,-1
 769 611 l 1,266,-1
 929 611 l 1,267,-1
 956 681 l 1,268,-1
 970 717 l 1,269,-1
 977 734 l 1,260,-1
262 750 m 2,270,271
 280 755 280 755 384 755 c 2,272,-1
 627 755 l 2,273,274
 646 755 646 755 719 731 c 2,275,-1
 756 718 l 1,276,-1
 775 712 l 1,277,-1
 793 706 l 1,278,-1
 816 742 l 1,279,-1
 828 760 l 1,280,-1
 834 768 l 1,281,-1
 840 777 l 1,282,-1
 841 779 l 1,283,-1
 844 782 l 1,284,-1
 845 782 l 1,285,-1
 845 783 l 1,286,-1
 846 783 l 1,287,-1
 848 784 l 1,288,-1
 849 784 l 1,289,-1
 849 785 l 1,290,-1
 1012 785 l 2,291,292
 1013 785 1013 785 1016 782 c 2,293,-1
 1017 781 l 1,294,-1
 1018 781 l 1,295,-1
 1018 780 l 1,296,-1
 1021 778 l 1,297,-1
 1022 776 l 2,298,299
 1023 775 1023 775 1023 772 c 2,300,-1
 1023 766 l 2,301,302
 1023 765 1023 765 1022 764 c 2,303,-1
 1022 763 l 1,304,-1
 977 646 l 1,305,-1
 970 626 l 1,306,-1
 963 607 l 1,307,-1
 990 577 l 1,308,-1
 994 572 l 2,309,310
 999 567 999 567 999 545 c 2,311,-1
 999 486 l 2,312,313
 999 480 999 480 981 460 c 2,314,-1
 972 450 l 1,315,-1
 967 445 l 1,316,-1
 963 440 l 1,317,-1
 992 362 l 1,318,-1
 1007 323 l 1,319,-1
 1014 304 l 1,320,-1
 1022 284 l 1,321,-1
 1023 281 l 1,322,-1
 1024 279 l 2,323,324
 1024 276 1024 276 1023 275 c 2,325,-1
 1022 273 l 1,326,-1
 1022 272 l 1,327,-1
 1021 272 l 1,328,-1
 1020 269 l 1,329,-1
 1019 267 l 1,330,-1
 1019 266 l 1,331,-1
 1016 264 l 1,332,-1
 1014 264 l 1,333,-1
 1013 263 l 1,334,-1
 1011 263 l 1,335,-1
 1010 262 l 1,336,-1
 850 262 l 1,337,-1
 848 263 l 1,338,-1
 847 263 l 1,339,-1
 846 264 l 1,340,-1
 844 265 l 1,341,-1
 843 265 l 1,342,-1
 843 266 l 1,343,-1
 840 269 l 1,344,-1
 816 305 l 1,345,-1
 805 323 l 1,346,-1
 793 341 l 1,347,-1
 730 320 l 1,348,-1
 698 309 l 1,349,-1
 682 304 l 2,350,351
 666 298 666 298 600 295 c 2,352,-1
 567 294 l 1,353,-1
 550 293 l 1,354,-1
 533 293 l 1,355,-1
 533 248 l 2,356,357
 533 247 533 247 531 245 c 2,358,-1
 529 243 l 1,359,-1
 528 243 l 1,360,-1
 526 240 l 1,361,-1
 524 238 l 1,362,-1
 238 238 l 1,363,-1
 230 240 l 1,364,-1
 227 242 l 1,365,-1
 226 242 l 1,366,-1
 224 243 l 1,367,-1
 218 245 l 1,368,-1
 215 247 l 1,369,-1
 214 247 l 1,370,-1
 212 248 l 1,371,-1
 208 252 l 1,372,-1
 206 255 l 1,373,-1
 205 256 l 1,374,-1
 203 257 l 1,375,-1
 199 261 l 1,376,-1
 197 264 l 1,377,-1
 195 265 l 2,378,379
 194 266 194 266 192 272 c 2,380,-1
 191 275 l 1,381,-1
 190 276 l 1,382,-1
 189 278 l 1,383,-1
 187 284 l 1,384,-1
 185 287 l 1,385,-1
 185 288 l 2,386,387
 184 289 184 289 184 297 c 2,388,-1
 184 318 l 1,389,-1
 178 320 l 1,390,-1
 174 321 l 1,391,-1
 173 321 l 2,392,393
 171 323 171 323 165 324 c 2,394,-1
 162 325 l 1,395,-1
 160 325 l 1,396,-1
 159 326 l 1,397,-1
 121 338 l 1,398,-1
 103 344 l 1,399,-1
 93 347 l 2,400,401
 84 350 84 350 64 373 c 2,402,-1
 54 384 l 1,403,-1
 50 390 l 1,404,-1
 45 395 l 1,405,-1
 22 421 l 1,406,-1
 11 434 l 1,407,-1
 6 440 l 2,408,409
 0 446 0 446 0 485 c 2,410,-1
 0 581 l 2,411,412
 0 590 0 590 20 613 c 2,413,-1
 75 679 l 2,414,415
 80 685 80 685 119 699 c 2,416,-1
 139 706 l 1,417,-1
 149 709 l 1,418,-1
 159 713 l 1,419,-1
 218 734 l 1,420,-1
 247 745 l 1,421,-1
 262 750 l 2,270,271
EndSplineSet
EndChar

StartChar: uniE038
Encoding: 57400 57400 53
Width: 918
GlyphClass: 2
Flags: W
LayerCount: 2
Fore
SplineSet
638 933 m 128,-1,1
 639 935 639 935 639 944 c 0,2,3
 639 952 639 952 638 954 c 0,4,5
 633 961 633 961 631 962 c 0,6,7
 628 966 628 966 623 968 c 0,8,9
 621 969 621 969 614 969 c 0,10,11
 606 969 606 969 604 968 c 0,12,13
 598 966 598 966 594 962 c 0,14,15
 591 959 591 959 590 954 c 0,16,17
 588 946 588 946 588 944 c 0,18,19
 588 943 588 943 590 933 c 0,20,21
 591 929 591 929 594 925 c 0,22,23
 595 925 595 925 598.5 923.5 c 128,-1,24
 602 922 602 922 604 921 c 0,25,26
 608 917 608 917 614 917 c 0,27,28
 619 917 619 917 623 921 c 0,29,30
 628 922 628 922 631 925 c 0,31,0
 637 931 637 931 638 933 c 128,-1,1
597 986 m 0,32,33
 604 990 604 990 614 990 c 128,-1,34
 624 990 624 990 631 986 c 0,35,36
 643 979 643 979 646 976 c 0,37,38
 652 968 652 968 655 961 c 0,39,40
 659 954 659 954 659 944 c 128,-1,41
 659 934 659 934 655 927 c 0,42,43
 652 916 652 916 646 912 c 0,44,45
 639 905 639 905 631 902 c 0,46,47
 622 899 622 899 614 899 c 2,48,-1
 607 899 l 1,49,-1
 579 842 l 1,50,-1
 546 842 l 1,51,-1
 582 913 l 1,52,53
 575 920 575 920 571 927 c 0,54,55
 568 936 568 936 568 945 c 128,-1,56
 568 954 568 954 571 961 c 0,57,58
 576 970 576 970 582 976 c 128,-1,59
 588 982 588 982 597 986 c 0,32,33
407 954 m 0,60,61
 407 960 407 960 410 966 c 2,62,-1
 414 974 l 1,63,64
 421 978 421 978 423 978 c 0,65,66
 431 980 431 980 434 980 c 0,67,68
 435 980 435 980 443 978 c 0,69,70
 448 977 448 977 451 974 c 2,71,-1
 457 966 l 1,72,73
 459 956 459 956 459 954 c 0,74,75
 459 945 459 945 451 937 c 0,76,77
 448 933 448 933 443 931 c 0,78,79
 435 929 435 929 434 929 c 0,80,81
 431 929 431 929 423 931 c 0,82,83
 419 933 419 933 415 937 c 0,84,85
 412 940 412 940 410 945 c 0,86,87
 407 950 407 950 407 954 c 0,60,61
434 1000 m 0,88,89
 422 1000 422 1000 415 997 c 0,90,91
 406 992 406 992 402 986 c 0,92,93
 395 979 395 979 391 972 c 0,94,95
 388 964 388 964 388 954 c 256,96,97
 388 944 388 944 391 937 c 0,98,99
 396 928 396 928 402 922 c 0,100,101
 407 917 407 917 415 913 c 0,102,103
 422 909 422 909 434 909 c 2,104,-1
 439 909 l 1,105,-1
 473 842 l 1,106,-1
 505 842 l 1,107,-1
 466 923 l 1,108,109
 472 929 472 929 475 937 c 0,110,111
 479 944 479 944 479 954 c 0,112,113
 479 965 479 965 475 972 c 0,114,115
 470 982 470 982 465 986 c 0,116,117
 458 993 458 993 451 997 c 0,118,119
 444 1000 444 1000 434 1000 c 0,88,89
794 737 m 2,120,-1
 794 304 l 2,121,122
 794 299 794 299 789 294 c 0,123,124
 785 290 785 290 780 290 c 2,125,-1
 125 290 l 2,126,127
 119 290 119 290 115 293 c 0,128,129
 110 298 110 298 110 304 c 2,130,-1
 110 737 l 2,131,132
 110 744 110 744 115 749 c 0,133,134
 116 749 116 749 119.5 750.5 c 128,-1,135
 123 752 123 752 125 753 c 2,136,-1
 202 753 l 2,137,138
 209 752 209 752 212 747 c 0,139,140
 216 743 216 743 216 737 c 0,141,142
 216 733 216 733 211 728 c 0,143,144
 208 725 208 725 202 725 c 2,145,-1
 139 725 l 1,146,-1
 139 318 l 1,147,-1
 765 318 l 1,148,-1
 765 725 l 1,149,-1
 283 725 l 2,150,151
 282 724 282 724 280 724 c 0,152,153
 277 724 277 724 273 728 c 0,154,155
 269 731 269 731 269 737 c 0,156,157
 269 742 269 742 272 747 c 128,-1,158
 275 752 275 752 282 753 c 2,159,-1
 780 753 l 2,160,161
 784 752 784 752 789 747 c 0,162,163
 794 744 794 744 794 737 c 2,120,-1
872 843 m 2,164,-1
 46 843 l 2,165,166
 35 843 35 843 28 839 c 0,167,168
 19 834 19 834 14 829 c 0,169,170
 8 823 8 823 3 814 c 0,171,172
 0 806 0 806 0 797 c 2,173,-1
 0 246 l 2,174,175
 0 237 0 237 3 228 c 0,176,177
 7 221 7 221 14 214 c 128,-1,178
 21 207 21 207 28 203 c 0,179,180
 37 200 37 200 46 200 c 2,181,-1
 872 200 l 2,182,183
 881 200 881 200 890 203 c 0,184,185
 897 207 897 207 904 214 c 128,-1,186
 911 221 911 221 915 228 c 0,187,188
 918 237 918 237 918 246 c 2,189,-1
 918 797 l 2,190,191
 918 806 918 806 915 814 c 0,192,193
 910 823 910 823 904 829 c 0,194,195
 899 834 899 834 890 839 c 0,196,197
 883 843 883 843 872 843 c 2,164,-1
872 816 m 1,198,-1
 872 815 l 1,199,200
 880 815 880 815 887 811 c 0,201,202
 892 803 892 803 892 797 c 2,203,-1
 892 246 l 2,204,205
 892 240 892 240 887 232 c 0,206,207
 880 226 880 226 872 226 c 2,208,-1
 46 226 l 2,209,210
 38 226 38 226 31 232 c 0,211,212
 26 240 26 240 26 246 c 2,213,-1
 26 797 l 2,214,215
 26 805 26 805 32 811 c 0,216,217
 40 816 40 816 46 816 c 2,218,-1
 872 816 l 1,198,-1
EndSplineSet
EndChar

StartChar: uniE039
Encoding: 57401 57401 54
Width: 1024
GlyphClass: 2
Flags: W
LayerCount: 2
Fore
SplineSet
95 327 m 0,0,1
 85 327 85 327 70 322 c 0,2,3
 58 317 58 317 49 308 c 0,4,5
 41 299 41 299 35 287 c 0,6,7
 30 272 30 272 30 261 c 0,8,9
 30 251 30 251 35 236 c 0,10,11
 40 224 40 224 49 215 c 128,-1,12
 58 206 58 206 70 201 c 0,13,14
 85 196 85 196 95 196 c 0,15,16
 106 196 106 196 121 201 c 0,17,18
 133 207 133 207 142 215 c 0,19,20
 151 224 151 224 156 236 c 0,21,22
 161 251 161 251 161 261 c 0,23,24
 161 272 161 272 156 287 c 0,25,26
 152 298 152 298 141 308 c 0,27,28
 134 317 134 317 121 322 c 0,29,30
 106 327 106 327 95 327 c 0,0,1
95 166 m 0,31,32
 73 166 73 166 58 173 c 0,33,34
 42 180 42 180 28 194 c 128,-1,35
 14 208 14 208 7 224 c 0,36,37
 0 239 0 239 0 261 c 0,38,39
 0 284 0 284 7 298 c 0,40,41
 14 315 14 315 28 329 c 0,42,43
 41 342 41 342 58 349 c 0,44,45
 79 357 79 357 95 357 c 0,46,47
 113 357 113 357 132 349 c 0,48,49
 152 340 152 340 163 329 c 128,-1,50
 174 318 174 318 183 298 c 0,51,52
 191 279 191 279 191 261 c 0,53,54
 191 245 191 245 183 224 c 0,55,56
 176 207 176 207 163 194 c 0,57,58
 149 180 149 180 132 173 c 0,59,60
 118 166 118 166 95 166 c 0,31,32
383 757 m 0,61,62
 368 762 368 762 358 762 c 128,-1,63
 348 762 348 762 333 757 c 0,64,65
 321 752 321 752 312 743 c 128,-1,66
 303 734 303 734 298 722 c 0,67,68
 293 707 293 707 293 696 c 0,69,70
 293 686 293 686 298 671 c 0,71,72
 303 659 303 659 312 650 c 0,73,74
 322 640 322 640 332 636 c 0,75,76
 349 631 349 631 358 631 c 0,77,78
 368 631 368 631 383 636 c 0,79,80
 395 641 395 641 404 650 c 128,-1,81
 413 659 413 659 418 671 c 0,82,83
 423 686 423 686 423 696 c 0,84,85
 423 707 423 707 418 722 c 0,86,87
 413 734 413 734 404 743 c 128,-1,88
 395 752 395 752 383 757 c 0,61,62
358 601 m 128,-1,90
 342 601 342 601 321 609 c 0,91,92
 304 616 304 616 291 629 c 256,93,94
 278 642 278 642 270 659 c 0,95,96
 263 674 263 674 263 696 c 0,97,98
 263 719 263 719 270 734 c 0,99,100
 278 750 278 750 291 764 c 0,101,102
 304 777 304 777 321 784 c 0,103,104
 342 792 342 792 358 792 c 128,-1,105
 374 792 374 792 395 784 c 0,106,107
 412 777 412 777 425 764 c 0,108,109
 438 750 438 750 446 734 c 0,110,111
 453 719 453 719 453 696 c 0,112,113
 453 674 453 674 446 659 c 0,114,115
 438 642 438 642 425 629 c 256,116,117
 412 616 412 616 395 609 c 0,118,89
 374 601 374 601 358 601 c 128,-1,90
954 822 m 0,119,120
 939 827 939 827 929 827 c 0,121,122
 918 827 918 827 903 822 c 0,123,124
 891 816 891 816 882 808 c 0,125,126
 873 799 873 799 868 787 c 0,127,128
 863 772 863 772 863 762 c 0,129,130
 863 751 863 751 868 736 c 0,131,132
 872 726 872 726 882 716 c 0,133,134
 891 706 891 706 903 701 c 0,135,136
 918 696 918 696 929 696 c 0,137,138
 939 696 939 696 954 701 c 0,139,140
 966 706 966 706 975 715 c 128,-1,141
 984 724 984 724 989 736 c 0,142,143
 994 751 994 751 994 762 c 0,144,145
 994 772 994 772 989 787 c 0,146,147
 984 799 984 799 975 808 c 128,-1,148
 966 817 966 817 954 822 c 0,119,120
929 666 m 0,149,150
 911 666 911 666 892 674 c 0,151,152
 872 683 872 683 861 694 c 128,-1,153
 850 705 850 705 841 725 c 0,154,155
 833 744 833 744 833 762 c 0,156,157
 833 778 833 778 841 799 c 0,158,159
 848 816 848 816 861 829 c 0,160,161
 875 843 875 843 892 850 c 0,162,163
 906 857 906 857 929 857 c 0,164,165
 951 857 951 857 966 850 c 0,166,167
 982 842 982 842 996 829 c 128,-1,168
 1010 816 1010 816 1017 799 c 0,169,170
 1024 784 1024 784 1024 762 c 0,171,172
 1024 739 1024 739 1017 725 c 0,173,174
 1010 708 1010 708 996 694 c 0,175,176
 983 681 983 681 966 674 c 0,177,178
 945 666 945 666 929 666 c 0,149,150
132 320 m 0,179,180
 126 320 126 320 122 324 c 0,181,182
 117 329 117 329 117 335 c 0,183,184
 117 338 117 338 120 343 c 2,185,-1
 196 460 l 2,186,187
 200 465 200 465 205 467 c 2,188,-1
 207 467 l 2,189,190
 212 467 212 467 216 464 c 0,191,192
 222 460 222 460 223 455 c 2,193,-1
 223 452 l 1,194,-1
 221 444 l 1,195,-1
 145 327 l 2,196,197
 144 324 144 324 139 322 c 0,198,199
 133 320 133 320 132 320 c 0,179,180
254 507 m 0,200,201
 247 507 247 507 243 511 c 128,-1,202
 239 515 239 515 239 522 c 0,203,204
 239 526 239 526 242 530 c 2,205,-1
 309 633 l 2,206,207
 312 638 312 638 318 639 c 2,208,-1
 321 639 l 1,209,-1
 329 637 l 2,210,211
 335 633 335 633 336 628 c 2,212,-1
 336 625 l 2,213,214
 336 624 336 624 334 616 c 2,215,-1
 267 513 l 2,216,217
 265 511 265 511 263 510 c 2,218,-1
 261 508 l 2,219,220
 260 507 260 507 254 507 c 0,200,201
735 409 m 1,221,-1
 710 425 l 1,222,-1
 883 696 l 1,223,-1
 908 680 l 1,224,-1
 735 409 l 1,221,-1
601 399 m 1,225,-1
 399 625 l 1,226,-1
 421 645 l 1,227,-1
 624 419 l 1,228,-1
 601 399 l 1,225,-1
674 422 m 0,229,230
 664 422 664 422 649 417 c 0,231,232
 637 412 637 412 628 403 c 128,-1,233
 619 394 619 394 614 382 c 0,234,235
 609 367 609 367 609 357 c 0,236,237
 609 346 609 346 614 331 c 0,238,239
 620 319 620 319 628 310 c 0,240,241
 637 301 637 301 649 296 c 0,242,243
 664 291 664 291 674 291 c 0,244,245
 685 291 685 291 700 296 c 0,246,247
 712 302 712 302 721 310 c 0,248,249
 730 319 730 319 735 331 c 0,250,251
 740 346 740 346 740 357 c 0,252,253
 740 367 740 367 735 382 c 0,254,255
 730 394 730 394 721 403 c 128,-1,256
 712 412 712 412 700 417 c 0,257,258
 685 422 685 422 674 422 c 0,229,230
674 261 m 0,259,260
 658 261 658 261 637 269 c 0,261,262
 620 276 620 276 607 289 c 0,263,264
 596 300 596 300 587 320 c 0,265,266
 579 339 579 339 579 357 c 0,267,268
 579 373 579 373 587 394 c 0,269,270
 594 411 594 411 607 424 c 128,-1,271
 620 437 620 437 637 444 c 0,272,273
 658 452 658 452 674 452 c 0,274,275
 692 452 692 452 711 444 c 0,276,277
 729 437 729 437 742 424 c 128,-1,278
 755 411 755 411 762 394 c 0,279,280
 770 373 770 373 770 357 c 0,281,282
 770 339 770 339 762 320 c 0,283,284
 753 300 753 300 742 289 c 0,285,286
 729 276 729 276 711 269 c 0,287,288
 692 261 692 261 674 261 c 0,259,260
EndSplineSet
EndChar

StartChar: uniE040
Encoding: 57408 57408 55
Width: 1024
GlyphClass: 2
Flags: W
LayerCount: 2
Fore
SplineSet
886 715 m 0,0,1
 916 662 916 662 929 599 c 0,2,3
 938 554 938 554 938 508 c 0,4,5
 938 484 938 484 937 477 c 0,6,7
 931 417 931 417 908 355 c 0,8,9
 875 276 875 276 816 212 c 1,10,11
 756 153 756 153 681 121 c 0,12,13
 604 86 604 86 521 85 c 2,14,-1
 511 85 l 2,15,16
 428 85 428 85 355 115 c 0,17,18
 275 147 275 147 212 208 c 0,19,20
 155 264 155 264 120 342 c 0,21,22
 86 421 86 421 85 502 c 2,23,-1
 85 513 l 2,24,25
 85 596 85 596 115 669 c 0,26,27
 115 671 115 671 116 673 c 2,28,-1
 123 687 l 2,29,30
 125 689 125 689 128 697 c 0,31,32
 132 705 132 705 134 708 c 0,33,34
 134 709 134 709 136 712 c 128,-1,35
 138 715 138 715 138 717 c 0,36,37
 140 721 140 721 143.5 727 c 128,-1,38
 147 733 147 733 148 734 c 2,39,-1
 148 735 l 1,40,-1
 149 737 l 2,41,42
 157 750 157 750 160 753 c 0,43,44
 203 814 203 814 265 861 c 0,45,46
 336 911 336 911 416 927 c 0,47,48
 467 939 467 939 514 939 c 0,49,50
 542 939 542 939 579 933 c 0,51,52
 663 918 663 918 738 874 c 0,53,54
 742 870 742 870 743 863 c 0,55,56
 744 862 744 862 744 859 c 2,57,-1
 742 851 l 2,58,59
 737 844 737 844 732 844 c 1,60,61
 732 843 732 843 728 843 c 128,-1,62
 724 843 724 843 720 846 c 0,63,64
 692 863 692 863 656 877 c 1,65,-1
 528 785 l 1,66,-1
 528 677 l 1,67,-1
 667 576 l 1,68,-1
 767 611 l 1,69,-1
 815 762 l 1,70,71
 797 782 797 782 788 791 c 0,72,73
 783 796 783 796 783 803 c 128,-1,74
 783 810 783 810 787 815 c 1,75,-1
 788 815 l 1,76,77
 793 820 793 820 800 820 c 0,78,79
 806 820 806 820 811 815 c 0,80,81
 857 769 857 769 886 715 c 0,0,1
594 394 m 1,82,-1
 646 550 l 1,83,-1
 512 649 l 1,84,-1
 378 550 l 1,85,-1
 428 394 l 1,86,-1
 594 394 l 1,82,-1
616 890 m 1,87,88
 564 905 564 905 512 905 c 0,89,90
 461 905 461 905 407 890 c 1,91,-1
 512 814 l 1,92,-1
 616 890 l 1,87,88
368 877 m 1,93,94
 339 867 339 867 316 853 c 0,95,96
 253 816 253 816 209 762 c 1,97,-1
 257 611 l 1,98,-1
 356 576 l 1,99,-1
 495 677 l 1,100,-1
 495 785 l 1,101,-1
 368 877 l 1,93,94
177 718 m 0,102,103
 156 681 156 681 146 656 c 0,104,105
 120 591 120 591 119 529 c 1,106,-1
 224 606 l 1,107,-1
 184 727 l 1,108,109
 182 723 182 723 177 718 c 0,102,103
119 488 m 1,110,111
 122 440 122 440 138 390 c 0,112,113
 154 345 154 345 181 301 c 1,114,-1
 338 301 l 1,115,-1
 398 380 l 1,116,-1
 344 544 l 1,117,-1
 246 580 l 1,118,-1
 119 488 l 1,119,-1
 119 487 l 1,120,-1
 119 488 l 1,110,111
204 267 m 1,121,122
 241 222 241 222 280 194 c 0,123,124
 324 162 324 162 374 144 c 1,125,-1
 334 267 l 1,126,-1
 204 267 l 1,121,122
623 189 m 1,127,-1
 624 192 l 1,128,-1
 626 197 l 1,129,-1
 644 252 l 1,130,-1
 655 286 l 1,131,-1
 598 359 l 1,132,-1
 424 359 l 1,133,-1
 364 281 l 1,134,-1
 412 131 l 1,135,136
 457 121 457 121 508 118 c 0,137,138
 554 118 554 118 604 130 c 1,139,-1
 623 189 l 1,127,-1
643 142 m 1,140,141
 693 159 693 159 740 192 c 0,142,143
 785 226 785 226 819 267 c 1,144,-1
 684 267 l 1,145,-1
 675 241 l 2,146,147
 674 240 674 240 674 234 c 2,148,-1
 672 229 l 1,149,-1
 672 227 l 1,150,-1
 671 225 l 2,151,152
 669 219 669 219 667 215 c 0,153,154
 665 209 665 209 665 208 c 0,155,156
 661 193 661 193 654 175 c 1,157,-1
 654 172 l 1,158,-1
 643 142 l 1,140,141
843 301 m 1,159,160
 870 344 870 344 885 390 c 0,161,162
 900 438 900 438 903 489 c 1,163,-1
 777 580 l 1,164,-1
 678 544 l 1,165,-1
 625 380 l 1,166,-1
 686 301 l 1,167,-1
 843 301 l 1,159,160
839 727 m 1,168,-1
 799 606 l 1,169,-1
 904 529 l 1,170,171
 901 583 901 583 885 634 c 0,172,173
 869 684 869 684 839 727 c 1,168,-1
EndSplineSet
EndChar

